<?xml version="1.0" encoding="UTF-8"?>
<svg width="11px" height="12px" viewBox="0 0 11 12" version="1.1" xmlns="http://www.w3.org/2000/svg" xmlns:xlink="http://www.w3.org/1999/xlink">
    <!-- Generator: Sketch 46.1 (44463) - http://www.bohemiancoding.com/sketch -->
    <title>avatar_default</title>
    <desc>Created with Sketch.</desc>
    <defs></defs>
    <g id="官网" stroke="none" stroke-width="1" fill="none" fill-rule="evenodd">
        <g id="index" transform="translate(-1202.000000, -14.000000)" fill="#FFFFFF">
            <g id="Header">
                <g id="bg">
                    <g id="top" transform="translate(0.000000, 11.000000)">
                        <g id="topbarheader">
                            <g id="Login" transform="translate(1202.000000, 1.000000)">
                                <g id="sign">
                                    <g id="avatar_default" transform="translate(0.000000, 2.000000)">
                                        <path d="M2.5958758,3.6839582 C2.5958758,2.13059129 3.87893394,0.866791058 5.4559712,0.866791058 C7.03300846,0.866791058 8.3160666,2.13059129 8.3160666,3.6839582 C8.3160666,5.2373251 7.03300846,6.50112534 5.4559712,6.50112534 C3.87893394,6.50112534 2.5958758,5.2373251 2.5958758,3.6839582 M10.7046653,10.3208611 C10.4205931,9.59289652 10.0133814,8.9385886 9.49433139,8.37608039 C8.97256615,7.81060858 8.36398682,7.3662112 7.68539847,7.0551764 C7.55653493,6.99604871 7.42613032,6.94234226 7.29440477,6.89398477 C7.58610897,6.73134747 7.85719206,6.52866525 8.10060912,6.28890173 C8.80701026,5.59310323 9.19609596,4.66794999 9.19609596,3.6839582 C9.19609596,2.6999664 8.80701026,1.77481316 8.10060912,1.07901466 C7.39420797,0.383216158 6.45495716,4.2682927e-05 5.4559712,4.2682927e-05 C4.45698525,4.2682927e-05 3.51773444,0.383216158 2.81133329,1.07901466 C2.10493214,1.77481316 1.71584645,2.6999664 1.71584645,3.6839582 C1.71584645,4.66794999 2.10493214,5.59310323 2.81133329,6.28890173 C3.05475035,6.52866525 3.32583344,6.73134747 3.61753763,6.89398477 C3.48581209,6.94241454 3.35540748,6.99604871 3.22654394,7.0551764 C2.54795559,7.3662112 1.93930287,7.81060858 1.41753763,8.37608039 C0.898561017,8.9385886 0.46962743,9.58508993 0.207203734,10.3208611 C-0.0117762191,10.9348349 0.0111198081,11.5412191 -3.4666667e-05,11.8243525 L0.879774533,11.8243525 C0.850714191,9.80186737 2.80318759,7.43408516 5.4559712,7.43408516 C8.10868143,7.43408516 10.1125241,9.88853498 10.1201561,11.8243525 L10.9999653,11.8243525 C10.984261,11.2770238 10.9979106,11.0721731 10.7046653,10.3208611" id="Fill-1"></path>
                                    </g>
                                </g>
                            </g>
                        </g>
                    </g>
                </g>
            </g>
        </g>
    </g>
</svg>