<?xml version="1.0" encoding="UTF-8"?>
<svg width="48px" height="46px" viewBox="0 0 48 46" version="1.1" xmlns="http://www.w3.org/2000/svg" xmlns:xlink="http://www.w3.org/1999/xlink">
    <!-- Generator: Sketch 43.1 (39012) - http://www.bohemiancoding.com/sketch -->
    <title>floor_facility_lounge</title>
    <desc>Created with Sketch.</desc>
    <defs></defs>
    <g id="官网" stroke="none" stroke-width="1" fill="none" fill-rule="evenodd">
        <g id="Zone-Details" transform="translate(-1024.000000, -832.000000)" fill="#242B3A">
            <g id="Equip" transform="translate(326.000000, 742.000000)">
                <g id="floor_facility_lounge" transform="translate(698.000000, 90.000000)">
                    <path d="M5.60420571,29.0872783 C5.79593143,29.0872783 5.98848,29.0053493 6.12836571,28.8703434 C6.26112,28.7285328 6.34258286,28.5341896 6.34258286,28.339302 C6.34258286,28.1376097 6.26112,27.9506156 6.12836571,27.8079884 C5.85517714,27.5311718 5.35323429,27.5311718 5.07977143,27.8079884 C4.94729143,27.9432665 4.86582857,28.1376097 4.86582857,28.339302 C4.86582857,28.5341896 4.94729143,28.7285328 5.07977143,28.8703434 C5.22075429,29.0053493 5.41220571,29.0872783 5.60420571,29.0872783 L5.60420571,29.0872783 Z M38.4943543,37.4388641 L38.4943543,21.2000476 C43.8846171,21.2770771 45.7165714,21.9940239 45.7165714,25.2355268 C45.7165714,29.4966511 42.4533943,36.303018 38.4943543,37.4388641 L38.4943543,37.4388641 Z M36.2951314,37.8994085 C36.2951314,42.3861777 35.4846171,43.3965446 31.3149257,43.3965446 L6.44626286,43.3965446 C2.47762286,43.3965446 2.10048,42.6322369 2.10048,37.8994085 L2.10048,17.4141659 L36.2951314,17.4141659 L36.2951314,37.8994085 Z M38.3953371,18.8290061 L38.3953371,16.3558937 C38.3953371,15.529799 37.6608,15.0703434 36.8453486,15.0703434 L1.40324571,15.0703434 C0.587794286,15.0703434 0,15.529799 0,16.3558937 L0,37.5254203 C0,42.8344736 1.03350857,45.7403671 7.08233143,45.7403671 L30.7104,45.7403671 C35.5208229,45.7403671 37.7255314,44.0484381 38.2612114,39.8548168 C43.8772114,39.0483197 48.0002743,30.9147576 48,25.5414677 C48,19.3311955 42.7397486,18.8643907 38.3953371,18.8290061 L38.3953371,18.8290061 Z M5.16864,32.0647576 L5.16864,34.6230653 C5.16864,38.8746629 6.40758857,40.1711008 10.5918171,40.1711008 C10.9994057,40.1711008 11.3301943,39.8368523 11.3301943,39.4233967 C11.3301943,39.009941 10.9994057,38.6754203 10.5918171,38.6754203 C7.20438857,38.6754203 6.64539429,38.069799 6.64539429,34.6230653 L6.64539429,32.0647576 C6.64539429,31.651302 6.31433143,31.3167813 5.90701714,31.3167813 C5.49888,31.3167813 5.16864,31.651302 5.16864,32.0647576 Z M22.3446857,7.64910081 C22.8063086,8.07017773 22.85376,8.37965702 22.8501943,8.57536116 C22.8375771,9.15920732 22.2588343,9.9850298 21.3026743,10.7855387 C20.7790629,11.2232192 20.7047314,12.0084854 21.1370057,12.5387103 C21.3800229,12.8367576 21.7316571,12.991089 22.0860343,12.991089 C22.3614171,12.991089 22.63872,12.897728 22.8680229,12.7058345 C24.4352914,11.3946984 25.2795429,9.9850298 25.3083429,8.62843809 C25.3234286,7.8997872 25.1072914,6.81729016 23.9895771,5.79794104 C22.1285486,4.10192921 21.91488,3.35204755 22.8992914,1.97640258 C23.2981029,1.42004755 23.1754971,0.640769447 22.6255543,0.237112642 C22.0764343,-0.166271973 21.3073371,-0.0426980085 20.9088,0.514473589 C18.3850971,4.03987004 21.0593829,6.47787004 22.3446857,7.64910081 Z M14.96832,7.64910081 C15.4299429,8.07017773 15.4773943,8.37965702 15.4738286,8.57536116 C15.4612114,9.15920732 14.8824686,9.9850298 13.9263086,10.7855387 C13.4026971,11.2232192 13.3283657,12.0084854 13.76064,12.5387103 C14.0036571,12.8367576 14.3552914,12.991089 14.7096686,12.991089 C14.9853257,12.991089 15.2623543,12.897728 15.4916571,12.7058345 C17.0592,11.3946984 17.9031771,9.9850298 17.9319771,8.62843809 C17.9470629,7.8997872 17.7309257,6.81729016 16.6132114,5.79794104 C14.7521829,4.10192921 14.5385143,3.35204755 15.5229257,1.97640258 C15.9214629,1.42004755 15.7991314,0.640769447 15.2491886,0.237112642 C14.7000686,-0.166271973 13.9317943,-0.0426980085 13.5324343,0.514473589 C11.0087314,4.03987004 13.6830171,6.47787004 14.96832,7.64910081 L14.96832,7.64910081 Z" id="Fill-1"></path>
                </g>
            </g>
        </g>
    </g>
</svg>