<?xml version="1.0" encoding="UTF-8"?>
<svg width="48px" height="35px" viewBox="0 0 48 35" version="1.1" xmlns="http://www.w3.org/2000/svg" xmlns:xlink="http://www.w3.org/1999/xlink">
    <!-- Generator: Sketch 43.1 (39012) - http://www.bohemiancoding.com/sketch -->
    <title>floor_facility_wifi</title>
    <desc>Created with Sketch.</desc>
    <defs></defs>
    <g id="官网" stroke="none" stroke-width="1" fill="none" fill-rule="evenodd">
        <g id="Zone-Details" transform="translate(-326.000000, -837.000000)" fill="#242B3A">
            <g id="Equip" transform="translate(326.000000, 742.000000)">
                <g id="floor_facility_wifi" transform="translate(0.000000, 95.000000)">
                    <path d="M20,30.4071281 C20,32.8411438 21.9887719,34.8142561 24.4421053,34.8142561 C26.8954386,34.8142561 28.8842105,32.8411438 28.8842105,30.4071281 C28.8842105,27.9731123 26.8954386,26 24.4421053,26 C21.9887719,26 20,27.9731123 20,30.4071281" id="Fill-1"></path>
                    <path d="M23.8513558,18 C20.1696715,18 16.8441979,19.4854737 14.4321277,21.884121 C13.8075663,22.5051571 13.8670751,23.5274994 14.5648996,24.0663804 L14.5901628,24.0858748 C15.1804786,24.5414869 16.0127593,24.474649 16.54104,23.949971 C18.4127593,22.0921542 20.9924084,20.9450477 23.8513558,20.9450477 C26.7114259,20.9450477 29.2891101,22.0929896 31.1667242,23.9519204 C31.695847,24.475763 32.5284084,24.54093 33.1176014,24.0847609 L33.1408996,24.0666589 C33.8376014,23.5274994 33.8959873,22.506271 33.272268,21.8855135 C30.8599172,19.4863092 27.5338821,18 23.8513558,18" id="Fill-3"></path>
                    <path d="M23.898037,0 C14.4886335,0 6.07347564,4.1631695 0.372142309,10.7138467 C-0.193191025,11.3635673 -0.106173481,12.3474778 0.577054589,12.8743838 L0.600914239,12.8927642 C1.22659845,13.3751115 2.12905459,13.2976908 2.64610722,12.702276 C7.7950195,6.77625528 15.396423,3.01132864 23.898037,3.01132864 C32.3962827,3.01132864 40.0004932,6.77625528 45.1496862,12.702276 C45.6670195,13.2974123 46.5697563,13.374833 47.1951599,12.8922072 L47.2223879,12.8713203 C47.905616,12.3444144 47.9923528,11.3602254 47.4264581,10.7107833 C41.7195107,4.16010609 33.3077213,0 23.898037,0" id="Fill-5"></path>
                    <path d="M23.8913182,9 C17.324862,9 11.436862,11.834765 7.37342343,16.3290609 C6.80668659,16.9559453 6.89623045,17.9298301 7.56598483,18.4475458 L7.59068659,18.4667617 C8.19419536,18.933235 9.06184448,18.8647261 9.57244097,18.2996668 C13.095248,14.4027352 18.1984059,11.9380854 23.8913182,11.9380854 C29.5845111,11.9380854 34.6851427,14.4027352 38.2127217,18.3005023 C38.7238796,18.8650046 39.5915287,18.9329565 40.1947568,18.4662047 L40.218055,18.4481028 C40.8869673,17.9301086 40.9762304,16.9565023 40.4094936,16.3298964 C36.3457743,11.8375499 30.4577743,9 23.8913182,9" id="Fill-7"></path>
                </g>
            </g>
        </g>
    </g>
</svg>