<?xml version="1.0" encoding="UTF-8"?>
<svg width="48px" height="46px" viewBox="0 0 48 46" version="1.1" xmlns="http://www.w3.org/2000/svg" xmlns:xlink="http://www.w3.org/1999/xlink">
    <!-- Generator: Sketch 43.1 (39012) - http://www.bohemiancoding.com/sketch -->
    <title>floor_facility_desk</title>
    <desc>Created with Sketch.</desc>
    <defs></defs>
    <g id="官网" stroke="none" stroke-width="1" fill="none" fill-rule="evenodd">
        <g id="Zone-Details" transform="translate(-604.000000, -832.000000)" stroke="#242B3A" fill="#242B3A">
            <g id="Equip" transform="translate(326.000000, 742.000000)">
                <g id="floor_facility_desk" transform="translate(279.000000, 91.000000)">
                    <path d="M43.79244,31.6547632 C43.7732357,31.2248492 43.7492304,30.7949353 43.719551,30.3658942 C44.3017899,29.2337147 46.7808876,23.9438089 45.7534587,17.6212367 C45.2969206,14.7929703 44.1298243,12.8140567 42.2910146,11.7377442 C41.1212995,11.05381 39.9197227,11.0188931 38.9913704,10.9228717 L38.5082082,6.55258898 C38.3401708,4.76528171 37.5060941,3.10673039 36.1718332,1.90559006 C34.8192409,0.678262086 33.0576848,-0.00130749397 31.2310961,1.88865099e-06 L14.7677919,1.88865099e-06 C12.9346563,1.88865099e-06 11.1800835,0.677825625 9.82705484,1.90559006 C8.49323041,3.10673039 7.65915368,4.76528171 7.49067978,6.55258898 C7.46449213,6.7620902 7.37414473,7.59136586 7.0075176,10.9228717 C6.07654655,11.0188931 4.87758853,11.05381 3.70787339,11.7377442 C1.86906373,12.8140567 0.705022584,14.7929703 0.245429284,17.6212367 C-0.778944386,23.9438089 1.69753461,29.2337147 2.28239218,30.3658942 C2.2531493,30.7032785 2.23263564,31.1340654 2.20644799,31.6547632 C2.18637079,32.041904 2.17153112,32.4316636 2.15712791,32.8188043 C2.13966947,33.1941607 2.11348182,33.5721358 2.13966947,33.9474922 C2.17764157,34.4799744 2.33171226,35.0124567 2.59664401,35.4781605 L2.60537323,35.4986741 C3.29192618,36.6884665 5.02904046,37.0027183 7.02803126,37.0027183 L22.1788976,37.0027183 L22.1788976,40.352119 C22.1396161,40.3604118 22.1007711,40.3708868 22.0623625,40.3839807 L16.0365837,42.5457714 C15.604051,42.6963504 15.3753455,43.1690375 15.5259245,43.6015702 C15.5272338,43.6054984 15.5285432,43.609863 15.5302891,43.6137911 C15.6948348,44.0471968 16.1771241,44.2676095 16.612712,44.1083013 L22.6415461,41.9495658 C22.7698656,41.903301 22.8846548,41.8260474 22.9763116,41.7252249 C23.0636038,41.8212463 23.1797023,41.8998093 23.3106406,41.9495658 L29.3368559,44.1113565 C29.7733168,44.2719741 30.2573519,44.0493791 30.4192789,43.6137911 C30.5781506,43.1860595 30.3599202,42.7103171 29.9317521,42.5514454 C29.9265145,42.5496995 29.921277,42.5479537 29.9160395,42.5457714 L23.886769,40.3839807 C23.858399,40.3735056 23.8291561,40.363467 23.7994768,40.3547378 L23.7994768,37.0027183 L38.973912,37.0027183 C40.9672288,37.0027183 42.7069618,36.6884665 43.390896,35.4986741 L43.4026805,35.4781605 C43.664557,35.0124567 43.8216829,34.4799744 43.8592185,33.9474922 C43.8884614,33.5721358 43.8592185,33.1941607 43.8417601,32.8188043 C43.8273569,32.4316636 43.8129537,32.041904 43.79244,31.6547632 M2.23001688,26.7838599 C2.03535533,26.1667042 1.88957739,25.5351453 1.793556,24.8952937 C1.5124752,23.363316 1.40990689,21.8042777 1.48803339,20.2487312 C1.55786713,19.0672316 1.70626383,17.885732 2.02051566,16.7422045 C2.23569087,15.9478457 2.55299792,15.1709454 2.96588991,14.4582048 C4.16484793,12.386325 6.99005916,12.3252205 6.99005916,12.3252205 L5.13379107,27.9099289 L5.14252028,27.9156029 L4.96793594,29.3122777 L4.92428985,29.3066037 C3.50448263,29.0678596 2.64290886,28.0962977 2.23001688,26.7838599 M41.1998624,35.3734098 L41.1649456,35.3790838 L4.83394245,35.3790838 L4.79640681,35.3734098 C3.62669167,35.2250131 3.66422731,33.7205325 3.66422731,33.7205325 C3.68779619,32.7254017 3.70787339,31.5879847 3.73144228,31.1977887 C4.12687583,31.1017673 4.56333671,30.965155 4.99106836,30.7351401 C5.98925438,30.1939287 6.57978594,29.280416 6.62648725,28.2067223 L8.96024355,7.00912706 C8.96024355,4.82420392 10.8426993,1.47523964 14.7677919,1.47523964 L31.2310961,1.47523964 C35.1592439,1.47523964 37.0390809,4.82420392 37.0390809,7.00912706 L39.3724007,28.2067223 C39.4221573,29.2773608 40.0126889,30.1939287 41.0078196,30.7381954 C41.4324961,30.9682102 41.8750674,31.1017673 42.2678822,31.1977887 C42.2910146,31.5879847 42.3115283,32.7254017 42.3316055,33.7235877 C42.3316055,33.7235877 42.3726328,35.2250131 41.1998624,35.3734098 M41.0719794,29.3066037 C41.0427365,29.3122777 41.0340073,29.3096589 41.0340073,29.3096589 L40.8594229,27.9156029 L40.8650969,27.9099289 L39.0057736,12.3252205 C39.0057736,12.3252205 41.8340401,12.386325 43.0329981,14.4582048 C43.4489453,15.1709454 43.7605784,15.9478457 43.9788088,16.7422045 C44.2930606,17.885732 44.4384021,19.0672316 44.5112911,20.2487312 C44.5911634,21.8042777 44.489468,23.363316 44.2083872,24.8952937 L44.1210951,25.3815111 C44.0311841,25.8550711 43.9146491,26.3233936 43.7719264,26.7838599 C43.3529239,28.0962977 42.4917866,29.0678596 41.0719794,29.3066037" id="Fill-1"></path>
                </g>
            </g>
        </g>
    </g>
</svg>