<?xml version="1.0" encoding="UTF-8"?>
<svg width="46px" height="46px" viewBox="0 0 46 46" version="1.1" xmlns="http://www.w3.org/2000/svg" xmlns:xlink="http://www.w3.org/1999/xlink">
    <!-- Generator: Sketch 43.1 (39012) - http://www.bohemiancoding.com/sketch -->
    <title>floor_facility_safe</title>
    <desc>Created with Sketch.</desc>
    <defs></defs>
    <g id="官网" stroke="none" stroke-width="1" fill="none" fill-rule="evenodd">
        <g id="Zone-Details" transform="translate(-881.000000, -832.000000)" fill="#242B3A">
            <g id="Equip" transform="translate(326.000000, 742.000000)">
                <g id="floor_facility_safe" transform="translate(555.000000, 90.000000)">
                    <path d="M43.9091707,41.8183415 C43.9091707,42.9682599 42.9682599,43.9091707 41.8183415,43.9091707 L4.18190942,43.9091707 C3.03174006,43.9091707 2.09082926,42.9682599 2.09082926,41.8183415 L2.09082926,4.18190942 C2.09082926,3.03199097 3.03174006,2.09108017 4.18190942,2.09108017 L41.8183415,2.09108017 C42.9682599,2.09108017 43.9091707,3.03199097 43.9091707,4.18190942 L43.9091707,41.8183415 Z M41.8183415,0 L4.18190942,0 C1.8818216,0 0,1.8818216 0,4.18190942 L0,41.8183415 C0,44.1184293 1.8818216,46.0002509 4.18190942,46.0002509 L41.8183415,46.0002509 C44.1181784,46.0002509 46,44.1184293 46,41.8183415 L46,4.18190942 C46,1.8818216 44.1181784,0 41.8183415,0 L41.8183415,0 Z M37.6364321,12.5454774 C36.4865136,12.5454774 35.5456028,13.4863882 35.5456028,14.6365575 L35.5456028,16.7273868 C35.5456028,17.8773052 36.4865136,18.818216 37.6364321,18.818216 L37.6364321,27.1820349 C36.4865136,27.1820349 35.5456028,28.1229457 35.5456028,29.2728641 L35.5456028,31.3636934 C35.5456028,32.5138628 36.4865136,33.4547736 37.6364321,33.4547736 L37.6364321,37.6364321 L8.36356793,37.6364321 L8.36356793,8.36381884 L37.6364321,8.36381884 L37.6364321,12.5454774 Z M39.7272613,12.5454774 L39.7272613,6.27273868 L6.27273868,6.27273868 L6.27273868,39.7275122 L39.7272613,39.7275122 L39.7272613,33.4547736 C40.8774307,33.4547736 41.8183415,32.5138628 41.8183415,31.3636934 L41.8183415,29.2728641 C41.8183415,28.1229457 40.8774307,27.1820349 39.7272613,27.1820349 L39.7272613,18.818216 C40.8774307,18.818216 41.8183415,17.8773052 41.8183415,16.7273868 L41.8183415,14.6365575 C41.8183415,13.4863882 40.8774307,12.5454774 39.7272613,12.5454774 L39.7272613,12.5454774 Z M23.0001255,25.0909547 C24.1500439,25.0909547 25.0909547,24.1500439 25.0909547,23.0001255 C25.0909547,21.850207 24.1500439,20.9092962 23.0001255,20.9092962 C21.8499561,20.9092962 20.9090453,21.850207 20.9090453,23.0001255 C20.9090453,24.1500439 21.8499561,25.0909547 23.0001255,25.0909547 L23.0001255,25.0909547 Z M17.772676,21.9545854 L16.8317651,21.9545854 C17.0410237,21.0136746 17.3546606,20.177393 17.8773052,19.3411115 L18.5045791,19.9683854 C18.9228453,20.3864007 19.5501192,20.3864007 19.9681345,19.9683854 C20.3864007,19.5501192 20.3864007,18.9228453 19.9681345,18.5045791 L19.3408606,17.8773052 C20.0727638,17.3546606 21.0136746,16.9363944 21.9545854,16.8320161 L21.9545854,17.7729269 C21.9545854,18.4002007 22.3728516,18.818216 23.0001255,18.818216 C23.6273993,18.818216 24.0454146,18.4002007 24.0454146,17.7729269 L24.0454146,16.8320161 C24.9863254,17.0410237 25.8228579,17.3546606 26.6591394,17.8773052 L26.0318655,18.5045791 C25.6135993,18.9228453 25.6135993,19.5501192 26.0318655,19.9683854 C26.4501317,20.3864007 27.0774056,20.3864007 27.4954209,19.9683854 L28.1226948,19.3411115 C28.6455903,20.0727638 29.0636056,21.0136746 29.1682349,21.9545854 L28.227324,21.9545854 C27.6000502,21.9545854 27.181784,22.3728516 27.181784,23.0001255 C27.181784,23.6273993 27.6000502,24.0456655 28.227324,24.0456655 L29.1682349,24.0456655 C28.9592272,24.9865763 28.6455903,25.8228579 28.1226948,26.6591394 L27.4954209,26.0318655 C27.0774056,25.6138502 26.4501317,25.6138502 26.0318655,26.0318655 C25.6135993,26.4501317 25.6135993,27.0774056 26.0318655,27.4956718 L26.6591394,28.1229457 C25.9272362,28.6455903 24.9863254,29.0638565 24.0454146,29.1682349 L24.0454146,28.227324 C24.0454146,27.6000502 23.6273993,27.1820349 23.0001255,27.1820349 C22.3728516,27.1820349 21.9545854,27.6000502 21.9545854,28.227324 L21.9545854,29.1682349 C21.0136746,28.9592272 20.177393,28.6455903 19.3408606,28.1229457 L19.9681345,27.4956718 C20.3864007,27.0774056 20.3864007,26.4501317 19.9681345,26.0318655 C19.5501192,25.6138502 18.9228453,25.6138502 18.5045791,26.0318655 L17.8773052,26.6591394 C17.3546606,25.9274871 16.9363944,24.9865763 16.8317651,24.0456655 L17.772676,24.0456655 C18.3999498,24.0456655 18.818216,23.6273993 18.818216,23.0001255 C18.818216,22.3728516 18.3999498,21.9545854 17.772676,21.9545854 L17.772676,21.9545854 Z M17.0410237,28.9592272 L17.0410237,28.9592272 C18.5045791,30.4227826 20.5954084,31.3636934 23.0001255,31.3636934 C25.4045916,31.3636934 27.3910425,30.4227826 28.9592272,28.9592272 C30.4227826,27.4956718 31.3636934,25.4045916 31.3636934,23.0001255 C31.3636934,18.4002007 27.6000502,14.6365575 23.0001255,14.6365575 C18.3999498,14.6365575 14.6363066,18.4002007 14.6363066,23.0001255 C14.6363066,25.3002133 15.5772174,27.3910425 17.0410237,28.9592272 L17.0410237,28.9592272 Z" id="Fill-1"></path>
                </g>
            </g>
        </g>
    </g>
</svg>