<?xml version="1.0" encoding="UTF-8"?>
<svg width="49px" height="43px" viewBox="0 0 49 43" version="1.1" xmlns="http://www.w3.org/2000/svg" xmlns:xlink="http://www.w3.org/1999/xlink">
    <!-- Generator: Sketch 43.1 (39012) - http://www.bohemiancoding.com/sketch -->
    <title>floor_facility_meeting</title>
    <desc>Created with Sketch.</desc>
    <defs>
        <path d="M44.5636364,28.3272727 L21.969697,28.3272727 C21.4363636,28.3272727 21,27.8909091 21,27.3575758 C21,26.8242424 21.4363636,26.3878788 21.969697,26.3878788 L44.5636364,26.3878788 C45.4121212,26.3878788 46.0909091,25.7090909 46.0909091,24.8606061 L46.0909091,5.46666667 C46.0909091,4.61818182 45.4121212,3.93939394 44.5636364,3.93939394 L21.969697,3.93939394 C21.4363636,3.93939394 21,3.5030303 21,2.96969697 C21,2.43636364 21.4363636,2 21.969697,2 L44.5636364,2 C46.4787879,2 48.030303,3.55151515 48.030303,5.46666667 L48.030303,24.8606061 C48.030303,26.7757576 46.4787879,28.3272727 44.5636364,28.3272727" id="path-1"></path>
        <path d="M8.38181818,1.91515152 C6.49090909,1.91515152 4.93939394,3.46666667 4.93939394,5.35757576 C4.93939394,7.24848485 6.49090909,8.8 8.38181818,8.8 C10.2727273,8.8 11.8242424,7.24848485 11.8242424,5.35757576 C11.8242424,3.46666667 10.2969697,1.91515152 8.38181818,1.91515152 M8.38181818,10.7636364 C5.4,10.7636364 3,8.33939394 3,5.38181818 C3,2.42424242 5.42424242,0 8.38181818,0 C11.3636364,0 13.7636364,2.42424242 13.7636364,5.38181818 C13.7636364,8.33939394 11.3636364,10.7636364 8.38181818,10.7636364" id="path-2"></path>
        <path d="M4.83170365,14.9393939 C4.03170365,14.9393939 3.2801885,15.2545455 2.72261275,15.8363636 C2.16503699,16.4181818 1.89837032,17.1939394 1.92261275,17.969697 L2.38321881,26.430303 C2.43170365,27.4727273 3.23170365,28.2969697 4.24988547,28.3939394 L5.0741279,28.4666667 L5.75291578,39.4969697 C5.80140062,40.2 6.38321881,40.7575758 7.08624911,40.7575758 L10.165037,40.7575758 C10.8680673,40.7575758 11.4498855,40.2 11.4983703,39.4969697 L12.7104915,19.1818182 L21.7771582,17.630303 C22.5286734,17.6060606 23.1104915,17.0242424 23.1104915,16.2969697 C23.1104915,15.5454545 22.5044309,14.9636364 21.7771582,14.9636364 L4.83170365,14.9636364 L4.83170365,14.9393939 Z M10.1892794,42.7212121 L7.11049153,42.7212121 C5.38927941,42.7212121 3.95897638,41.3636364 3.83776426,39.6424242 L3.25594608,30.1878788 C1.70443093,29.7030303 0.565036988,28.2484848 0.468067291,26.5515152 L0.00746123049,18.0909091 C-0.0652660422,16.7575758 0.395340018,15.4969697 1.31655214,14.5030303 C2.23776426,13.5333333 3.52261275,13 4.83170365,13 L21.8014006,13 C23.6195824,13 25.0741279,14.4787879 25.0741279,16.2727273 C25.0741279,18.0181818 23.6680673,19.4727273 21.9226127,19.5454545 L14.5771582,20.8060606 L13.4620067,39.6181818 C13.3407946,41.3636364 11.9104915,42.7212121 10.1892794,42.7212121 L10.1892794,42.7212121 Z" id="path-3"></path>
        <path d="M29.8606061,20.7193473 C30.0060606,20.8648019 30.2242424,20.9375291 30.4424242,20.9375291 L30.5878788,20.9375291 C30.8545455,20.9132867 31.0727273,20.7435897 31.1939394,20.5011655 L33.9333333,15.0223776 L36.3575758,17.4951049 C36.5272727,17.6648019 36.7939394,17.7617716 37.0121212,17.7132867 C37.2787879,17.6890443 37.4727273,17.5435897 37.6181818,17.3496503 L42.4666667,9.22843823 C42.6848485,8.86480186 42.5878788,8.33146853 42.1757576,8.11328671 C41.8121212,7.8951049 41.2787879,7.99207459 41.0606061,8.4041958 L36.7212121,15.6041958 L34.2242424,13.0829837 C34.0545455,12.9132867 33.7636364,12.816317 33.5454545,12.8648019 C33.3272727,12.8890443 33.0606061,13.0587413 32.9393939,13.3011655 L30.2,18.7799534 L29.3757576,17.955711 C29.0606061,17.6405594 28.5515152,17.6405594 28.2363636,17.955711 C27.9212121,18.2708625 27.9212121,18.7799534 28.2363636,19.0951049 L29.8606061,20.7193473 Z" id="path-4"></path>
    </defs>
    <g id="官网" stroke="none" stroke-width="1" fill="none" fill-rule="evenodd">
        <g id="Zone-Details" transform="translate(-466.000000, -834.000000)">
            <g id="Equip" transform="translate(326.000000, 742.000000)">
                <g id="floor_facility_meeting" transform="translate(140.000000, 92.000000)">
                    <g id="Fill-1">
                        <use fill="#242B3A" fill-rule="evenodd" xlink:href="#path-1"></use>
                        <path stroke="#242B3A" stroke-width="2" d="M44.5636364,27.3272727 L21.969697,27.3272727 C21.9886484,27.3272727 22,27.3386243 22,27.3575758 C22,27.3765272 21.9886484,27.3878788 21.969697,27.3878788 L44.5636364,27.3878788 C45.964406,27.3878788 47.0909091,26.2613757 47.0909091,24.8606061 L47.0909091,5.46666667 C47.0909091,4.06589707 45.964406,2.93939394 44.5636364,2.93939394 L21.969697,2.93939394 C21.9886484,2.93939394 22,2.95074555 22,2.96969697 C22,2.98864839 21.9886484,3 21.969697,3 L44.5636364,3 C45.9265031,3 47.030303,4.1037999 47.030303,5.46666667 L47.030303,24.8606061 C47.030303,26.2234728 45.9265031,27.3272727 44.5636364,27.3272727 Z"></path>
                    </g>
                    <g id="Fill-3">
                        <use fill="#242B3A" fill-rule="evenodd" xlink:href="#path-2"></use>
                        <path stroke="#242B3A" stroke-width="2" d="M8.38181818,0.915151515 C5.93862434,0.915151515 3.93939394,2.91438192 3.93939394,5.35757576 C3.93939394,7.8007696 5.93862434,9.8 8.38181818,9.8 C10.825012,9.8 12.8242424,7.8007696 12.8242424,5.35757576 C12.8242424,2.90707215 10.8419913,0.915151515 8.38181818,0.915151515 Z M8.38181818,9.76363636 C5.9613391,9.76363636 4,7.79618718 4,5.38181818 C4,2.97652717 5.97652717,1 8.38181818,1 C10.8022973,1 12.7636364,2.96744919 12.7636364,5.38181818 C12.7636364,7.79618718 10.8022973,9.76363636 8.38181818,9.76363636 Z"></path>
                    </g>
                    <g id="Fill-5">
                        <use fill="#242B3A" fill-rule="evenodd" xlink:href="#path-3"></use>
                        <path stroke="#242B3A" stroke-width="2" d="M4.12886143,29.3868268 L4.75480391,39.558392 C4.83987216,40.7922791 5.85665133,41.7575758 7.08624911,41.7575758 L10.165037,41.7575758 C11.3946348,41.7575758 12.4114139,40.7922791 12.4960006,39.5657718 L13.6614445,20.0336241 L21.8866814,18.626097 C23.1339427,18.5472718 24.1104915,17.5455646 24.1104915,16.2969697 C24.1104915,14.9986678 23.0623584,13.9636364 21.7771582,13.9636364 L5.83170365,13.9636364 L5.83170365,13.9393939 L4.83170365,13.9393939 C3.75614155,13.9393939 2.74479817,14.3679293 2.00062454,15.1444583 C1.2676809,15.909269 0.88993082,16.9394965 0.92310067,18.0009317 L1.38469745,26.4846638 C1.45524846,28.00218 2.62222943,29.2305202 4.12886143,29.3868268 Z M10.1892794,41.7212121 L7.11049153,41.7212121 C5.92137255,41.7212121 4.92012178,40.7767333 4.83529378,39.5721757 L4.25405795,30.1264565 L4.21174525,29.4388751 L3.55422107,29.2333988 C2.39082806,28.8698385 1.53908193,27.7657231 1.46643863,26.4944654 L1.00598259,18.0365483 C0.948107743,16.9755094 1.311702,15.9793607 2.04998244,15.182795 C2.76353905,14.4317929 3.7813367,14 4.83170365,14 L21.8014006,14 C23.0578006,14 24.0741279,15.0215392 24.0741279,16.2727273 C24.0741279,17.4790295 23.0938719,18.4957844 21.8809822,18.5463215 L21.7534684,18.5598633 L14.4080138,19.8204693 L13.6258701,19.9546986 L13.5789105,20.7468861 L12.463759,39.5590073 C12.379312,40.7743041 11.3809416,41.7212121 10.1892794,41.7212121 Z"></path>
                    </g>
                    <g id="Fill-7">
                        <use fill="#242B3A" fill-rule="evenodd" xlink:href="#path-4"></use>
                        <path stroke="#242B3A" stroke-width="2" d="M41.9074736,8.93632519 L41.9170795,8.92038688 C41.9142534,8.92595516 41.9110397,8.93127182 41.9074736,8.93632519 Z M41.6086831,8.71476429 C41.6088459,8.71449016 41.6090095,8.71421622 41.6091737,8.71394247 L41.6086831,8.7147643 L41.6086831,8.71476429 Z M30.4028162,19.8473439 L28.9434704,18.3879981 C29.0188432,18.4633709 29.0188432,18.587445 28.9434704,18.6628177 C28.8680976,18.7381905 28.7440236,18.7381905 28.6686508,18.6628177 L29.4928932,19.4870602 L30.4739515,20.4681184 L31.0944272,19.227167 L33.7137189,13.9885836 L33.8338211,13.7483791 C33.8050591,13.8059031 33.7766123,13.8338139 33.7152632,13.848819 C33.7110072,13.84986 33.7065928,13.8508389 33.702009,13.8517612 C33.6882591,13.8545278 33.6729846,13.8567858 33.6558861,13.8586856 L33.6892517,13.8531413 L33.7152632,13.848819 L33.762385,13.8409889 C33.7401489,13.8459303 33.7201685,13.8495198 33.702009,13.8517612 C33.6976543,13.8522986 33.6934044,13.8527586 33.6892532,13.8531411 C33.6096829,13.8604719 33.5663829,13.8393377 33.5171356,13.7900905 L33.7137189,13.9885836 L36.0106977,16.3078784 L36.9146127,17.2205693 L37.0435711,17.0065992 L37.0800588,16.9460581 L37.5776856,16.1203869 L41.9074736,8.93632519 C41.8600374,9.00354573 41.7502593,9.02417811 41.6612618,8.97077964 C41.5801608,8.92945933 41.5519226,8.81031468 41.6086831,8.71476429 L36.8932419,16.6131237 L36.8225123,16.7315957 L36.8216932,16.7329677 L36.7595602,16.8370404 L37.0435711,17.0065992 L37.6181818,17.3496503 L37.0800588,16.9460581 L36.8183935,16.7498091 C36.8213509,16.7489485 36.8472832,16.7338302 36.8833168,16.7242862 C36.8833168,16.7242862 36.8833168,16.7242862 36.8833168,16.7242862 C36.8868218,16.7233579 36.8904223,16.7224823 36.8941065,16.7216777 L36.8731353,16.7249474 L36.8216932,16.7329677 L36.7951908,16.7370997 C36.8045906,16.7350108 36.8136929,16.7331787 36.8225123,16.7315957 C36.8405246,16.7283626 36.8573571,16.7261684 36.8731353,16.7249474 C36.8748571,16.7248141 36.8765664,16.7246924 36.8782632,16.7245823 C36.8799601,16.7244721 36.8816446,16.7243735 36.8833168,16.7242862 C36.9681403,16.7198613 37.0214988,16.7448144 37.0646825,16.7879981 L36.8932419,16.6131237 L34.6474062,14.3223062 L33.6659021,13.3211721 L33.0389061,14.575164 L30.4028162,19.8473439 L30.2995122,20.0539519 C30.3220745,20.0088274 30.3866974,19.9590927 30.4746271,19.9445414 C30.4819685,19.9433265 30.4894724,19.9423568 30.4971279,19.9416556 C30.4971996,19.941649 30.4972713,19.9416425 30.497343,19.9416359 L30.4970893,19.941617 L30.4518045,19.9382306 C30.4584356,19.9391806 30.4660428,19.9411585 30.4746271,19.9445414 C30.4982489,19.9538502 30.5292699,19.9737976 30.5677128,20.0122405 L30.4971279,19.9416556 L30.4970893,19.941617 L30.4028162,19.8473439 Z"></path>
                    </g>
                </g>
            </g>
        </g>
    </g>
</svg>