<?xml version="1.0" encoding="UTF-8"?>
<svg width="47px" height="47px" viewBox="0 0 47 47" version="1.1" xmlns="http://www.w3.org/2000/svg" xmlns:xlink="http://www.w3.org/1999/xlink">
    <!-- Generator: Sketch 43.1 (39012) - http://www.bohemiancoding.com/sketch -->
    <title>index_profession</title>
    <desc>Created with Sketch.</desc>
    <defs></defs>
    <g id="官网" stroke="none" stroke-width="1" fill="none" fill-rule="evenodd">
        <g id="index" transform="translate(-410.000000, -707.000000)" fill="#FFFFFF">
            <g id="Proir" transform="translate(0.000000, 677.000000)">
                <g id="Group" transform="translate(359.230769, 0.000000)">
                    <g id="Click-Me-Copy-2" transform="translate(50.923077, 27.846774)">
                        <g id="index_profession" transform="translate(0.000000, 2.169355)">
                            <path d="M40.5591813,17.8517411 C42.9449289,17.8517411 44.8916658,19.8053702 44.8916658,22.2192742 C44.8916658,24.6243218 42.9537142,26.5865468 40.5591813,26.5865468 C38.1646484,26.5865468 36.2354822,24.6243218 36.2354822,22.2104177 C36.2354822,19.8053702 38.1734337,17.8517411 40.5591813,17.8517411 L40.5591813,17.8517411 Z M22.9798936,30.9280315 C19.370911,30.9280315 16.4337516,27.9671113 16.4337516,24.3291935 C16.4337516,20.6910153 19.370911,17.7300952 22.9798936,17.7300952 C26.5886178,17.7300952 29.5257771,20.6910153 29.5257771,24.3291935 C29.5257771,27.9671113 26.5886178,30.9280315 22.9798936,30.9280315 L22.9798936,30.9280315 Z M8.71657017,43.5440468 C6.33056422,43.5440468 4.38408568,41.5904177 4.38408568,39.1767742 C4.38408568,36.7628702 6.32203723,34.8092411 8.71657017,34.8092411 C11.1108447,34.8092411 13.0487963,36.7628702 13.0487963,39.1767742 C13.0487963,41.5904177 11.1023177,43.5440468 8.71657017,43.5440468 L8.71657017,43.5440468 Z M39.0002931,40.7657258 C39.0002931,43.1707734 37.0623415,45.1329984 34.6678086,45.1329984 C32.2732756,45.1329984 30.3353241,43.1793694 30.3353241,40.7657258 C30.3353241,38.3518218 32.2732756,36.3981927 34.6678086,36.3981927 C37.0623415,36.3981927 39.0002931,38.3604177 39.0002931,40.7657258 L39.0002931,40.7657258 Z M6.04633132,18.6331927 C3.66058377,18.6331927 1.71410523,16.6795637 1.71410523,14.2656597 C1.71410523,11.8520161 3.65205678,9.8983871 6.04633132,9.8983871 C8.44086426,9.8983871 10.3788158,11.8520161 10.3788158,14.2656597 C10.3788158,16.6795637 8.43233727,18.6331927 6.04633132,18.6331927 L6.04633132,18.6331927 Z M24.5731482,6.09532258 C24.5731482,3.69001452 26.5110997,1.72778952 28.9056326,1.72778952 C31.3001656,1.72778952 33.2293317,3.69001452 33.2293317,6.09532258 C33.2293317,8.50037016 31.2913802,10.4625952 28.8971057,10.4625952 C26.5025727,10.4625952 24.5731482,8.50896613 24.5731482,6.09532258 L24.5731482,6.09532258 Z M40.5591813,28.3145968 C43.892458,28.3145968 46.6141171,25.5795161 46.6141171,22.2104177 C46.6141171,18.8415798 43.900985,16.1150952 40.5591813,16.1150952 C37.2259046,16.1150952 34.5042455,18.8501758 34.5042455,22.2192742 L34.5042455,22.2625145 L31.9288371,22.5404508 C31.3688983,19.7011766 29.5084648,17.3307734 27.0020474,16.0890468 L28.1046127,12.1557403 C28.3630062,12.1906452 28.6299267,12.2078371 28.8971057,12.2078371 C32.2303823,12.2078371 34.9520415,9.47275645 34.9520415,6.10391855 C34.9520415,2.73508065 32.2389093,0 28.8971057,0 C25.563829,0 22.8419114,2.73508065 22.8419114,6.10391855 C22.8419114,8.58711129 24.32354,10.7319355 26.442367,11.6782734 L25.3914805,15.4552895 C24.6248269,15.2383065 23.8152799,15.1252565 22.9798936,15.1252565 C20.0427342,15.1252565 17.4329595,16.5318694 15.7619284,18.7027419 L11.7051499,16.4451282 C11.9635434,15.7678702 12.1100525,15.0299194 12.1100525,14.2656597 C12.1100525,10.9054177 9.39692036,8.16174113 6.0551167,8.16174113 C2.71305465,8.16174113 -7.75180621e-05,10.8968218 -7.75180621e-05,14.2656597 C-7.75180621e-05,17.6347581 2.71305465,20.3698387 6.0551167,20.3698387 C8.01012223,20.3698387 9.75867131,19.4232403 10.8612365,17.9645306 L14.8404971,20.1786435 C14.2115672,21.4289661 13.8586016,22.8444355 13.8586016,24.3377895 C13.8586016,26.3695637 14.5131125,28.2536435 15.6242047,29.7733065 L11.9464894,34.0277895 C11.0162727,33.4372726 9.90518045,33.0900476 8.72509715,33.0900476 C5.39182048,33.0900476 2.67016133,35.8251282 2.67016133,39.1939661 C2.67016133,42.5542081 5.3832935,45.2981452 8.72509715,45.2981452 C12.0669008,45.2981452 14.780033,42.5630645 14.780033,39.1939661 C14.780033,37.6485153 14.2030402,36.2333065 13.2642965,35.1564661 L16.7869756,31.0843218 C18.4148549,32.6125806 20.602673,33.5414661 22.9969476,33.5414661 C24.7369697,33.5414661 26.3733759,33.0465468 27.7601741,32.18695 L30.5937176,36.2765468 C29.3880534,37.3966274 28.6299267,38.9944355 28.6299267,40.7657258 C28.6299267,44.1259677 31.3430589,46.8696444 34.685121,46.8696444 C38.0183976,46.8696444 40.7400568,44.1345637 40.7400568,40.7657258 C40.7400568,37.4054839 38.0269246,34.6615468 34.685121,34.6615468 C33.7290649,34.6615468 32.8246875,34.8873863 32.0148821,35.2867081 L29.1208745,31.1364185 C30.9554686,29.4518694 32.1097125,27.0293694 32.1097125,24.3291935 L32.1097125,24.2510484 L34.771166,23.9731121 C35.5205073,26.4823532 37.8287368,28.3145968 40.5591813,28.3145968 Z" id="Fill-1"></path>
                        </g>
                    </g>
                </g>
            </g>
        </g>
    </g>
</svg>