<?xml version="1.0" encoding="UTF-8"?>
<svg width="90px" height="81px" viewBox="0 0 90 81" version="1.1" xmlns="http://www.w3.org/2000/svg" xmlns:xlink="http://www.w3.org/1999/xlink">
    <!-- Generator: Sketch 43.1 (39012) - http://www.bohemiancoding.com/sketch -->
    <title>index_system</title>
    <desc>Created with Sketch.</desc>
    <defs>
        <filter x="-6.5%" y="-5.4%" width="109.1%" height="120.6%" filterUnits="objectBoundingBox" id="filter-1">
            <feOffset dx="0" dy="2" in="SourceAlpha" result="shadowOffsetOuter1"></feOffset>
            <feGaussianBlur stdDeviation="10" in="shadowOffsetOuter1" result="shadowBlurOuter1"></feGaussianBlur>
            <feColorMatrix values="0 0 0 0 0.2   0 0 0 0 0.258823529   0 0 0 0 0.309803922  0 0 0 0.0472429801 0" type="matrix" in="shadowBlurOuter1" result="shadowMatrixOuter1"></feColorMatrix>
            <feMerge>
                <feMergeNode in="shadowMatrixOuter1"></feMergeNode>
                <feMergeNode in="SourceGraphic"></feMergeNode>
            </feMerge>
        </filter>
    </defs>
    <g id="官网" stroke="none" stroke-width="1" fill="none" fill-rule="evenodd">
        <g id="index" transform="translate(-236.000000, -1307.000000)" fill="#FFFFFF">
            <g id="B" filter="url(#filter-1)" transform="translate(135.000000, 1292.000000)">
                <g id="A">
                    <path d="M168.282609,67.7826087 C168.282609,69.2809783 167.063587,70.5 165.565217,70.5 L147.630435,70.5 L147.630435,36.8067935 C148.12663,36.1459239 148.916304,35.7173913 149.804348,35.7173913 L165.565217,35.7173913 C167.063587,35.7173913 168.282609,36.936413 168.282609,38.4347826 L168.282609,67.7826087 Z M126.434783,70.5 C124.936413,70.5 123.717391,69.2809783 123.717391,67.7826087 L123.717391,38.4347826 C123.717391,36.936413 124.936413,35.7173913 126.434783,35.7173913 L142.195652,35.7173913 C143.083696,35.7173913 143.87337,36.1459239 144.369565,36.8067935 L144.369565,70.5 L126.434783,70.5 Z M165.565217,33 L149.804348,33 C148.323098,33 146.980163,33.5929348 146,34.5540761 C145.019565,33.5929348 143.676902,33 142.195652,33 L126.434783,33 C123.433152,33 121,35.4331522 121,38.4347826 L121,67.7826087 C121,70.7842391 123.433152,73.2173913 126.434783,73.2173913 L142.331522,73.2173913 C144.505435,73.2173913 145.184783,75.9347826 145.184783,75.9347826 L146,75.9347826 L146.815217,75.9347826 C146.815217,75.9347826 147.494565,73.2173913 149.668478,73.2173913 L165.565217,73.2173913 C168.566848,73.2173913 171,70.7842391 171,67.7826087 L171,38.4347826 C171,35.4331522 168.566848,33 165.565217,33 L165.565217,33 Z" id="index_system"></path>
                </g>
            </g>
        </g>
    </g>
</svg>