<?xml version="1.0" encoding="UTF-8"?>
<svg width="87px" height="85px" viewBox="0 0 87 85" version="1.1" xmlns="http://www.w3.org/2000/svg" xmlns:xlink="http://www.w3.org/1999/xlink">
    <!-- Generator: Sketch 43.1 (39012) - http://www.bohemiancoding.com/sketch -->
    <title>index_community</title>
    <desc>Created with Sketch.</desc>
    <defs>
        <filter x="-6.5%" y="-5.4%" width="109.1%" height="120.6%" filterUnits="objectBoundingBox" id="filter-1">
            <feOffset dx="0" dy="2" in="SourceAlpha" result="shadowOffsetOuter1"></feOffset>
            <feGaussianBlur stdDeviation="10" in="shadowOffsetOuter1" result="shadowBlurOuter1"></feGaussianBlur>
            <feColorMatrix values="0 0 0 0 0.2   0 0 0 0 0.258823529   0 0 0 0 0.309803922  0 0 0 0.0472429801 0" type="matrix" in="shadowBlurOuter1" result="shadowMatrixOuter1"></feColorMatrix>
            <feMerge>
                <feMergeNode in="shadowMatrixOuter1"></feMergeNode>
                <feMergeNode in="SourceGraphic"></feMergeNode>
            </feMerge>
        </filter>
        <polygon id="path-2" points="49.8282286 47.8250414 0 47.8250414 0 0 49.8282286 0"></polygon>
    </defs>
    <g id="官网" stroke="none" stroke-width="1" fill="none" fill-rule="evenodd">
        <g id="index" transform="translate(-1116.000000, -1300.000000)">
            <g id="B" filter="url(#filter-1)" transform="translate(135.000000, 1292.000000)">
                <g id="A" transform="translate(879.000000, 0.000000)">
                    <g id="index_community" transform="translate(121.000000, 25.000000)">
                        <mask id="mask-3" fill="white">
                            <use xlink:href="#path-2"></use>
                        </mask>
                        <g id="Clip-2"></g>
                        <path d="M48.8299447,27.9623448 C48.8299447,23.7146988 46.4416287,20.0198229 42.9213126,18.1135174 C42.7591983,8.0837733 34.5428874,-0.000142011834 24.4150838,-0.000142011834 C14.2861602,-0.000142011834 6.06872932,8.08544331 5.90829496,18.1165791 C2.38769884,20.0239979 -5.71428573e-05,23.7169255 -5.71428573e-05,27.9623448 C-5.71428573e-05,33.1468611 3.56421744,37.4983255 8.40104725,38.7878442 L5.87077628,46.8670278 L8.41896662,46.8670278 L9.26089699,44.3561822 L11.5391768,36.806667 C11.4798189,36.8077804 11.4252208,36.8239237 11.3655829,36.8239237 C6.48339473,36.8239237 2.52573398,32.8896811 2.52573398,28.0361032 C2.52573398,25.1528475 3.94192415,22.6169519 6.09952823,21.0148648 C7.05681455,27.7213081 11.6410932,33.2526278 17.8185159,35.5970301 L15.0930918,44.3561822 L15.0944917,44.3561822 L14.3121993,46.8667495 L16.8377104,46.8667495 L17.6799208,44.3561822 L21.3013133,34.006633 C13.9582917,32.565701 8.41924661,26.1336944 8.41924661,18.4118908 C8.41924661,9.62963702 15.5808346,2.51042527 24.4150838,2.51042527 C33.2496129,2.51042527 40.4109209,9.62963702 40.4109209,18.4118908 C40.4109209,26.1336944 34.8721558,32.565701 27.5294142,34.006633 L31.1505268,44.3561822 L31.9918972,46.8667495 L34.5176883,46.8667495 L33.7283961,44.3561822 L33.7362358,44.3561822 L31.0102517,35.5964734 C37.1890743,33.2520711 41.7747529,27.7193598 42.7309193,21.0109681 C44.8893633,22.6130552 46.3063935,25.1506208 46.3063935,28.0361032 C46.3063935,32.8896811 42.3520926,36.8239237 37.4741043,36.8239237 C37.4139064,36.8239237 37.3587483,36.8077804 37.2991104,36.8063887 L39.5754303,44.3561822 L39.5689906,44.3561822 L40.4106409,46.8667495 L42.9621912,46.8667495 L40.4338801,38.7881225 C45.26763,37.4991605 48.8299447,33.1471395 48.8299447,27.9623448 Z M32.8338275,19.2488394 L30.3080364,19.2488394 C30.3080364,22.4841868 27.6699692,25.1072008 24.4150838,25.1072008 C21.1601983,25.1072008 18.5215711,22.4841868 18.5215711,19.2488394 L15.9955,19.2488394 C15.9955,23.8708438 19.7652874,27.6177681 24.4150838,27.6177681 C29.0648802,27.6177681 32.8341075,23.8708438 32.8341075,19.2488394 L32.8338275,19.2488394 Z" id="Fill-1" fill="#FFFFFF" mask="url(#mask-3)"></path>
                    </g>
                </g>
            </g>
        </g>
    </g>
</svg>