<?xml version="1.0" encoding="UTF-8"?>
<svg width="88px" height="68px" viewBox="0 0 88 68" version="1.1" xmlns="http://www.w3.org/2000/svg" xmlns:xlink="http://www.w3.org/1999/xlink">
    <!-- Generator: Sketch 43.1 (39012) - http://www.bohemiancoding.com/sketch -->
    <title>index_floor</title>
    <desc>Created with Sketch.</desc>
    <defs></defs>
    <g id="官网" stroke="none" stroke-width="1" fill="none" fill-rule="evenodd">
        <g id="index" transform="translate(-675.000000, -987.000000)">
            <g id="Service" transform="translate(131.000000, 940.000000)">
                <g id="Group-3">
                    <g id="floor" transform="translate(392.768006, 0.000000)">
                        <g id="index_floor" transform="translate(151.000000, 47.000000)">
                            <g id="Group-125">
                                <g id="mac" transform="translate(0.862419, 0.848238)">
                                    <polygon id="Fill-1" stroke="#33424F" stroke-width="2" points="37.436608 53.1853447 35.0096925 65.9353752 51.7216626 65.9353752 49.294029 53.1853447"></polygon>
                                    <polygon id="Fill-2" fill="#33424F" opacity="0.202955163" points="50.0842126 54.8256019 49.29367 53.6766151 37.436967 53.6766151 36.6464244 54.8256019"></polygon>
                                    <path d="M83.0094145,0.715879606 L3.721079,0.715879606 C1.89084004,0.715879606 0.407405879,2.19417099 0.407405879,4.01894811 L0.407405879,49.8509922 C0.407405879,51.6757693 1.89084004,53.1547766 3.721079,53.1547766 L83.0094145,53.1547766 C84.8396534,53.1547766 86.3230876,51.6757693 86.3230876,49.8509922 L86.3230876,4.01894811 C86.3230876,2.19417099 84.8396534,0.715879606 83.0094145,0.715879606" id="Fill-4" stroke="#33424F" stroke-width="2"></path>
                                    <polygon id="Fill-6" stroke="#33424F" stroke-width="2" fill="#EFEFEF" points="5.97677245 45.0596338 80.6434391 45.0596338 80.6434391 5.93045219 5.97677245 5.93045219"></polygon>
                                    <path d="M0.407405879,48.4875279 L0.407405879,49.8505627 C0.407405879,51.6753398 1.89084004,53.1550629 3.721079,53.1550629 L83.0094145,53.1550629 C84.8396534,53.1550629 86.3230876,51.6753398 86.3230876,49.8505627 L86.3230876,48.4875279 L0.407405879,48.4875279 Z" id="Fill-10" stroke="#33424F" stroke-width="2"></path>
                                    <polygon id="Fill-11" fill="#576D81" points="35.1936498 64.7871043 35.0091181 65.9360911 51.7218062 65.9360911 51.5372744 64.7871043"></polygon>
                                    <polygon id="Fill-12" fill="#33424F" points="30.236639 66.7939335 56.4947161 66.7939335 56.4947161 65.346779 30.236639 65.346779"></polygon>
                                    <path d="M45.2347615,50.8414117 C45.2347615,51.6632414 44.5670007,52.3282936 43.7434291,52.3282936 C42.9191394,52.3282936 42.2520967,51.6632414 42.2520967,50.8414117 C42.2520967,50.0210136 42.9191394,49.3545297 43.7434291,49.3545297 C44.5670007,49.3545297 45.2347615,50.0210136 45.2347615,50.8414117" id="Fill-59" fill="#33424F"></path>
                                </g>
                                <path d="M35.6954619,26.6529153 L33.9188294,28.6441577 C33.6992091,28.8900391 33.7205034,29.2675267 33.9662905,29.4872313 C34.2106338,29.7069359 34.5867133,29.6868971 34.8063336,29.4424599 C34.8068749,29.4415573 34.8075968,29.4408352 34.8083186,29.4401131 L36.5849511,27.4490512 C36.8042105,27.2029892 36.7829161,26.8256822 36.53749,26.605797 C36.2926053,26.3860924 35.9161649,26.4066728 35.6965446,26.6516516 C35.6961837,26.6520126 35.6958228,26.6525542 35.6954619,26.6529153 L35.6954619,26.6529153 Z M41.6192544,26.6803558 L45.6776279,29.2426136 C45.9553565,29.41863 46.3231347,29.3359474 46.4990836,29.0581122 C46.4994445,29.0573901 46.4999859,29.0568485 46.5003468,29.0561264 C46.6759348,28.7770275 46.5925621,28.4083859 46.3139312,28.232189 L42.2553772,25.6701117 C41.9769269,25.4944563 41.6087877,25.5776805 41.4331997,25.8562378 C41.4330193,25.8564183 41.4330193,25.8565989 41.4328388,25.8567794 C41.2572509,26.1356978 41.3406236,26.5043394 41.6192544,26.6803558 Z M53.9943251,20.9044891 C53.6949413,20.766745 53.3406976,20.8978095 53.2030063,21.1973083 L50.4928523,27.0925051 C50.3553415,27.3920038 50.4859948,27.7463836 50.7850177,27.8848498 C51.0844015,28.0220524 51.4384647,27.8909879 51.5763365,27.5918502 L54.2864905,21.6968339 C54.4243622,21.3973352 54.2935284,21.0427749 53.9943251,20.9044891 L53.9943251,20.9044891 Z M30.0934302,31.9575995 C30.0934302,31.036176 30.8419799,30.2869778 31.7617865,30.2869778 C32.6817735,30.2869778 33.4303232,31.036176 33.4303232,31.9575995 C33.4303232,32.879023 32.6817735,33.6285822 31.7617865,33.6285822 C30.8421603,33.6284017 30.0934302,32.8788424 30.0934302,31.9575995 L30.0934302,31.9575995 Z M34.6231663,31.9575995 C34.6231663,30.3776037 33.3395516,29.0924129 31.7619669,29.0924129 C30.1845627,29.0924129 28.900948,30.3776037 28.900948,31.9575995 C28.900948,33.5375953 30.1843823,34.8231471 31.7617865,34.8231471 C33.3395516,34.8231471 34.6231663,33.5375953 34.6231663,31.9575995 L34.6231663,31.9575995 Z M37.0368239,24.1343457 C37.0368239,23.2129222 37.7853736,22.4635435 38.7053606,22.4635435 C39.6253476,22.4635435 40.3740778,23.2131027 40.3740778,24.1343457 C40.3740778,25.0555887 39.6255281,25.8053284 38.7053606,25.8053284 C37.7851931,25.8053284 37.0368239,25.0555887 37.0368239,24.1343457 L37.0368239,24.1343457 Z M41.5667404,24.1343457 C41.5667404,22.5545304 40.2831257,21.2689786 38.7053606,21.2689786 C37.1277759,21.2689786 35.8441612,22.5543499 35.8441612,24.1343457 C35.8441612,25.7143415 37.1277759,26.9997128 38.7053606,26.9997128 C40.2831257,26.9997128 41.5667404,25.7143415 41.5667404,24.1343457 L41.5667404,24.1343457 Z M49.3072276,29.157223 C50.2275756,29.157223 50.9757643,29.9071433 50.9757643,30.8285668 C50.9757643,31.7499903 50.2275756,32.4991885 49.3072276,32.4991885 C48.3872406,32.4991885 47.6386909,31.7499903 47.6386909,30.8285668 C47.6386909,29.9071433 48.387421,29.157223 49.3072276,29.157223 L49.3072276,29.157223 Z M49.3072276,33.6937534 C50.8851732,33.6937534 52.1687879,32.4082016 52.1687879,30.8285668 C52.1687879,29.2485711 50.8851732,27.9631997 49.3072276,27.9631997 C47.7296429,27.9631997 46.4460282,29.2485711 46.4460282,30.8285668 C46.4460282,32.4082016 47.7296429,33.6937534 49.3072276,33.6937534 L49.3072276,33.6937534 Z M55.3400182,19.6470999 C54.4203921,19.6470999 53.6718424,18.8977212 53.6718424,17.9762977 C53.6718424,17.0548742 54.4203921,16.305315 55.3400182,16.305315 C56.2607271,16.305315 57.0092767,17.0548742 57.0092767,17.9762977 C57.0092767,18.8977212 56.2607271,19.6470999 55.3400182,19.6470999 L55.3400182,19.6470999 Z M55.3400182,15.1111111 C53.7627945,15.1111111 52.4789993,16.3964824 52.4789993,17.9764782 C52.4789993,19.556474 53.762614,20.8418453 55.3400182,20.8418453 C56.9183247,20.8418453 58.2015785,19.556474 58.2015785,17.9764782 C58.2015785,16.3964824 56.9183247,15.1111111 55.3400182,15.1111111 L55.3400182,15.1111111 Z" id="Page-1" fill="#33424F"></path>
                            </g>
                        </g>
                    </g>
                </g>
            </g>
        </g>
    </g>
</svg>