<?xml version="1.0" encoding="UTF-8"?>
<svg width="36px" height="51px" viewBox="0 0 36 51" version="1.1" xmlns="http://www.w3.org/2000/svg" xmlns:xlink="http://www.w3.org/1999/xlink">
    <!-- Generator: Sketch 43.1 (39012) - http://www.bohemiancoding.com/sketch -->
    <title>pay_alipay</title>
    <desc>Created with Sketch.</desc>
    <defs></defs>
    <g id="官网" stroke="none" stroke-width="1" fill="none" fill-rule="evenodd">
        <g id="pay" transform="translate(-543.000000, -229.000000)" fill="#7C8CA5">
            <g id="Selector" transform="translate(521.000000, 214.000000)">
                <g id="pay_alipay" transform="translate(21.000000, 14.000000)">
                    <g id="Group-3" transform="translate(0.815534, 0.324900)">
                        <path d="M27.4655456,35.0131556 L27.4655456,36.2463963 L25.255565,36.2463963 L25.255565,34.1768037 L29.4011573,34.1768037 L29.4011573,33.0269519 L31.7142447,33.0269519 L31.7142447,34.1768037 L35.2911767,34.1768037 C35.6078369,34.1824333 35.8636816,34.4480815 35.8636816,34.7763593 C35.8636816,34.7805815 35.8636816,34.781637 35.8640311,34.7851556 L35.8640311,36.2463963 L33.6544,36.2463963 L33.6544,35.0131556 L27.4655456,35.0131556 Z M14.0762718,33.1334222 L16.192932,33.1334222 L14.7609709,36.432737 L15.449165,36.432737 L15.449165,44.9486074 L13.5481553,44.9486074 L13.5481553,38.5283667 L11.8100194,38.5283667 L14.0762718,33.1334222 Z M36.1179883,44.65365 L36.1179883,44.6543537 L36.1092505,44.6543537 L36.1179883,44.6828537 L25.2554252,44.6828537 L25.2554252,43.84615 L29.5037748,43.84615 L29.5037748,40.333613 L25.2554252,40.333613 L25.2554252,39.4969093 L29.5037748,39.4969093 L29.5037748,37.8439093 L25.2554252,37.8439093 L25.2554252,37.0075574 L35.8593476,37.0075574 L35.8593476,37.8439093 L31.6109981,37.8439093 L31.6109981,39.4969093 L35.8593476,39.4969093 L35.8593476,40.333613 L31.6109981,40.333613 L31.6109981,43.84615 L33.7741437,43.84615 L33.241134,42.0327056 L35.0809786,42.0327056 C35.2417553,42.0330574 35.3777165,42.1421315 35.4235029,42.2927241 L36.1179883,44.65365 Z M18.937565,37.555813 L20.1297592,41.3681278 L18.1826136,41.3681278 L16.9009437,37.303887 L18.5464583,37.303887 C18.7173709,37.3052944 18.8652155,37.4076833 18.937565,37.555813 Z M23.1036039,33.231413 L23.1036039,35.30945 L23.9057398,35.30945 L23.9057398,36.1458019 L23.1036039,36.1458019 L23.1036039,44.02095 C23.094866,44.4400056 22.770167,44.778487 22.3654291,44.7957278 L19.805235,44.7957278 L19.805235,43.9298204 L20.8090408,43.9298204 C20.9771573,43.9210241 21.1110214,43.7873204 21.1277981,43.6166722 L21.1277981,36.1458019 L16.2587107,36.1458019 L16.2587107,35.30945 L21.1277981,35.30945 L21.1277981,33.231413 L23.1036039,33.231413 Z M10.776365,37.0171981 C10.2052583,39.2183833 8.78063689,40.8643463 7.15434563,42.0761241 C8.27698641,42.7777167 9.70615146,43.5042907 11.5096466,44.1654204 L11.5096466,45.1319574 C11.5096466,45.1319574 8.69116117,44.5679389 5.88525825,42.919513 C3.08354951,44.5813093 0.184326214,45.1319574 0.184326214,45.1319574 L0.184326214,44.1105315 C2.06366602,43.5458093 3.51694757,42.8389389 4.63749126,42.1060315 C3.41768544,41.2221796 2.28455922,40.1082167 1.4873165,38.7173463 L3.45787961,38.7173463 C3.45787961,38.7173463 4.06149126,39.813013 5.86673398,41.1887537 C7.88168544,39.4692537 8.28852039,37.8693833 8.28852039,37.8693833 L0.942772816,37.8693833 L0.942772816,37.0171981 L4.63050097,37.0171981 L4.63050097,35.6481426 L0.261219417,35.6481426 L0.261219417,34.7956056 L4.63050097,34.7956056 L4.63050097,33.4659574 C4.63050097,33.2421796 4.80455922,33.0613278 5.01916117,33.0613278 L6.98133592,33.0606241 L6.98133592,34.7956056 L11.3813748,34.7956056 L11.3813748,35.6481426 L6.98133592,35.6481426 L6.98133592,37.0171981 L10.776365,37.0171981 Z M4.54791068,50.651 L2.7388233,50.651 L2.39629903,51.6481481 L1.4763767,51.6481481 L3.28092039,46.696537 L3.98414369,46.696537 L5.79567767,51.6481481 L4.87610485,51.6481481 L4.54791068,50.651 Z M3.65822136,47.9727037 L2.95325049,50.0261111 L4.33872621,50.0261111 L3.65822136,47.9727037 Z M8.69801165,46.6965722 L9.58263301,46.6965722 L9.58263301,50.9740352 L11.6758757,50.9740352 L11.6758757,51.6481833 L8.69801165,51.6481833 L8.69801165,46.6965722 Z M14.9213981,51.6477963 L14.9213981,46.696537 L15.8067184,46.696537 L15.8067184,51.6477963 L14.9213981,51.6477963 Z M21.3047573,46.6965722 C22.2585825,46.6965722 22.9251068,47.3235722 22.9251068,48.2207944 C22.9251068,49.1180167 22.2585825,49.7450167 21.3047573,49.7450167 L20.2778835,49.7450167 L20.2778835,51.6481833 L19.3932621,51.6481833 L19.3932621,46.6965722 L21.3047573,46.6965722 Z M21.2553709,49.0645 C21.7646136,49.0645 22.039332,48.6296111 22.039332,48.2207593 C22.039332,47.8024074 21.7460893,47.3703333 21.2553709,47.3703333 L20.2777786,47.3703333 L20.2777786,49.0645 L21.2553709,49.0645 Z M28.120501,50.651 L26.3110641,50.651 L25.9695883,51.6481481 L25.0486175,51.6481481 L26.8535107,46.696537 L27.5563845,46.696537 L29.368268,51.6481481 L28.4486951,51.6481481 L28.120501,50.651 Z M27.2307767,47.9727037 L26.5258058,50.0261111 L27.910932,50.0261111 L27.2307767,47.9727037 Z M34.2965631,46.6965722 L35.252835,46.6965722 L33.7684466,49.6032204 L33.7628544,49.6141278 L33.7628544,51.6481833 L32.8848738,51.6481833 L32.8848738,49.6141278 L31.3955922,46.6965722 L32.3515146,46.6965722 L33.3315534,48.8062759 L34.2965631,46.6965722 Z" id="Combined-Shape"></path>
                        <path d="M17.4369038,19.59643 C12.1219538,26.39962 5.74414884,24.27364 4.68102384,23.848255 C2.12992884,23.210515 1.27956384,18.533305 4.46839884,17.045065 C9.78334884,15.34447 14.4605588,17.257825 17.8621538,18.958555 C17.6495288,19.383805 17.4369038,19.59643 17.4369038,19.59643 M22.9644788,17.683075 C25.3030838,13.43098 26.1534488,9.39178 26.1534488,9.39178 L25.7281988,9.39178 L22.1141138,9.39178 L18.2872688,9.39178 L18.2872688,6.415165 L27.6416888,6.415165 L27.6416888,5.139685 L18.2872688,5.139685 L18.2872688,0.6751 L14.0353088,0.6751 L14.0353088,5.139685 L5.53138884,5.139685 L5.53138884,6.415165 L14.0353088,6.415165 L14.0353088,9.39178 L6.80700384,9.39178 L6.80700384,10.66726 L21.4763738,10.66726 C21.4763738,10.88002 21.4763738,10.88002 21.2636138,11.092375 C21.2636138,12.580615 20.2007588,14.70673 19.3503938,16.40746 C8.50773384,12.1555 5.31876384,14.70673 4.46839884,15.131845 C-2.75990616,20.23417 4.04328384,26.612245 5.10627384,26.39962 C12.7599638,28.10035 17.6495288,24.91138 21.0512588,20.87191 C21.2636138,21.08467 21.4763738,21.08467 21.6889988,21.08467 C24.0276038,22.36015 35.2952438,27.6751 35.2952438,27.6751 L35.2952438,21.297295 C33.5943788,21.297295 27.4290638,19.17118 22.9644788,17.683075" id="Page-1"></path>
                    </g>
                </g>
            </g>
        </g>
    </g>
</svg>