<?xml version="1.0" encoding="UTF-8"?>
<svg width="57px" height="53px" viewBox="0 0 57 53" version="1.1" xmlns="http://www.w3.org/2000/svg" xmlns:xlink="http://www.w3.org/1999/xlink">
    <!-- Generator: Sketch 43.1 (39012) - http://www.bohemiancoding.com/sketch -->
    <title>pay_paypal</title>
    <desc>Created with Sketch.</desc>
    <defs></defs>
    <g id="官网" stroke="none" stroke-width="1" fill="none" fill-rule="evenodd">
        <g id="pay" transform="translate(-752.000000, -228.000000)">
            <g id="Selector" transform="translate(620.000000, 214.000000)">
                <g id="pay_paypal" transform="translate(132.000000, 14.000000)">
                    <g id="Page-1" transform="translate(14.000000, 0.000000)">
                        <g id="Group-3" transform="translate(0.000000, 0.138231)" fill="#7C8CA5">
                            <path d="M24.8414,3.74771672 C25.5664,4.10457831 26.1979361,4.6128945 26.6612373,5.23704966 C27.6351831,6.55077285 27.9089361,8.34001763 27.4746349,10.5562974 C27.0354422,12.7984954 26.0522373,14.6912371 24.6207554,16.0619101 C24.3587072,16.3374904 24.0777916,16.5942051 23.7801048,16.8301146 C22.2469482,18.0445724 20.310412,18.6867117 18.1804843,18.6867117 L11.4084602,18.6867117 L9.5870506,27.2760741 L5.85164096,27.2760741 L6.1358759,25.9623509 L7.43685783,25.9623509 L9.25826747,17.3728122 L14.5691108,17.3728122 C19.6535446,17.3728122 23.9043157,14.221005 25.0419542,8.86296797 C26.3319301,2.79596826 22.0065627,0.0380487805 18.2884482,0.0380487805 L5.61527349,0.0380487805 L-6.98795175e-05,25.9623509 L4.28826145,25.9623509 L3.61060482,29.0919424 L11.0480566,29.0919424 L12.869641,20.5024038 L18.1804843,20.5024038 C23.2649181,20.5024038 27.5156892,17.3507728 28.653153,11.9925595 C29.6040386,7.5189186 27.5022373,4.84474875 24.8414,3.74824567 L24.8414,3.74771672 Z" id="Fill-1"></path>
                        </g>
                        <path d="M11.9134795,5.4554687 L15.5559494,5.4554687 C17.3780578,5.4554687 18.5911663,7.03137232 18.0602566,9.00063473 C17.6049916,10.970955 15.7077627,12.5463297 13.8112325,12.5463297 L10.3202265,12.5463297 L11.9134795,5.45493976 L11.9134795,5.4554687" id="Fill-4" fill="#FFFFFF"></path>
                    </g>
                    <g id="Page-1" transform="translate(0.000000, 37.000000)" fill="#7C8CA5">
                        <path d="M8.47738818,0.0368280702 L2.60259754,0.0368280702 L-2.80788172e-05,11.9194947 L3.44748916,11.9194947 L4.29139803,7.98279298 L6.75362956,7.98279298 C9.11070591,7.98279298 11.0807158,6.5381614 11.6078956,4.0821614 C12.2056936,1.30110877 10.2010064,0.0368280702 8.47738818,0.0368280702 Z M8.37195222,4.0821614 C8.1609399,4.98489825 7.28151133,5.70742456 6.40208276,5.70742456 L4.78390049,5.70742456 L5.52265419,2.45689825 L7.2108931,2.45689825 C8.05522315,2.45689825 8.61806305,3.17900351 8.37181182,4.0821614 L8.37195222,4.0821614 Z M21.7210433,2.62714386 L24.8674153,2.62714386 L25.3752207,8.16202105 L28.4543438,2.62714386 L31.7016591,2.62714386 L24.2248315,15.8717754 L20.7059941,15.8717754 L23.006632,11.9778807 L21.7210433,2.62714386 Z M16.304499,2.45689825 C14.817164,2.45689825 13.6410828,2.85409123 12.7766764,3.03458246 L12.5003808,5.31023158 C12.9153857,5.09324912 14.3330852,4.69619649 15.5086049,4.65984561 C16.684967,4.62321404 17.3762675,4.87654737 17.1684842,5.88777544 C13.6761813,5.88777544 11.3248611,6.6101614 10.8405015,8.88552982 C10.1483586,12.7868632 14.4020187,12.6785123 16.0616172,10.9806877 L15.8546764,11.9194947 L19.0017502,11.9194947 L20.3499547,5.70742456 C20.9038094,3.07023158 18.4822921,2.42082807 16.304499,2.45689825 L16.304499,2.45689825 Z M16.5459768,8.81310877 C16.3732921,9.64384561 15.6811493,10.0058105 14.8862379,10.0421614 C14.194797,10.0775298 13.6066862,9.46349474 14.0560877,8.74110877 C14.4017379,8.12749474 15.3701764,7.98279298 15.9234695,7.98279298 L16.7189424,7.98279298 C16.6497281,8.27135439 16.5805138,8.52524912 16.5459768,8.81310877 L16.5459768,8.81310877 Z M39.0416025,0.0368280702 L33.1822552,0.0368280702 L30.5855261,11.9194947 L33.9891,11.9194947 L34.8667034,7.98279298 L37.2872379,7.98279298 C39.6728143,7.98279298 41.63777,6.5381614 42.1643882,4.0821614 C42.7603611,1.30110877 40.7259103,0.0368280702 39.0416025,0.0368280702 Z M38.9370089,4.0821614 C38.7257158,4.98489825 37.8137158,5.70742456 36.9362527,5.70742456 L35.3573808,5.70742456 L36.0593512,2.45689825 L37.7436591,2.45689825 C38.6204202,2.45689825 39.146898,3.17900351 38.9370089,4.0821614 L38.9370089,4.0821614 Z M53.7452158,5.61403508e-05 L51.1383783,11.9194947 L54.3392232,11.9194947 L56.9776493,5.61403508e-05 L53.7452158,5.61403508e-05 Z M46.9891714,2.45689825 C45.4834448,2.45689825 44.2943069,2.85409123 43.3835704,3.03458246 L43.1036246,5.31023158 C43.5583611,5.09324912 44.9931887,4.69619649 46.1838709,4.65984561 C47.3745532,4.62321404 48.0742773,4.87654737 47.8295704,5.88777544 C44.2941665,5.88777544 41.912802,6.6101614 41.4228266,8.88552982 C40.7221197,12.7868632 45.0291296,12.6785123 46.7441837,10.9806877 L46.5342946,11.9194947 L49.6848783,11.9194947 L51.0502108,5.70742456 C51.6098217,3.07023158 49.1940606,2.42082807 46.9891714,2.45689825 L46.9891714,2.45689825 Z M47.1990606,8.81310877 C47.02427,9.64384561 46.3595039,10.0058105 45.5542034,10.0421614 C44.8544793,10.0775298 44.2232675,9.46349474 44.6788463,8.74110877 C45.02927,8.12749474 46.0092207,7.98279298 46.604632,7.98279298 L47.3745532,7.98279298 C47.3036542,8.27135439 47.2685557,8.52524912 47.1990606,8.81310877 Z" id="Fill-1"></path>
                    </g>
                </g>
            </g>
        </g>
    </g>
</svg>