<?xml version="1.0" encoding="UTF-8"?>
<svg width="35px" height="31px" viewBox="0 0 35 31" version="1.1" xmlns="http://www.w3.org/2000/svg" xmlns:xlink="http://www.w3.org/1999/xlink">
    <!-- Generator: Sketch 43.1 (39012) - http://www.bohemiancoding.com/sketch -->
    <title>talent_cultivation</title>
    <desc>Created with Sketch.</desc>
    <defs></defs>
    <g id="官网" stroke="none" stroke-width="1" fill="none" fill-rule="evenodd">
        <g id="Talent-Program" transform="translate(-956.000000, -1481.000000)" fill="#FFFFFF">
            <g id="Featues" transform="translate(136.000000, 1108.000000)">
                <g id="Group-14" transform="translate(807.000000, 184.000000)">
                    <path d="M48,188.999965 L47.613425,192.173302 C46.990775,197.433205 42.7178,201.475959 37.349675,201.475959 L33.9356,201.475959 L33.9356,199.693725 L37.650325,199.693725 C40.785275,199.737125 46.04595,195.803136 46.04595,190.977942 L39.797575,190.977942 C35.54595,190.977942 31.40195,194.433822 31.40195,199.302593 L31.380425,219.951073 L29.405025,219.951073 L29.405025,206.540473 C29.405025,201.671702 25.432525,197.824513 21.181075,197.824513 L14.7178,197.628947 C14.7178,202.454142 20.1932,206.779616 23.328325,206.757827 L26.849675,206.562262 L26.849675,208.540062 L23.47865,208.540062 C19.0123,208.496662 13.7945,204.692873 13.1932,199.43297 L13,195.672759 L20.966175,195.868325 C23.950975,195.97709 27.9877,198.302622 29.6411,200.671907 C29.6411,199.259016 29.6411,198.65053 29.662625,198.150633 C30.26375,192.847153 34.472325,189.239107 39.861975,189.239107 L48,188.999965 Z" id="talent_cultivation"></path>
                </g>
            </g>
        </g>
    </g>
</svg>