<?xml version="1.0" encoding="UTF-8"?>
<svg width="42px" height="38px" viewBox="0 0 42 38" version="1.1" xmlns="http://www.w3.org/2000/svg" xmlns:xlink="http://www.w3.org/1999/xlink">
    <!-- Generator: Sketch 43.1 (39012) - http://www.bohemiancoding.com/sketch -->
    <title>talent_experience</title>
    <desc>Created with Sketch.</desc>
    <defs>
        <linearGradient x1="50%" y1="0%" x2="50%" y2="100%" id="linearGradient-1">
            <stop stop-color="#6B757E" offset="3.31034758%"></stop>
            <stop stop-color="#41505D" offset="98.6168686%"></stop>
        </linearGradient>
        <linearGradient x1="50%" y1="0%" x2="50%" y2="100%" id="linearGradient-2">
            <stop stop-color="#D5E0E3" offset="0%"></stop>
            <stop stop-color="#A4B3B7" offset="100%"></stop>
        </linearGradient>
    </defs>
    <g id="官网" stroke="none" stroke-width="1" fill="none" fill-rule="evenodd">
        <g id="Talent-Program" transform="translate(-575.000000, -718.000000)">
            <g id="youshi-" transform="translate(135.000000, 691.000000)">
                <g id="Group-10" transform="translate(226.000000, 22.000000)">
                    <g id="talent_experience" transform="translate(214.000000, 5.000000)">
                        <path d="M21.457149,28.0594391 L40.4393497,28.0594391 C40.89468,28.0594391 41.2637842,27.6903349 41.2637842,27.2347696 L41.2637842,0.824434569 C41.2637842,0.375447832 40.89468,0 40.4393497,0 L0.824434569,0 C0.36910422,0 0,0.36910422 0,0.824434569 L0,27.2347696 C0,27.6837563 0.36910422,28.0594391 0.824434569,28.0594391 L19.8066352,28.0594391 L19.8066352,28.0617886 L19.8066352,35.4868685 L10.3208212,35.4868685 C9.62607829,35.4868685 9.0781782,36.0413472 9.0781782,36.7248126 C9.0781782,37.412977 9.63430149,37.9625217 10.3208212,37.9625217 L30.9431979,37.9625217 C31.6379409,37.9625217 32.185841,37.408278 32.185841,36.7248126 C32.185841,36.0366482 31.6297177,35.4868685 30.9431979,35.4868685 L21.457149,35.4868685 L21.457149,28.0617886 L21.457149,28.0594391 Z" id="Path" fill="url(#linearGradient-1)"></path>
                        <g id="Page-1" transform="translate(10.000000, 9.000000)" fill="url(#linearGradient-2)">
                            <path d="M13.6988756,7.71721633 C13.2834508,8.12601644 12.6170127,8.12601644 12.2015879,7.71721633 C12.1496749,7.66723046 12.1237786,7.60230905 12.0848739,7.54485541 L7.03533733,2.54542512 L1.80970592,7.71721633 C1.39416072,8.12722092 0.726277209,8.12722092 0.310611564,7.71721633 C-0.0986703438,7.3146795 -0.104210946,6.65643182 0.298325879,6.24714991 C0.302421108,6.24293424 0.306516336,6.23883901 0.310611564,6.23474378 L6.18473438,0.421808487 C6.21255784,0.388444424 6.22556622,0.347612591 6.25893028,0.316175694 C6.68423175,-0.101778461 7.36608722,-0.101778461 7.7913887,0.316175694 C7.80439707,0.329184065 7.80993767,0.347612591 7.8228256,0.362548129 L12.9799222,5.46387733 L18.0757108,0.419881321 C18.1035342,0.386637705 18.1165426,0.345805873 18.1479795,0.314368975 C18.5736423,-0.104789658 19.2568227,-0.104789658 19.6823651,0.314368975 C20.1015237,0.727384767 20.1064621,1.40201336 19.6934463,1.821172 C19.6358722,1.87946877 19.5719144,1.93102046 19.5026568,1.9746226 L13.6988756,7.71540961 L13.6988756,7.71721633 Z" id="Fill-1"></path>
                        </g>
                    </g>
                </g>
            </g>
        </g>
    </g>
</svg>