<?xml version="1.0" encoding="UTF-8"?>
<svg width="35px" height="37px" viewBox="0 0 35 37" version="1.1" xmlns="http://www.w3.org/2000/svg" xmlns:xlink="http://www.w3.org/1999/xlink">
    <!-- Generator: Sketch 43.1 (39012) - http://www.bohemiancoding.com/sketch -->
    <title>talent_mind</title>
    <desc>Created with Sketch.</desc>
    <defs></defs>
    <g id="官网" stroke="none" stroke-width="1" fill="none" fill-rule="evenodd">
        <g id="Talent-Program" transform="translate(-956.000000, -1302.000000)" stroke="#FFFFFF" stroke-width="0.5" fill="#FFFFFF">
            <g id="Featues" transform="translate(136.000000, 1108.000000)">
                <g id="Group-14" transform="translate(807.000000, 184.000000)">
                    <g id="talent_mind" transform="translate(13.000000, 11.000000)">
                        <path d="M6.50645928,5.93653556 L6.62418619,5.93653556 L7.01654224,5.81880865 L7.13426915,5.81880865 L7.5266252,5.58335484 L7.68352744,5.50500417 L7.99753283,5.23017412 L8.11525973,5.11244721 L8.38988888,4.79864273 L8.46844045,4.68091582 L8.66451803,4.28855977 L22.6332374,8.29087279 L22.6332374,8.36922346 C22.6270095,8.56630553 22.6400679,8.7633876 22.6726136,8.95785799 L22.6726136,9.15413647 L22.7903405,9.50711629 L22.8686912,9.70339476 L23.0257943,9.97802391 L23.1435212,10.1743024 L23.3395988,10.4097562 L23.496501,10.5666584 L23.7319549,10.762736 L23.9282333,10.8804629 L24.2028625,11.0375661 L24.4383163,11.1159167 L24.7521208,11.1944683 L25.0661262,11.1944683 L30.7555903,25.7518222 L30.5201365,25.8301728 L30.3632343,25.9087244 L29.9708782,26.1441782 L29.9317029,26.1441782 L29.5391459,26.497359 L29.4216199,26.6150859 L29.1861661,26.889715 L29.0684392,27.0466172 L28.911336,27.3606226 L28.8329854,27.5175249 L28.7152585,27.8707056 L28.7152585,28.0276078 C28.6849227,28.2090198 28.6718642,28.3930434 28.6760831,28.5768661 L6.3101808,31.0489303 L6.3101808,30.9703787 L6.11410322,30.5780226 L6.03555165,30.4602957 L5.7609225,30.1073159 L5.6431956,29.989589 L5.36856645,29.7541352 L5.25083954,29.6755836 L4.85848349,29.4401298 L4.70158125,29.3617791 L4.26984896,29.204676 L6.54563461,5.85798399 L6.50645928,5.93653556 Z M32.01121,25.6732706 L26.4394728,11.1944683 C27.6950925,10.8412876 28.5975316,9.70339476 28.5975316,8.33004812 C28.5790488,6.68327773 27.2292074,5.36296846 25.5822361,5.38145118 C24.4312848,5.39430873 23.3904263,6.0685263 22.9080674,7.11360372 L8.93914718,3.07211537 L8.93914718,2.99376469 C8.94557595,1.3467934 7.61582443,0.00639421951 5.96885313,-3.45535365e-05 C4.32188184,-0.00646332658 2.98148266,1.3234891 2.97505388,2.97046039 C2.96962961,4.37976798 3.95142379,5.60063216 5.32939111,5.89736022 L3.01422922,29.2832276 C1.39558471,29.5865853 0.329211978,31.1447592 0.632569706,32.7636046 C0.935927434,34.38245 2.4943022,35.4488227 4.11294671,35.1452641 C5.51924082,34.8816844 6.54000944,33.6568022 6.54563461,32.2259984 L28.8329854,29.7541352 C29.4742555,31.2711247 31.2238862,31.9809015 32.7408758,31.3396314 C33.8367807,30.8763579 34.5523835,29.8059672 34.5616249,28.6162424 C34.5616249,27.1251688 33.4631083,25.8695491 32.01121,25.6732706 L32.01121,25.6732706 Z" id="Fill-1"></path>
                    </g>
                </g>
            </g>
        </g>
    </g>
</svg>