<?xml version="1.0" encoding="UTF-8"?>
<svg width="33px" height="31px" viewBox="0 0 33 31" version="1.1" xmlns="http://www.w3.org/2000/svg" xmlns:xlink="http://www.w3.org/1999/xlink">
    <!-- Generator: Sketch 43.1 (39012) - http://www.bohemiancoding.com/sketch -->
    <title>talent_pleasure</title>
    <desc>Created with Sketch.</desc>
    <defs></defs>
    <g id="官网" stroke="none" stroke-width="1" fill="none" fill-rule="evenodd">
        <g id="Talent-Program" transform="translate(-453.000000, -1655.000000)" fill="#FFFFFF">
            <g id="Featues" transform="translate(136.000000, 1108.000000)">
                <g id="Group-14-Copy" transform="translate(301.000000, 184.000000)">
                    <g id="talent_pleasure" transform="translate(16.000000, 363.000000)">
                        <path d="M28.5909701,12.7116566 C27.3620896,12.7116566 26.362403,13.7103815 26.362403,14.9380799 C26.362403,16.1657783 27.3620896,17.1645032 28.5909701,17.1645032 C29.8198507,17.1645032 30.8195373,16.1657783 30.8195373,14.9380799 C30.8195373,13.7103815 29.8198507,12.7116566 28.5909701,12.7116566 L28.5909701,12.7116566 Z M28.5909701,19.2147677 C26.2305672,19.2147677 24.3101642,17.2963762 24.3101642,14.9380799 C24.3101642,12.5799476 26.2305672,10.6613921 28.5909701,10.6613921 C30.9513731,10.6613921 32.8717761,12.5799476 32.8717761,14.9380799 C32.8717761,17.2963762 30.9513731,19.2147677 28.5909701,19.2147677 L28.5909701,19.2147677 Z M21.634209,8.94753492 C20.9487612,8.94753492 19.9392239,8.86896878 19.2104328,8.16794233 C18.882403,7.85236561 18.4880448,7.27779947 18.4711343,6.33287354 C18.4591493,5.66694762 18.6753731,5.09664603 19.1135672,4.63755079 C19.4447164,4.29081005 19.8435075,4.06970952 20.1951791,3.87468836 C20.8850597,3.49219101 21.0484179,3.35670952 21.0694328,2.90351905 C21.0810896,2.64830212 21.0062239,2.53807989 20.9313582,2.46377831 C20.5929851,2.12868307 19.6993582,2.03010635 19.2961343,2.05224921 L19.1848209,0.0051010582 C19.3962836,-0.00638042328 21.2823731,-0.0759253968 22.3764627,1.0082545 C22.8987164,1.52574127 23.1556567,2.21381005 23.1193731,2.99799524 C23.0858806,3.72378889 22.8323881,4.34050847 22.3662836,4.83125979 C21.9958955,5.22097407 21.5683731,5.45814868 21.1912537,5.66727566 C20.5184478,6.04042381 20.5194328,6.09963545 20.5228806,6.2961328 C20.5264925,6.4906619 20.5637612,6.62351905 20.6338657,6.69093175 C20.8660149,6.91432857 21.5870896,6.90005873 21.8950896,6.89382593 C21.9696269,6.89234974 22.0374328,6.89120159 22.0967015,6.89120159 L22.0967015,8.94146614 C22.0494179,8.94146614 21.995403,8.94261429 21.935806,8.94376243 C21.8451791,8.94556667 21.7438806,8.94753492 21.634209,8.94753492 L21.634209,8.94753492 Z M13.2239701,8.94753492 C12.5383582,8.94753492 11.5289851,8.86896878 10.800194,8.16794233 C10.4721642,7.85236561 10.0776418,7.27779947 10.0607313,6.33287354 C10.0489104,5.66694762 10.2651343,5.09664603 10.7033284,4.63771481 C11.0344776,4.29081005 11.4332687,4.06970952 11.7849403,3.87468836 C12.4748209,3.49219101 12.6381791,3.35670952 12.6590299,2.90351905 C12.6708507,2.64830212 12.5958209,2.53807989 12.5209552,2.46394233 C12.1827463,2.12868307 11.2892836,2.03027037 10.8858955,2.05224921 L10.7745821,0.0051010582 C10.9858806,-0.00638042328 12.8722985,-0.0757613757 13.9662239,1.0082545 C14.4884776,1.52574127 14.7454179,2.21381005 14.7091343,2.99815926 C14.6756418,3.72378889 14.4221493,4.34050847 13.9558806,4.83125979 C13.5856567,5.2211381 13.1581343,5.45814868 12.7808507,5.66727566 C12.1080448,6.04042381 12.109194,6.09963545 12.1126418,6.29629683 C12.1160896,6.4906619 12.1535224,6.62351905 12.2236269,6.69109577 C12.4557761,6.91432857 13.1768507,6.90005873 13.4846866,6.89382593 C13.5593881,6.89234974 13.627194,6.89120159 13.6864627,6.89120159 L13.6864627,8.94146614 C13.6391791,8.94146614 13.585,8.94261429 13.5255672,8.94376243 C13.4351045,8.94556667 13.3336418,8.94753492 13.2239701,8.94753492 L13.2239701,8.94753492 Z M5.28098507,8.94753492 C4.59537313,8.94753492 3.58583582,8.86896878 2.85720896,8.16794233 C2.5291791,7.85236561 2.13465672,7.27779947 2.11774627,6.33287354 C2.10592537,5.66694762 2.32198507,5.09664603 2.76034328,4.63771481 C3.09149254,4.29081005 3.4901194,4.06970952 3.84195522,3.87468836 C4.53167164,3.49219101 4.69519403,3.35670952 4.71604478,2.90351905 C4.72786567,2.64830212 4.65283582,2.53807989 4.57797015,2.46394233 C4.23976119,2.12868307 3.34629851,2.03027037 2.94291045,2.05224921 L2.83143284,0.0051010582 C3.04289552,-0.00638042328 4.92914925,-0.0757613757 6.02323881,1.0082545 C6.54549254,1.52574127 6.80226866,2.21381005 6.76614925,2.99815926 C6.73249254,3.72378889 6.47916418,4.34050847 6.01289552,4.83125979 C5.64250746,5.2211381 5.21514925,5.45814868 4.83786567,5.66727566 C4.1650597,6.04042381 4.16604478,6.09963545 4.16965672,6.29629683 C4.17310448,6.4906619 4.21053731,6.62351905 4.28064179,6.69109577 C4.51279104,6.91432857 5.23386567,6.90005873 5.54170149,6.89382593 C5.61640299,6.89234974 5.68420896,6.89120159 5.74331343,6.89120159 L5.74331343,8.94146614 C5.69619403,8.94146614 5.64201493,8.94261429 5.58241791,8.94376243 C5.49195522,8.94556667 5.39049254,8.94753492 5.28098507,8.94753492 L5.28098507,8.94753492 Z M2.05355224,12.753646 L2.05355224,18.279355 L2.0530597,18.294773 C2.05273134,18.3041222 2.0271194,19.4635878 2.38420896,20.991937 C2.70485075,22.3649582 3.41180597,24.3346884 4.95870149,25.920773 C6.84479104,27.8547466 9.57870149,28.8354291 13.0842537,28.8354291 C16.6254328,28.8354291 19.3783881,27.8531063 21.2669403,25.9160164 C22.7836269,24.3604397 23.4766269,22.4423762 23.7910299,21.1070799 C24.1408955,19.6208841 24.1157761,18.496519 24.1154478,18.4852016 L24.1149552,18.4694556 L24.1151194,18.4558418 L24.1151194,12.753646 L2.05355224,12.753646 Z M13.0842537,30.8856937 C8.99422388,30.8856937 5.76038806,29.6909635 3.47255224,27.3349635 C-0.0515522388,23.7055032 -0.00804477612,18.6484026 0.00131343284,18.2504873 L0.00131343284,10.7033815 L26.1673582,10.7033815 L26.1673582,18.4425561 C26.1765522,18.837355 26.217597,23.7604503 22.7540746,27.3292228 C20.4637761,29.6891593 17.210403,30.8856937 13.0842537,30.8856937 L13.0842537,30.8856937 Z" id="Fill-1"></path>
                    </g>
                </g>
            </g>
        </g>
    </g>
</svg>