<?xml version="1.0" encoding="UTF-8"?>
<svg width="45px" height="41px" viewBox="0 0 45 41" version="1.1" xmlns="http://www.w3.org/2000/svg" xmlns:xlink="http://www.w3.org/1999/xlink">
    <!-- Generator: Sketch 43.1 (39012) - http://www.bohemiancoding.com/sketch -->
    <title>talent_guide</title>
    <desc>Created with Sketch.</desc>
    <defs>
        <linearGradient x1="50%" y1="0%" x2="50%" y2="100%" id="linearGradient-1">
            <stop stop-color="#D5E0E3" offset="0%"></stop>
            <stop stop-color="#A4B3B7" offset="100%"></stop>
        </linearGradient>
        <linearGradient x1="50%" y1="0%" x2="50%" y2="100%" id="linearGradient-2">
            <stop stop-color="#6B757E" offset="3.31034758%"></stop>
            <stop stop-color="#41505D" offset="98.6168686%"></stop>
        </linearGradient>
    </defs>
    <g id="官网" stroke="none" stroke-width="1" fill="none" fill-rule="evenodd">
        <g id="Talent-Program" transform="translate(-388.000000, -715.000000)">
            <g id="youshi-" transform="translate(135.000000, 691.000000)">
                <g id="Group-10" transform="translate(226.000000, 22.000000)">
                    <g id="talent_guide" transform="translate(27.000000, 2.000000)">
                        <polygon id="Path" fill="url(#linearGradient-1)" points="44.7499211 24.4998692 26.850851 24.4998692 26.850851 21.1590163 41.394724 21.1590163 41.394724 3.34087952 12.3072335 3.34087952 12.3072335 6.68173245 8.95101411 6.68173245 8.95101411 2.65822782e-05 44.7499211 0.145812031"></polygon>
                        <polygon id="Path" fill="#242B3A" points="27.7643479 17.8354642 32.5846161 9.4722644 33.2749785 9.87043932 28.4636561 18.2333847"></polygon>
                        <polygon id="Path" fill="#242B3A" points="17.3940874 22.9249793 21.9914767 22.9249793 21.1129963 24.3540838 19.9635851 24.3540838"></polygon>
                        <path d="M21.7422715,30.3160217 C21.4102534,30.3160217 21.0779798,30.235369 20.7699877,30.0613424 L13.4259733,26.7271045 L13.4259733,40.0912795 L0.000840079521,40.0912795 L0.000840079521,26.7271045 C0.000840079521,26.7271045 -0.23711897,21.1503658 6.94510367,20.315089 L7.51099125,20.315089 L8.07483407,20.315089 C11.1884937,20.0453986 12.991206,21.041472 15.4865811,22.5705654 L21.0322283,25.6549581 L24.9630255,19.2317479 C25.5399037,18.2964821 26.763693,17.9985506 27.7119509,18.5661724 C28.6558637,19.138374 28.9531208,20.3629209 28.3849328,21.3025119 L23.4509248,29.3611652 C23.0752,29.9743291 22.4152534,30.3160217 21.7422715,30.3160217 L21.7422715,30.3160217 Z" id="Path" fill="url(#linearGradient-2)"></path>
                        <path d="M7.51533637,4.45449716 C10.7690621,4.45449716 13.4042477,7.07990737 13.4042477,10.3228067 C13.4042477,13.5657061 10.7690621,16.1845013 7.51533637,16.1845013 C4.25317596,16.1845013 1.61134488,13.5613809 1.61134488,10.3184815 C1.61134488,7.07761755 4.25522072,4.45449716 7.51533637,4.45449716 L7.51533637,4.45449716 Z" id="Path" fill="url(#linearGradient-2)"></path>
                    </g>
                </g>
            </g>
        </g>
    </g>
</svg>