<?xml version="1.0" encoding="UTF-8"?>
<svg width="39px" height="48px" viewBox="0 0 39 48" version="1.1" xmlns="http://www.w3.org/2000/svg" xmlns:xlink="http://www.w3.org/1999/xlink">
    <!-- Generator: Sketch 43.1 (39012) - http://www.bohemiancoding.com/sketch -->
    <title>talent_logic</title>
    <desc>Created with Sketch.</desc>
    <defs>
        <linearGradient x1="50%" y1="0%" x2="50%" y2="100%" id="linearGradient-1">
            <stop stop-color="#6B757E" offset="3.31034758%"></stop>
            <stop stop-color="#41505D" offset="98.6168686%"></stop>
        </linearGradient>
        <linearGradient x1="50%" y1="0%" x2="50%" y2="100%" id="linearGradient-2">
            <stop stop-color="#D5E0E3" offset="0%"></stop>
            <stop stop-color="#A4B3B7" offset="100%"></stop>
        </linearGradient>
    </defs>
    <g id="官网" stroke="none" stroke-width="1" fill="none" fill-rule="evenodd">
        <g id="Talent-Program" transform="translate(-968.000000, -713.000000)">
            <g id="youshi-" transform="translate(135.000000, 691.000000)">
                <g id="Group-10" transform="translate(226.000000, 22.000000)">
                    <g id="talent_logic" transform="translate(607.000000, 0.000000)">
                        <path d="M36.6034918,40.77684 L29.0698443,40.77684 L35.8260486,33.80556 C35.9236445,33.9066 36.1174117,34.10604 36.4097246,34.30692 C36.5058958,34.65804 36.6034918,35.0598 36.6034918,35.46156 L36.6034918,40.77684 Z" id="Path" fill="url(#linearGradient-1)"></path>
                        <path d="M17.4993813,-0.000120000001 L18.3255037,-0.000120000001 L19.1528134,-0.000120000001 C22.8958912,-0.000120000001 25.9092552,3.1098 25.9092552,6.97236 L25.9092552,14.74596 C25.9092552,15.94956 25.3255792,17.05356 24.4018608,17.655 L24.4018608,25.12908 C24.4018608,25.27932 24.4505401,25.37916 24.5968153,25.42956 C25.2780873,25.78068 27.6113666,26.98452 30.4782179,28.8906 L22.4584904,37.21596 L22.0210896,37.66812 L21.0000127,38.72172 L20.4163367,39.32292 L19.1528134,33.3546 C22.3122152,28.78956 18.9091798,28.58988 18.3255037,28.53948 C17.743015,28.53948 14.3399796,28.74036 17.4993813,33.3546 L16.2845373,39.07164 L14.9236556,37.66812 L13.9025787,36.61476 L13.5625364,36.26364 C12.9301811,35.6106 12.1040587,35.26068 11.1805778,35.26068 C10.3057762,35.26068 9.43073705,35.6106 8.79838178,36.26364 L8.50725614,36.56436 L4.42294873,40.77684 L2.37459735e-05,40.77684 L2.37459735e-05,35.46156 C2.37459735e-05,34.35756 0.48610382,33.25476 1.31222623,32.55252 C5.97902237,28.58988 10.9856234,25.98156 12.0067002,25.4802 C12.1040587,25.42956 12.2016547,25.27932 12.2016547,25.17828 L12.2016547,17.655 C11.2779363,17.00316 10.6942603,15.94956 10.6942603,14.74596 L10.6942603,6.97236 C10.743177,3.1098 13.7563035,-0.000120000001 17.4993813,-0.000120000001 L17.4993813,-0.000120000001 Z" id="Path" fill="url(#linearGradient-1)"></path>
                        <path d="M35.8260486,30.5454 L36.021003,30.74628 C36.0699197,30.79668 36.1174117,30.84588 36.1660909,30.89652 C36.5548125,31.29828 36.9934006,31.74924 37.3821222,32.15076 C37.5269727,32.301 37.6732479,32.45148 37.8682023,32.45148 C37.964611,32.45148 38.0132902,32.45148 38.1106487,32.35164 C38.4031991,32.2014 38.4993703,31.89948 38.4993703,31.59876 C38.5969662,29.84292 38.6456455,28.13772 38.743004,26.38212 C38.743004,25.88052 38.5480495,25.63044 38.0619694,25.63044 L37.9657983,25.63044 C36.2634494,25.73028 34.5138461,25.78068 32.812922,25.88052 C32.5203717,25.88052 32.2779253,25.93116 32.1318875,26.23164 C31.9856123,26.58276 32.1318875,26.73324 32.326842,26.93412 C32.860414,27.48588 33.3954108,28.03788 33.9301701,28.58988 L33.3464941,29.19132 L24.0131393,38.82156 L23.5757384,39.27252 L22.5546616,40.32588 L18.4717789,44.5398 L18.2293325,44.28828 L13.3189027,39.27252 L12.2978259,38.21892 L12.0067002,37.91844 C11.7642538,37.66812 11.4717035,37.56708 11.1805778,37.56708 C10.8892147,37.56708 10.5969018,37.66812 10.3544554,37.91844 L10.061905,38.21892 L4.18050235,44.33892 C3.74310152,44.78988 3.74310152,45.54276 4.18050235,45.99372 L4.47162798,46.2942 C4.71549913,46.54572 5.00662476,46.64532 5.29775039,46.64532 C5.59030078,46.64532 5.88142642,46.54572 6.1250601,46.2942 L11.2779363,40.97772 L11.5203827,41.229 L16.4308125,46.2942 L17.4507021,47.3478 L17.743015,47.64828 C17.9854614,47.8998 18.2780118,47.99964 18.5691374,47.99964 C18.8605005,47.99964 19.1528134,47.8998 19.3952598,47.64828 L19.6878102,47.3478 L24.5968153,42.2826 L25.6178921,41.229 L26.055293,40.77684 L35.3886478,31.1478 L35.8260486,30.5454 Z" id="Path" fill="url(#linearGradient-2)"></path>
                    </g>
                </g>
            </g>
        </g>
    </g>
</svg>