<?xml version="1.0" encoding="UTF-8"?>
<svg width="72px" height="72px" viewBox="0 0 72 72" version="1.1" xmlns="http://www.w3.org/2000/svg" xmlns:xlink="http://www.w3.org/1999/xlink">
    <!-- Generator: Sketch 43.1 (39012) - http://www.bohemiancoding.com/sketch -->
    <title>trader_risk_slice</title>
    <desc>Created with Sketch.</desc>
    <defs>
        <linearGradient x1="50%" y1="0%" x2="50%" y2="100%" id="linearGradient-1">
            <stop stop-color="#D5E0E3" offset="0%"></stop>
            <stop stop-color="#A4B3B7" offset="100%"></stop>
        </linearGradient>
        <linearGradient x1="50%" y1="0%" x2="50%" y2="100%" id="linearGradient-2">
            <stop stop-color="#6B757E" offset="3.31034758%"></stop>
            <stop stop-color="#41505D" offset="98.6168686%"></stop>
        </linearGradient>
    </defs>
    <g id="官网" stroke="none" stroke-width="1" fill="none" fill-rule="evenodd">
        <g id="Artboard" transform="translate(-111.000000, -44.000000)">
            <g id="trader_risk" transform="translate(117.000000, 51.000000)">
                <g id="Group-13">
                    <path d="M38.4239423,39.89298 L38.4239423,35.73177 L59.7504808,35.73177 L59.7504808,39.89298 L38.4239423,39.89298 Z M35.6896154,45.9273 L35.6896154,41.7658 L57.0161538,41.7658 L57.0161538,45.9273 L35.6896154,45.9273 Z M37.0566346,51.96133 L37.0566346,47.79983 L58.3831731,47.79983 L58.3831731,51.96133 L37.0566346,51.96133 Z M37.0566346,57.99536 L37.0566346,53.83415 L58.3831731,53.83415 L58.3831731,57.99536 L37.0566346,57.99536 Z" id="Combined-Shape" fill="url(#linearGradient-1)"></path>
                    <path d="M21.9125481,52.799517 L15.4971635,46.349917 C14.8587981,45.708147 13.8220673,45.708147 13.1762019,46.349917 L6.76081731,52.799517 L4.13899038,50.163707 L4.13899038,10.696737 L39.6786058,10.696737 L39.6786058,33.866577 L43.8177404,33.866577 L43.8177404,3.016087 C43.8177404,1.505767 42.6007212,0.289797 41.105625,0.289797 L2.71168269,0.289797 C1.209375,0.282257 -0.000144230769,1.505767 -0.000144230769,3.008547 L-0.000144230769,51.878187 L5.59629808,57.504477 C6.24245192,58.154077 7.28668269,58.154077 7.92504808,57.504477 L14.3329327,51.062417 L20.7408173,57.504477 C21.3866827,58.154077 22.4309135,58.154077 23.0692788,57.504477 L29.4771635,51.062417 L35.1938942,56.809637 L35.1938942,50.919157 L30.6413942,46.342377 C30.0030288,45.700607 28.9662981,45.700607 28.3204327,46.342377 L21.9125481,52.799517 Z" id="Fill-2" fill="url(#linearGradient-2)"></path>
                    <path d="M25.8413365,22.372166 L29.9804712,22.372166 L29.9804712,31.993496 L25.8413365,31.993496 L25.8413365,22.372166 Z M19.8393173,31.985956 L19.8393173,26.238736 L23.9784519,26.238736 L23.9784519,31.985956 L19.8393173,31.985956 Z M13.8370096,31.985956 L13.8370096,20.091316 L17.9761442,20.091316 L17.9761442,31.985956 L13.8370096,31.985956 Z M11.974125,35.731596 L11.974125,33.858776 L31.8433558,33.858776 L31.8433558,35.731596 L11.974125,35.731596 Z" id="Combined-Shape" fill="url(#linearGradient-1)"></path>
                </g>
            </g>
        </g>
    </g>
</svg>