<?xml version="1.0" encoding="UTF-8"?>
<svg width="73px" height="72px" viewBox="0 0 73 72" version="1.1" xmlns="http://www.w3.org/2000/svg" xmlns:xlink="http://www.w3.org/1999/xlink">
    <!-- Generator: Sketch 43.1 (39012) - http://www.bohemiancoding.com/sketch -->
    <title>trader_market_slice</title>
    <desc>Created with Sketch.</desc>
    <defs>
        <linearGradient x1="50%" y1="0%" x2="50%" y2="100%" id="linearGradient-1">
            <stop stop-color="#6B757E" offset="3.31034758%"></stop>
            <stop stop-color="#41505D" offset="98.6168686%"></stop>
        </linearGradient>
        <linearGradient x1="50%" y1="0%" x2="50%" y2="100%" id="linearGradient-2">
            <stop stop-color="#D5E0E3" offset="0%"></stop>
            <stop stop-color="#A4B3B7" offset="100%"></stop>
        </linearGradient>
    </defs>
    <g id="官网" stroke="none" stroke-width="1" fill="none" fill-rule="evenodd">
        <g id="Artboard" transform="translate(-401.000000, -40.000000)">
            <g id="trader_market" transform="translate(413.000000, 48.000000)">
                <g id="Group-14">
                    <polygon id="Path" fill="url(#linearGradient-1)" points="9.09038845 20.7731962 19.383312 20.7731962 19.383312 17.5705199 9.09038845 17.5705199"></polygon>
                    <polygon id="Path" fill="url(#linearGradient-1)" points="20.6483531 26.4515248 9.12389388 26.4515248 9.12389388 29.4187061 20.6483531 29.4187061"></polygon>
                    <polygon id="Path" fill="url(#linearGradient-1)" points="9.10587415 12.1738287 39.5166951 12.1738287 39.5166951 9.26123052 9.10587415 9.26123052"></polygon>
                    <path d="M48.7261827,5.35769614 C48.7219593,1.53688045 47.2271668,0.0296558854 43.3867128,0.0116490957 C38.9665304,-0.0100153232 34.5452218,0.00517790565 30.1239132,0.00517790565 C21.8872092,0.00517790565 13.6502237,0.0037711252 5.41351975,0.00742875436 C3.95814535,0.00939824698 2.52050912,0.0960559223 1.36302331,1.17168025 C0.244674087,2.2138232 0,3.54520022 0,4.99699763 C0.00957297922,20.3103655 0.00563116425,35.6228893 0.00816518816,50.9379452 C0.00816518816,51.3566031 0.0208353077,51.7806067 0.0658846217,52.1972951 C0.251713042,53.876991 1.51985123,55.6337784 3.14894705,55.74407 C6.0923566,55.9435514 9.0596986,55.8000598 12.0616723,55.8000598 L12.0616723,52.5489902 C9.79991514,52.5489902 7.62487795,52.5512411 5.45012232,52.5475834 C3.43163149,52.5475834 3.39108711,52.5090376 3.39108711,50.5288535 C3.38967932,35.5427028 3.38967932,20.5559893 3.39108711,5.56758778 C3.39108711,3.48076967 3.42177696,3.44588152 5.49348228,3.44588152 C18.057736,3.44391202 30.623679,3.44391202 43.1879327,3.44588152 C45.3404452,3.44588152 45.341853,3.45010186 45.3432608,5.65002512 C45.3432608,13.3082565 45.3319984,20.9650811 45.3640961,28.6207803 C45.3683195,29.0965534 45.5575266,29.7830623 45.8973673,30.0056149 C46.6964295,30.5230288 47.6399311,30.8209849 48.7275905,31.2936631 L48.7275905,29.7284792 C48.7275905,21.6054476 48.7304061,13.4815718 48.7261827,5.35769614 L48.7261827,5.35769614 Z" id="Path" fill="url(#linearGradient-1)"></path>
                    <path d="M43.0620761,36.2615676 C42.1410992,36.2432794 41.6720232,36.5294186 41.2688319,37.3689851 C39.0141137,42.0769166 36.6935109,46.7524921 34.3926172,51.437915 C34.1532927,51.9229729 33.895667,52.3998715 33.6467695,52.879865 C34.3157518,48.1300115 35.2029417,43.4746936 36.1912111,38.8376639 C36.393933,37.8810532 36.2303477,37.2488461 35.5095586,36.6461814 C34.4469579,35.7565334 33.4234938,34.8215871 32.220114,33.7594679 C31.0412298,34.8899567 30.099136,35.8237775 29.1105851,36.7047034 C28.454273,37.2910495 28.2608425,37.853199 28.4584963,38.7735147 C29.460562,43.4448699 30.3646454,48.1378895 31.301108,52.823031 C30.8739842,52.5050987 30.6402909,52.1140137 30.4386952,51.7077355 C28.0888104,46.941282 25.7515957,42.1692014 23.3848173,37.4140021 C23.1775905,36.9942188 22.8053705,36.3676388 22.473695,36.3459744 C18.9635087,36.0944421 16.2453457,36.7466255 16.0381189,40.9768143 C15.8365232,45.0739216 15.901,49.1859409 15.8520089,53.2889567 C15.8421544,54.1189572 15.8506011,54.9483949 15.8506011,55.8127208 L48.6814149,55.8127208 C48.6814149,51.045986 48.7458918,46.3895427 48.6602981,41.7328181 C48.5862483,37.7322159 47.0340178,36.3341575 43.0620761,36.2615676 L43.0620761,36.2615676 Z" id="Path" fill="url(#linearGradient-2)"></path>
                    <path d="M40.444711,24.1151439 C39.93678,20.2493112 36.739968,17.1940654 32.9960885,16.9920518 C28.9368637,16.7745635 25.4182307,19.2361479 24.4598066,22.9565195 C23.9642641,24.8781816 24.0929362,26.7663623 24.9145231,28.5619769 C26.3155568,31.6307277 28.9005427,33.0501692 32.5227891,33.4696711 C32.4814001,33.5093423 32.4414188,33.5476068 32.4005929,33.5867152 C38.7241088,31.4785141 41.0393619,28.6233125 40.444711,24.1151439 L40.444711,24.1151439 Z" id="Path" fill="url(#linearGradient-2)"></path>
                    <path d="M32.1266367,33.6770306 C32.1581712,33.7046034 32.1888611,33.731895 32.220114,33.7594679 C32.2795228,33.7023526 32.3397763,33.6446746 32.4005929,33.5867152 C32.3099311,33.6168203 32.2187063,33.6469254 32.1266367,33.6770306 L32.1266367,33.6770306 Z" id="Path" fill="#333C4E"></path>
                </g>
            </g>
        </g>
    </g>
</svg>