<?xml version="1.0" encoding="UTF-8"?>
<svg width="72px" height="73px" viewBox="0 0 72 73" version="1.1" xmlns="http://www.w3.org/2000/svg" xmlns:xlink="http://www.w3.org/1999/xlink">
    <!-- Generator: Sketch 43.1 (39012) - http://www.bohemiancoding.com/sketch -->
    <title>trader_data_slice</title>
    <desc>Created with Sketch.</desc>
    <defs>
        <linearGradient x1="50%" y1="0%" x2="50%" y2="100%" id="linearGradient-1">
            <stop stop-color="#6B757E" offset="3.31034758%"></stop>
            <stop stop-color="#41505D" offset="98.6168686%"></stop>
        </linearGradient>
        <linearGradient x1="50%" y1="0%" x2="50%" y2="100%" id="linearGradient-2">
            <stop stop-color="#D5E0E3" offset="0%"></stop>
            <stop stop-color="#A4B3B7" offset="100%"></stop>
        </linearGradient>
    </defs>
    <g id="官网" stroke="none" stroke-width="1" fill="none" fill-rule="evenodd">
        <g id="Artboard" transform="translate(-399.000000, -216.000000)">
            <g id="trader_data" transform="translate(405.000000, 227.000000)">
                <path d="M54.9813968,36.4089804 L4.99822222,36.4089804 C4.53822222,36.4089804 4.16520635,36.0384596 4.16520635,35.5815366 L4.16520635,4.96453703 C4.16520635,4.50761395 4.53822222,4.1374085 4.99822222,4.1374085 L54.9813968,4.1374085 C55.4413968,4.1374085 55.8144127,4.50761395 55.8144127,4.96453703 L55.8144127,35.5815366 C55.8144127,36.038775 55.4413968,36.4089804 54.9813968,36.4089804 L54.9813968,36.4089804 Z" id="Path" fill="#333C4E"></path>
                <path d="M58.3134603,40.5461997 L34.1550476,40.5461997 L34.1550476,47.1663813 L39.9864762,47.1663813 C40.4464762,47.1663813 40.8194921,47.5369021 40.8194921,47.9941405 L40.8194921,49.6487129 C40.8194921,50.1056359 40.4464762,50.4761567 39.9864762,50.4761567 L18.3271111,50.4761567 C17.8671111,50.4761567 17.4940952,50.1056359 17.4940952,49.6487129 L17.4940952,47.9941405 C17.4940952,47.5369021 17.8671111,47.1663813 18.3271111,47.1663813 L24.1585397,47.1663813 L24.1585397,40.5461997 L1.66615873,40.5461997 C0.74584127,40.5461997 0.000126984127,39.8051581 0.000126984127,38.8909967 L0.000126984127,1.65476159 C0.000126984127,0.740915432 0.74584127,-0.000126134733 1.66615873,-0.000126134733 L58.3134603,-0.000126134733 C59.2337778,-0.000126134733 59.9798095,0.740915432 59.9798095,1.65476159 L59.9798095,38.891312 C59.9798095,39.8051581 59.2337778,40.5461997 58.3134603,40.5461997 L58.3134603,40.5461997 Z" id="Path" fill="url(#linearGradient-1)"></path>
                <path d="M57.4804444,3.30964931 C57.4804444,2.85272623 57.107746,2.48220545 56.6474286,2.48220545 L3.33219048,2.48220545 C2.87219048,2.48220545 2.4991746,2.85272623 2.4991746,3.30964931 L2.4991746,37.2367396 C2.4991746,37.6936627 2.87219048,38.0641835 3.33219048,38.0641835 L56.6474286,38.0641835 C57.1074286,38.0641835 57.4804444,37.6936627 57.4804444,37.2367396 L57.4804444,3.30964931 Z" id="Path" fill="#FFFFFF"></path>
                <g id="Page-1" transform="translate(17.384615, 8.230769)" fill="url(#linearGradient-2)">
                    <g id="Group-6" transform="translate(0.500000, 0.493882)">
                        <path d="M22.9755827,0.818985106 C22.9755827,0.818985106 22.9914774,0.299653446 22.1487559,0.299653446 L17.2468324,0.299653446 C17.2468324,0.299653446 16.7874001,0.313951209 17.2849797,0.858957348 C17.7837703,1.40196487 19.2094486,2.76394213 19.2094486,2.76394213 L19.1906777,3.06619378 L12.6903536,8.67460674 C12.6903536,8.67460674 12.1732462,9.08416847 11.5254996,8.52609449 C10.8774503,7.96940415 7.98476742,5.48174708 7.98476742,5.48174708 C7.98476742,5.48174708 7.45191674,5.09017285 6.95887849,5.50081076 L2.30143052,9.3793481 L3.02756063e-05,11.2950946 L3.02756063e-05,13.398557 C3.02756063e-05,13.398557 0.185619745,13.8357918 0.549835294,13.5326177 C0.915564624,13.2294437 7.49051814,7.75263161 7.49051814,7.75263161 L11.7371261,11.4040959 C11.7371261,11.4040959 12.1084564,11.919584 12.5933203,11.4981844 C13.0810603,11.0758623 20.6370949,4.50596317 20.6370949,4.50596317 L22.4714939,6.32608381 C22.4714939,6.32608381 22.8063421,6.594974 22.9758855,6.05996092 C23.1433096,5.52417915 22.9755827,0.818985106 22.9755827,0.818985106" id="Fill-1"></path>
                        <path d="M20.1371689,8.14376 C19.8604499,8.38513084 12.7341775,14.5791371 12.7341775,14.5791371 C12.7341775,14.5791371 12.4470134,15.1596571 11.7105593,14.6191094 C10.9727427,14.0794841 7.78502411,11.244991 7.78502411,11.244991 C7.78502411,11.244991 7.31469255,11.1049344 7.07975385,11.3007984 C6.84390687,11.4972773 0.429868202,16.8397211 0.429868202,16.8397211 C0.429868202,16.8397211 0.000560098725,17.2283743 0.000560098725,17.6182574 L0.000560098725,19.406554 C0.000560098725,19.4468337 0.291054545,20.2013866 0.826478651,20.2013866 L20.2010504,20.2013866 C20.2010504,20.2013866 20.7001438,20.0685558 20.7001438,19.406554 L20.7001438,8.24645791 C20.7001438,8.24645791 20.4160072,7.90269663 20.1371689,8.14376" id="Fill-4"></path>
                    </g>
                </g>
            </g>
        </g>
    </g>
</svg>