<?xml version="1.0" encoding="UTF-8"?>
<svg width="1169px" height="531px" viewBox="0 0 1169 531" version="1.1" xmlns="http://www.w3.org/2000/svg" xmlns:xlink="http://www.w3.org/1999/xlink">
    <!-- Generator: Sketch 43.1 (39012) - http://www.bohemiancoding.com/sketch -->
    <title>trader_road_slice</title>
    <desc>Created with Sketch.</desc>
    <defs>
        <polygon id="path-1" points="26.9839742 6.87116553e-05 26.9839742 27.9141104 1.74193547e-05 27.9141104 1.74193547e-05 6.87116553e-05"></polygon>
    </defs>
    <g id="官网" stroke="none" stroke-width="1" fill="none" fill-rule="evenodd">
        <g id="Artboard" transform="translate(-138.000000, -3734.000000)">
            <g id="trader_road" transform="translate(138.000000, 3734.000000)">
                <g id="Group-15" transform="translate(0.000000, 238.980664)">
                    <g id="zixun-">
                        <circle id="Oval-6" fill="#333C4E" cx="30" cy="30" r="30"></circle>
                        <g id="Page-1" transform="translate(19.000000, 19.019336)" fill="#FFFFFF">
                            <path d="M16.7143783,5.63201668 L13.03054,5.63201668 C12.7619365,5.63201668 12.5440959,5.84985732 12.5440959,6.11859405 C12.5440959,6.38733078 12.7619365,6.60503818 13.03054,6.60503818 L15.5532278,6.60503818 L12.2107398,9.91861405 C12.0198128,10.107809 12.0184804,10.4158503 12.2076753,10.606644 C12.3028057,10.7025739 12.4280475,10.750672 12.5532892,10.750672 C12.6770653,10.750672 12.8009746,10.703773 12.8957053,10.6097085 L16.227801,7.30639175 L16.227801,9.86012351 C16.227801,10.1288602 16.4456416,10.3467009 16.7143783,10.3467009 C16.9831151,10.3467009 17.2009557,10.1288602 17.2009557,9.86012351 L17.2009557,6.11859405 C17.2009557,5.84985732 16.9831151,5.63201668 16.7143783,5.63201668 M18.0005041,22.7500269 C17.8851219,22.7500269 17.8135742,22.7461631 17.8058465,22.7457634 L17.7983853,22.7453637 C16.6862656,22.6666213 15.4311838,22.2825023 14.1686407,21.6343098 L14.1533186,21.6261824 L12.7460815,20.839025 C10.0775004,19.3770279 5.98396178,15.1567819 5.81102163,14.9778462 L5.51350595,14.6699381 L5.5159042,14.6670069 C4.7958976,13.8945054 3.3145813,12.2037423 2.03138671,10.0972833 C0.587776156,7.72728384 -0.0923929168,5.68331249 0.0100654606,4.02226101 C0.0860099016,2.78809722 0.594571185,1.78509766 1.52135984,1.04084214 C2.5172979,0.241160496 3.42756531,-0.0921956291 4.30412404,0.0217210324 C5.24370333,0.143765081 6.10014345,0.767975092 6.99935228,1.98628381 C7.05944165,2.06769092 7.11886485,2.14789891 7.17748863,2.22690777 C7.84566647,3.12838161 8.42284422,3.90701199 8.63309041,4.71348866 C8.87837763,5.65493325 8.58419285,6.52802785 7.73374835,7.38286914 L7.70416999,7.41258074 L7.69804114,7.41631134 C7.65780391,7.45734799 7.46581103,7.67785334 7.46114777,8.14804269 C7.45648452,8.62396119 7.63875118,9.19194567 8.00288479,9.83600782 C8.50305221,10.7208272 9.33417751,11.7200961 10.4732109,12.8062349 C12.3824808,14.6142455 13.6114484,15.1117482 14.3061402,15.210476 C14.915028,15.2972125 15.1825657,15.0893646 15.2287985,15.0480615 L15.2367926,15.0368697 L15.2302641,15.0467291 C15.2315964,15.04553 15.2327956,15.0444641 15.2337282,15.0436647 C15.9590643,14.2078761 16.8899832,13.9316782 18.0006374,14.2226653 C18.8017846,14.4325118 19.6852716,14.9236192 20.8653416,15.8152336 C21.7676149,16.4968682 22.3192113,17.1742394 22.5517079,17.8862518 C22.8096525,18.6763405 22.6864094,19.4929431 22.1747837,20.3830918 C22.0408816,20.6161214 21.7434992,20.6964626 21.5106029,20.5624273 C21.2775734,20.4285253 21.1972321,20.1311428 21.3312674,19.8982465 C21.702729,19.2519194 21.7966603,18.7084503 21.6267846,18.1884307 C21.458108,17.6717421 21.0170973,17.1493243 20.2787041,16.5915989 C18.8870555,15.5402348 18.1713125,15.2732301 17.7540178,15.1639767 C16.9991034,14.9661214 16.4472404,15.1272036 15.9645269,15.686128 C15.9063028,15.7531457 15.5259145,16.1552515 14.7339605,16.2002852 C13.4249182,16.2747641 11.765732,15.3702258 9.80303451,13.5115855 C7.54308783,11.3567619 6.42896956,9.5205053 6.49039129,8.05264581 C6.52516585,7.22405199 6.93313406,6.79543223 7.05491163,6.68551264 C8.27268741,5.45361387 7.76399289,4.65220016 6.39579383,2.80635054 C6.33677034,2.72680873 6.27694744,2.64606779 6.21645836,2.56412774 C5.48525995,1.57351911 4.8378669,1.0722858 4.17874909,0.986615141 C3.57892124,0.908672162 2.9088781,1.17461094 2.13064743,1.79948713 C1.41663645,2.37293428 1.04064485,3.11958805 0.981221654,4.08221714 C0.892619807,5.5202318 1.54307728,7.42523814 2.86237878,9.59112031 C4.31051936,11.9683145 6.02033517,13.7967103 6.50984372,14.3004751 L6.57472959,14.3672262 C7.10900539,14.9128271 10.8500019,18.6916626 13.2152049,19.9864487 L13.2190688,19.9887137 L14.62071,20.7726735 C15.7628078,21.3579786 16.8833214,21.7042586 17.8620721,21.7743407 C17.898179,21.7759395 18.2961545,21.7916614 18.7283716,21.7191811 C18.8842576,21.6929336 19.0525345,21.6610902 19.2308041,21.6275148 C19.9009804,21.5008075 20.7351702,21.3430562 21.8571494,21.2984222 C22.1250867,21.2878966 22.3519874,21.4966772 22.3626462,21.7651474 C22.3734383,22.0336177 22.1643913,22.2599854 21.895921,22.2706443 C20.8456227,22.3124804 20.0503378,22.4629036 19.4114719,22.5836153 C19.2282726,22.6182567 19.0551992,22.6508994 18.8894538,22.6787457 C18.5327814,22.7385686 18.2007576,22.7500269 18.0005041,22.7500269" id="Fill-1"></path>
                        </g>
                    </g>
                    <text id="Consult" font-family="PingFangSC-Regular, PingFang SC" font-size="14" font-weight="normal" fill="#242B3A">
                        <tspan x="7" y="85">Consult</tspan>
                    </text>
                </g>
                <path d="M640.505882,269.5 L555.496753,269.5" id="Line-Copy-8" stroke="#BED1D6" stroke-linecap="square" stroke-dasharray="4"></path>
                <path d="M731.505882,269.5 L646.496753,269.5" id="Line-Copy-8" stroke="#BED1D6" stroke-linecap="square"></path>
                <path d="M718,340 C677.68334,340 645,307.31666 645,267 C645,226.68334 677.68334,194 718,194" id="Stroke-3" stroke="#C1D4D8"></path>
                <g id="A" transform="translate(320.000000, 26.000000)" fill="#FFFFFF" stroke="#BED1D6">
                    <g id="Group-17">
                        <circle id="Oval-6" cx="4" cy="34" r="4"></circle>
                        <circle id="Oval-6" cx="48" cy="4" r="4"></circle>
                        <circle id="Oval-6" cx="89" cy="34" r="4"></circle>
                    </g>
                </g>
                <path d="M1041,340 C1000.68334,340 968,307.31666 968,267 C968,226.68334 1000.68334,194 1041,194" id="Stroke-3" stroke="#C1D4D8"></path>
                <circle id="Oval-7" stroke="#BED1D6" fill="#FFFFFF" cx="366" cy="269" r="189"></circle>
                <g id="Group-16" transform="translate(294.000000, 187.000000)" stroke="#3C4A4D">
                    <path d="M71.526879,0.925696826 L0.426778466,128.357865 L1.14838327,128.760481 L72,1.77366801 L142.851617,128.760481 L143.573222,128.357865 L72.473121,0.925696826 L72.5092827,0.860884586 L72.4042681,0.802292272 L72.2123222,0.458269022 L72,0.576733039 L71.7876778,0.458269022 L71.5957319,0.802292272 L71.4907173,0.860884586 L71.526879,0.925696826 Z" id="Combined-Shape"></path>
                    <path d="M37.881193,69 L108.121191,69" id="Line" stroke-width="2" stroke-linecap="square"></path>
                </g>
                <circle id="Oval-8" stroke="#C2CFD3" fill="#FFFFFF" cx="555" cy="269" r="4"></circle>
                <circle id="Oval-8" stroke="#3C4A4D" stroke-width="2" fill="#F0F4F5" cx="366" cy="187" r="4"></circle>
                <circle id="Oval-8" stroke="#3C4A4D" stroke-width="2" fill="#F0F4F5" cx="295" cy="315" r="4"></circle>
                <circle id="Oval-8" stroke="#3C4A4D" stroke-width="2" fill="#F0F4F5" cx="437" cy="315" r="4"></circle>
                <circle id="Oval-8" stroke="#3C4A4D" stroke-width="2" fill="#F0F4F5" cx="403" cy="255" r="4"></circle>
                <circle id="Oval-8" stroke="#3C4A4D" stroke-width="2" fill="#F0F4F5" cx="329" cy="255" r="4"></circle>
                <circle id="Oval-8" stroke="#C2CFD3" fill="#FFFFFF" cx="921" cy="269" r="4"></circle>
                <circle id="Oval-8" stroke="#C2CFD3" fill="#FFFFFF" cx="968" cy="269" r="4"></circle>
                <circle id="Oval-8-Copy" stroke="#C2CFD3" fill="#FFFFFF" cx="645" cy="269" r="4"></circle>
                <g id="Group-15-Copy" transform="translate(63.000000, 239.000000)">
                    <circle id="Oval-6" stroke="#C2CFD3" fill="#FFFFFF" cx="114" cy="30" r="30"></circle>
                    <g id="Page-1" transform="translate(103.000000, 16.000000)" fill="#7C8CA5">
                        <path d="M20.1446459,10.425761 L4.14449898,10.425761 C4.12841733,10.425761 4.11778709,10.4124567 4.11778709,10.3992882 L4.11778709,9.12126642 C4.11778709,9.10524703 4.12841733,9.09465794 4.14449898,9.09465794 L20.1446459,9.09465794 C20.1580019,9.09465794 20.1712215,9.10524703 20.1712215,9.12126642 L20.1712215,10.3992882 C20.1712215,10.4124567 20.1605913,10.425761 20.1446459,10.425761 M20.1446459,6.59956945 L4.14449898,6.59956945 C4.12841733,6.59956945 4.11778709,6.58640097 4.11778709,6.57309673 L4.11778709,5.29507491 C4.11778709,5.27919127 4.12841733,5.26860218 4.14449898,5.26860218 L20.1446459,5.26860218 C20.1580019,5.26860218 20.1712215,5.27919127 20.1712215,5.29507491 L20.1712215,6.57309673 C20.1712215,6.58898036 20.1605913,6.59956945 20.1446459,6.59956945" id="Fill-1"></path>
                        <g id="Group-5">
                            <path d="M22.0371967,14.5435598 L22.960801,15.6677682 L22.0371967,14.5435598 Z M3.33792269,25.0727816 C2.2333317,25.0727816 1.33357726,24.1765101 1.33357726,23.0761949 L1.33357726,1.33108945 L20.0301255,1.33108945 C21.1348528,1.33108945 22.034471,2.22722521 22.034471,3.32767612 L22.034471,14.5462749 L22.960801,15.6730628 L23.3707467,16.1715646 L23.3707467,3.32496097 C23.3707467,1.49549188 21.869566,-1.35757582e-05 20.0328512,-1.35757582e-05 L2.72570264e-05,-1.35757582e-05 L2.72570264e-05,23.0761949 C2.72570264e-05,24.905664 1.50120798,26.4011695 3.33792269,26.4011695 L17.355121,26.4011695 L17.355121,25.0700664 L3.33792269,25.0700664 L3.33792269,25.0727816 Z" id="Fill-3"></path>
                        </g>
                        <g id="Group-8" transform="translate(14.446224, 12.489697)">
                            <polygon id="Fill-6" points="5.91402512 0.0148518788 0.084701209 7.10506279 1.82015607 7.10506279 2.9115274 5.77395976 2.90621228 5.77395976 4.22640634 4.16713309 4.22913205 4.16441794 5.91402512 2.11488582 8.92183797 5.77395976 7.58297284 5.77395976 7.58297284 13.3307695 4.24507741 13.3307695 4.24507741 8.67469188 2.9088017 8.67469188 2.9088017 14.6618725 8.91924855 14.6618725 8.91924855 7.10506279 11.7407596 7.10506279"></polygon>
                        </g>
                    </g>
                    <path d="M83.5,30.5 L0.475907111,30.5" id="Line" stroke="#BED1D6" stroke-linecap="square" stroke-dasharray="4"></path>
                    <path d="M899.5,30.5 L859.490002,30.5" id="Line-Copy-9" stroke="#BED1D6" stroke-linecap="square" stroke-dasharray="4"></path>
                    <path d="M969.5,30.5 L908.490002,30.5" id="Line-Copy-9" stroke="#BED1D6" stroke-linecap="square"></path>
                    <text id="Have-A-Try" font-family="PingFangSC-Regular, PingFang SC" font-size="14" font-weight="normal" fill="#242B3A">
                        <tspan x="4" y="19">Have A Try</tspan>
                    </text>
                </g>
                <g id="Group-15-Copy-2" transform="translate(240.000000, 46.000000)">
                    <circle id="Oval-6" stroke="#C2CFD3" fill="#FFFFFF" cx="126" cy="30" r="30"></circle>
                    <g id="Page-1" transform="translate(114.000000, 14.000000)" fill="#7C8CA5">
                        <g id="Group-3" transform="translate(0.000000, 0.112360)">
                            <path d="M5.81582566,8.54014876 C5.81582566,4.76002171 8.93108083,1.6957344 12.7740822,1.6957344 C16.616907,1.6957344 19.7323388,4.76002171 19.7323388,8.54014876 C19.7323388,12.3202758 16.616907,15.3845631 12.7740822,15.3845631 C8.93108083,15.3845631 5.81582566,12.3202758 5.81582566,8.54014876 L5.81582566,8.54014876 Z M12.7740822,17.0190812 C17.5513953,17.0190812 21.393867,13.2393015 21.393867,8.54014876 C21.393867,3.84099601 17.5513953,0.0612162809 12.7740822,0.0612162809 C7.9967691,0.0612162809 4.15412083,3.84099601 4.15412083,8.54014876 C4.15412083,13.2393015 7.9967691,17.0190812 12.7740822,17.0190812 Z M23.7826119,29.2776198 L1.66174014,29.2776198 C2.07716634,23.659094 6.95829186,19.1641692 12.6702698,19.1641692 C18.4860601,19.1641692 23.3671857,23.55698 23.7826119,29.2776198 Z M12.7740822,17.5298247 C5.71201324,17.5298247 3.53103442e-05,23.1483505 3.53103442e-05,30.0948789 C3.53103442e-05,30.5035084 0.415461517,30.9121379 0.830887724,30.9121379 L24.7172767,30.9121379 C24.9249015,30.9121379 25.2365153,30.8098503 25.3403277,30.6056223 C25.5481291,30.4012208 25.5481291,30.1969928 25.5481291,29.8904773 C25.4441401,23.0460629 19.7323388,17.5298247 12.7740822,17.5298247 Z" id="Fill-1"></path>
                        </g>
                        <path d="M14.2279857,21.0132308 C14.2279857,20.9111169 14.2279857,20.8090029 14.0203608,20.8090029 C14.0203608,20.8090029 13.2933208,20.7067153 12.7740822,20.7067153 C12.2548436,20.7067153 11.5278036,20.8090029 11.5278036,20.8090029 C11.4239912,20.8090029 11.3200022,20.9111169 11.3200022,21.0132308 C11.3200022,21.0132308 11.5278036,22.0347178 12.1508546,22.647749 C11.9432298,23.2606064 11.1123774,25.8144976 10.904576,27.4490157 L10.904576,27.5511296 C10.904576,27.5511296 11.5278036,28.1639871 12.5662808,28.7770182 L12.8778946,28.7770182 C14.0203608,28.1639871 14.5395994,27.6532436 14.5395994,27.5511296 L14.5395994,27.4490157 C14.3317981,25.8144976 13.5009457,23.2606064 13.2933208,22.647749 C14.0203608,22.0347178 14.2279857,21.1153448 14.2279857,21.0132308" id="Fill-4"></path>
                    </g>
                    <text id="Alphatrader" font-family="PingFangSC-Regular, PingFang SC" font-size="14" font-weight="normal" fill="#242B3A">
                        <tspan x="89" y="86">Alphatrader</tspan>
                    </text>
                    <text id="Risk-Management" font-family="PingFangSC-Light, PingFang SC" font-size="12" font-weight="300" fill="#242B3A">
                        <tspan x="77" y="129">Risk Management</tspan>
                    </text>
                    <text id="Real-Time-Guidance" font-family="PingFangSC-Light, PingFang SC" font-size="12" font-weight="300" fill="#242B3A">
                        <tspan x="0" y="292">Real-Time Guidance</tspan>
                    </text>
                    <text id="Test-Evaluation" font-family="PingFangSC-Light, PingFang SC" font-size="12" font-weight="300" fill="#242B3A">
                        <tspan x="156" y="293">Test Evaluation</tspan>
                    </text>
                    <text id="Graduation" font-family="PingFangSC-Medium, PingFang SC" font-size="14" font-weight="400" fill="#242B3A">
                        <tspan x="324" y="213">Graduation</tspan>
                    </text>
                    <text id="Alpha-Team" font-family="PingFangSC-Medium, PingFang SC" font-size="14" font-weight="400" fill="#242B3A">
                        <tspan x="89" y="242">Alpha Team</tspan>
                    </text>
                </g>
                <g id="A" transform="translate(645.000000, 159.000000)">
                    <g id="Group-15-Copy-5" transform="translate(72.000000, 0.000000)">
                        <circle id="Oval-6" stroke="#BED1D6" fill="#FFFFFF" cx="30" cy="30" r="30"></circle>
                        <g id="Page-1" transform="translate(17.000000, 15.000000)" fill="#7C8CA5">
                            <path d="M7.96915,7.34120061 C7.96915,4.18501656 10.5568167,1.63658098 13.7089833,1.63658098 C16.86115,1.63658098 19.4488167,4.20837239 19.4488167,7.34120061 C19.4488167,10.4740288 16.86115,13.0458202 13.7089833,13.0458202 C10.5568167,13.0458202 7.96915,10.4973847 7.96915,7.34120061 L7.96915,7.34120061 Z M21.28365,17.6282006 C21.6364833,17.9088018 22.1539833,17.8385687 22.4363167,17.4879 C22.71865,17.1372313 22.6479833,16.6229061 22.29515,16.3423049 C21.77765,15.9449245 21.23665,15.5942558 20.69565,15.2669429 C19.5899833,14.635673 18.4138167,14.1680595 17.1669833,13.8407466 C19.5193167,12.6015626 21.0954833,10.1700718 21.0954833,7.34120061 C21.0954833,3.29650123 17.77865,1.65644178e-05 13.7089833,1.65644178e-05 C9.63931667,1.65644178e-05 6.32248333,3.29650123 6.32248333,7.34120061 C6.32248333,10.146716 7.92215,12.6015626 10.2744833,13.8407466 C5.21681667,15.1266423 1.12365,19.1946975 0.01815,24.4550595 C-0.0760166667,24.8993172 0.206316667,25.3200534 0.65315,25.4136423 C0.700316667,25.4369982 0.770816667,25.4369982 0.817816667,25.4369982 C1.19431667,25.4369982 1.54715,25.1797528 1.61765,24.7823724 C2.81748333,19.1478202 7.89865,15.0330534 13.7089833,15.0330534 C15.87315,15.0330534 17.9903167,15.5942558 19.87215,16.6696178 C20.36615,16.950219 20.83665,17.2775319 21.28365,17.6282006 Z" id="Fill-1"></path>
                            <g id="Group-5" transform="translate(26.000000, 16.143018)">
                                <path d="M0.0825333333,0.947451534 C0.0825333333,1.43808957 0.4827,1.83580123 0.976366667,1.83580123 C1.4702,1.83580123 1.87036667,1.43808957 1.87036667,0.947451534 C1.87036667,0.456813497 1.4702,0.0591018405 0.976366667,0.0591018405 C0.4827,0.0591018405 0.0825333333,0.456813497 0.0825333333,0.947451534" id="Fill-3"></path>
                            </g>
                            <path d="M23.8713,19.3115264 C23.8713,19.8021644 24.2714667,20.1998761 24.7651333,20.1998761 C25.2589667,20.1998761 25.6591333,19.8021644 25.6591333,19.3115264 C25.6591333,18.8208883 25.2589667,18.4231767 24.7651333,18.4231767 C24.2714667,18.4231767 23.8713,18.8208883 23.8713,19.3115264" id="Fill-6"></path>
                            <path d="M21.66005,21.5092104 C21.66005,21.9998485 22.0602167,22.3975601 22.5538833,22.3975601 C23.0477167,22.3975601 23.4478833,21.9998485 23.4478833,21.5092104 C23.4478833,21.0185724 23.0477167,20.6208607 22.5538833,20.6208607 C22.0602167,20.6208607 21.66005,21.0185724 21.66005,21.5092104" id="Fill-8"></path>
                            <path d="M19.9428,23.0990135 L18.0844667,24.945946 L15.4498,22.3274429 C15.1204667,22.0001301 14.6028,22.0001301 14.2971333,22.3274429 C13.9678,22.6547558 13.9678,23.169081 14.2971333,23.473038 L17.5198,26.6760994 C17.6844667,26.8397558 17.8963,26.9098233 18.1079667,26.9098233 C18.3196333,26.9098233 18.5313,26.8397558 18.6959667,26.6760994 L21.1424667,24.2446086 C21.4718,23.9172957 21.4718,23.4029706 21.1424667,23.0756577 C20.7896333,22.7717006 20.2721333,22.7717006 19.9428,23.0990135 Z" id="Fill-10"></path>
                        </g>
                        <text id="Hired" font-family="PingFangSC-Light, PingFang SC" font-size="14" font-weight="300" fill="#242B3A">
                            <tspan x="71" y="34">Hired</tspan>
                        </text>
                    </g>
                    <g id="Group-15-Copy-6" transform="translate(72.000000, 150.000000)">
                        <circle id="Oval-6" stroke="#BED1D6" fill="#FFFFFF" cx="30" cy="30" r="30"></circle>
                        <g id="Page-1" transform="translate(17.000000, 15.000000)" fill="#7C8CA5">
                            <path d="M25.3391663,20.667735 L20.3065483,20.667735 C19.8736382,20.667735 19.5226382,21.014835 19.5226382,21.442935 C19.5226382,21.871035 19.8736382,22.218285 20.3065483,22.218285 L23.3614921,22.218285 L23.3614921,23.267085 C23.3614921,23.711685 22.9957787,24.073335 22.5461831,24.073335 L9.65808202,24.073335 L9.65808202,11.452635 C9.65808202,11.300085 9.64427865,11.150835 9.61894719,11.005335 C9.97525618,10.639635 10.7324697,9.806985 11.426127,8.681235 C11.9784135,7.784685 12.3784079,6.884085 12.6148854,6.004185 C12.9191663,4.871835 12.9529921,3.772185 12.7153011,2.735535 C12.5922843,2.198835 12.6622112,1.786035 12.9024809,1.631085 C13.1240933,1.488135 13.5695933,1.506285 14.0649978,1.869435 C14.4302562,2.137035 15.0867506,2.801085 15.382082,4.242285 C15.6795371,5.694735 15.524818,7.471335 14.9223236,9.522735 C14.8991157,9.601335 14.8888011,9.683085 14.8915315,9.764835 C14.8913798,9.770235 14.8910764,9.775635 14.8910764,9.781185 C14.8910764,10.209285 15.2420764,10.556385 15.6749865,10.556385 L25.3391663,10.556385 L25.3391663,13.269435 L20.3535708,13.269435 C20.007273,13.269435 19.7263517,13.547085 19.7263517,13.889685 C19.7263517,14.232135 20.007273,14.509785 20.3535708,14.509785 L25.3391663,14.509785 L25.3391663,17.145435 L20.3535708,17.145435 C20.007273,17.145435 19.7263517,17.423085 19.7263517,17.765535 C19.7263517,18.108135 20.007273,18.385785 20.3535708,18.385785 L25.3391663,18.385785 C25.3391663,18.393585 25.3394697,18.401235 25.339773,18.408885 C25.3394697,18.416685 25.3391663,18.424335 25.3391663,18.432135 L25.3391663,20.667735 Z M6.99281798,25.313685 L2.66538539,25.313685 C2.06031236,25.313685 1.56794157,24.826935 1.56794157,24.228435 L1.56794157,11.452635 C1.56794157,10.854135 2.06031236,10.367235 2.66538539,10.367235 L6.99281798,10.367235 C7.59789101,10.367235 8.0902618,10.854135 8.0902618,11.452635 L8.0902618,24.228435 C8.0902618,24.826935 7.59789101,25.313685 6.99281798,25.313685 L6.99281798,25.313685 Z M26.9071382,10.511385 C26.9071382,9.681285 26.2240989,9.005985 25.3846719,9.005985 L16.6811157,9.005985 C17.1378404,7.099035 17.2182337,5.396535 16.9186551,3.934485 C16.6228685,2.490135 15.940891,1.314435 14.9986213,0.623835 C14.0305652,-0.085665 12.8715371,-0.199965 12.0459135,0.332535 C11.6392449,0.594885 11.3460371,0.991335 11.1979921,1.479285 C11.0551045,1.950585 11.0511607,2.488485 11.1863124,3.078285 C11.8059472,5.781585 9.81007079,8.447535 8.83670562,9.552135 C8.35753146,9.097335 7.70786292,8.816835 6.99281798,8.816835 L2.66538539,8.816835 C1.19570562,8.816835 -3.03370789e-05,9.999285 -3.03370789e-05,11.452635 L-3.03370789e-05,24.228435 C-3.03370789e-05,25.681785 1.19570562,26.864235 2.66538539,26.864235 L6.99281798,26.864235 C7.94449213,26.864235 8.78088539,26.368035 9.25247528,25.623885 L22.5461831,25.623885 C23.8602337,25.623885 24.9293124,24.566685 24.9293124,23.267235 L24.9293124,22.218285 L25.3848236,22.218285 C26.2242506,22.218285 26.9071382,21.542835 26.9071382,20.712735 L26.9071382,18.432135 C26.9071382,18.424335 26.9066831,18.416685 26.9065315,18.409035 C26.9066831,18.401235 26.9071382,18.393585 26.9071382,18.385785 L26.9071382,10.511385 Z" id="Fill-1"></path>
                        </g>
                        <text id="Recommend" font-family="PingFangSC-Light, PingFang SC" font-size="14" font-weight="300" fill="#242B3A">
                            <tspan x="73" y="34">Recommend</tspan>
                        </text>
                    </g>
                    <g id="Group-15-Copy-3" transform="translate(0.000000, 35.000000)">
                        <circle id="Oval-6" stroke="#BED1D6" fill="#FFFFFF" cx="102" cy="75" r="30"></circle>
                        <g id="Page-1" transform="translate(90.000000, 60.000000)">
                            <mask id="mask-2" fill="white">
                                <use xlink:href="#path-1"></use>
                            </mask>
                            <g id="Clip-2"></g>
                            <path d="M15.364411,13.7892957 C15.364411,15.3493939 14.0750303,16.6176393 12.4895206,16.6176393 C10.9007013,16.6176393 9.61463032,15.3528294 9.61463032,13.7892957 C9.61463032,12.225762 10.9007013,10.9609521 12.4895206,10.9609521 C14.07834,10.9643877 15.364411,12.2291975 15.364411,13.7892957 M26.9796368,15.2655656 C27.1020948,14.2321423 24.6423077,10.5650012 23.4412432,7.41474356 C22.2403529,4.26431411 20.0287916,6.87116553e-05 12.3841335,6.87116553e-05 C4.73930129,6.87116553e-05 1.74193547e-05,6.5390135 1.74193547e-05,10.9039215 C1.74193547e-05,16.8021301 3.99758516,20.4759706 3.98051419,21.807946 L3.98051419,27.4780319 C3.98051419,27.4780319 4.14721742,27.9141791 4.56232065,27.9141791 C5.12705613,27.9141791 5.30752065,27.4780319 5.30752065,27.4780319 L5.30752065,21.807946 C5.30752065,20.1135166 1.35071419,15.6647804 1.32684968,10.9039215 C1.29967548,5.7706454 6.95417226,1.55673129 11.9418561,1.31847362 L11.9418561,9.6190135 C9.85623677,9.86379877 8.40346258,11.8198479 8.40346258,13.9536883 C8.40346258,16.2350871 10.1657787,17.9193816 12.4895206,17.9193816 C13.4285981,17.9193816 14.2927723,17.6106945 14.9935529,17.1006822 L17.1539013,18.6138847 C17.1437981,18.6741791 17.1370045,18.7313816 17.1370045,18.7916761 C17.1370045,19.5129767 17.7323981,20.096854 18.4638368,20.096854 C19.1987594,20.096854 19.790669,19.5129767 19.790669,18.7916761 C19.790669,18.0703755 19.1952755,17.4864982 18.4638368,17.4864982 C18.2868561,17.4864982 18.1236368,17.5234307 17.9705206,17.5804613 L15.93594,16.1546945 C16.415669,15.4835534 16.6980368,14.6682896 16.6980368,13.7858601 C16.6980368,11.7997497 15.1942239,10.0987926 13.2754819,9.68600736 L13.2754819,1.34544294 C19.8042561,1.71098896 21.556469,6.06593374 22.1178948,7.8508908 C22.7098045,9.73977423 25.6663916,14.3060074 25.6561142,14.8294184 C25.6458368,15.3595288 22.5601723,16.5740074 22.5601723,16.5740074 L22.5601723,20.0631853 C22.5601723,20.0631853 22.5566884,20.9188172 21.6754432,21.807946 C20.8522045,22.6398724 19.0217787,22.6802405 19.0217787,22.6802405 L17.252669,22.6802405 L17.252669,27.4780319 C17.252669,27.4780319 17.4226819,27.9141791 17.8616497,27.9141791 C18.5012884,27.9141791 18.5795013,27.4780319 18.5795013,27.4780319 L18.5795013,23.9886822 C18.5795013,23.9886822 20.4167206,24.1798724 22.1178948,23.1163877 C23.9277658,21.9823018 23.8870045,20.0631853 23.8870045,20.0631853 L23.8870045,17.4463018 C24.7612819,17.1678479 26.8604884,16.2988172 26.9796368,15.2655656" id="Fill-1" fill="#7C8CA5" mask="url(#mask-2)"></path>
                        </g>
                        <g id="Page-1"></g>
                        <text id="Advanced-Surpport" font-family="PingFangSC-Regular, PingFang SC" font-size="14" font-weight="normal" fill="#242B3A">
                            <tspan x="145" y="79">Advanced Surpport</tspan>
                        </text>
                    </g>
                </g>
                <g id="A-Copy" transform="translate(1098.000000, 263.000000) scale(-1, 1) translate(-1098.000000, -263.000000) translate(1027.000000, 158.000000)">
                    <g id="Group-15-Copy-5" transform="translate(17.000000, 0.000000)">
                        <ellipse id="Oval-6" fill="#333C4E" cx="95" cy="30" rx="30" ry="30"></ellipse>
                        <g id="Page-1" transform="translate(82.000000, 14.000000)" fill="#FFFFFF">
                            <path d="M12.9907865,24.478501 L13.2295506,24.478501 L13.2295506,23.1863426 L13.2888202,23.1863426 C16.0299719,22.9167386 16.2086236,21.0870356 16.2086236,20.548798 C16.2086236,18.826105 14.6597472,18.2878673 13.2295506,17.9105604 L13.1694382,17.9105604 L13.1694382,14.7347782 L13.2295506,14.7347782 C14.0044101,14.896402 14.6597472,15.2199267 15.1958427,15.7034119 L15.9105899,14.9503228 C15.1725281,14.2762436 14.2305337,13.8601248 13.2295506,13.7660059 L13.1694382,13.7660059 L13.1694382,12.4737089 L12.038118,12.4737089 L12.038118,13.7120851 L11.9780056,13.7120851 C10.1302528,13.8199267 8.93882022,14.8424812 8.93882022,16.2417881 C8.93882022,17.8573327 10.3090449,18.3417881 12.0372753,18.7721842 L12.0973876,18.7721842 L12.0973876,22.2714911 L12.0372753,22.2714911 C10.7264607,22.1097287 9.89148876,21.5175703 9.35623596,20.9793327 L8.64078652,21.7870356 C9.47561798,22.6479663 10.667191,23.1324218 11.9780056,23.1863426 L12.0372753,23.1863426 L12.0372753,24.4245802 L12.9907865,24.4245802 L12.9907865,24.478501 Z M13.2295506,19.0417881 L13.2888202,19.0417881 C14.1237921,19.3105604 15.017191,19.6870356 15.017191,20.6027188 C15.017191,20.9254119 14.897809,21.9479663 13.2888202,22.2175703 L13.2295506,22.2175703 L13.2295506,19.0417881 Z M12.0372753,17.5885604 C10.9059551,17.2651743 10.1903652,16.9417881 10.1903652,16.1347782 C10.1903652,15.2730158 10.964382,14.6808574 12.0372753,14.6269366 L12.0973876,14.6269366 L12.0973876,17.5878673 L12.0372753,17.5878673 L12.0372753,17.5885604 Z" id="Fill-1"></path>
                            <g id="Group-5" transform="translate(0.000000, 0.000832)">
                                <path d="M0,22.8551109 C0,24.2011901 0.0592696629,27.7535861 7.03188202,27.8075069 C12.752809,27.8614277 13.8849719,27.8614277 16.983427,27.8614277 L17.9369382,27.8614277 C24.8501404,27.8075069 24.9095506,24.2011901 24.9688202,22.8559426 C24.9688202,21.8856455 24.9095506,20.648101 23.7172753,17.7410911 C22.2869382,14.3496257 18.473736,10.5816851 17.2814607,9.50507129 C17.1620787,9.3972297 17.0435393,9.34330891 16.9241573,9.23546733 L16.6853933,9.02061584 L16.7455056,8.91291287 C17.0435393,9.12845743 17.3408708,9.23629901 17.6990169,9.23629901 C18.2349719,9.23629901 18.7710674,8.96683366 19.0098315,8.48237822 L19.0098315,8.42845743 L19.0691011,8.42845743 C21.2148876,8.80576436 22.4063202,9.4511505 22.644382,10.2589921 C22.7044944,10.5284574 22.9424157,10.6893881 23.2404494,10.6893881 L23.3598315,10.6893881 C23.6578652,10.6354673 23.895927,10.3120812 23.7772472,10.0433089 C23.4792135,8.91291287 22.3470506,8.10576436 20.3206461,7.62144752 L20.201264,7.62144752 L20.2613764,7.56752673 C20.9761236,6.97453663 21.452809,6.32928911 21.5129213,5.89875446 C21.572191,5.62928911 21.333427,5.35968515 21.036236,5.30576436 C20.7379213,5.26196238 20.4544944,5.44839802 20.3807584,5.73713069 C20.3206461,6.06051683 19.4865169,6.86752673 18.9497191,7.1902198 L18.8904494,7.13629901 L18.8311798,7.08237822 C18.5331461,6.70576436 18.1155899,6.49091287 17.6389045,6.49091287 C17.2214888,6.49091287 16.8047753,6.65267525 16.5660112,6.97536832 L16.4474719,6.92144752 C16.6261236,6.65198218 16.8047753,6.4902198 16.8640449,6.4902198 L17.102809,6.27453663 L17.1620787,6.22144752 C17.4008427,6.05968515 17.6389045,5.89806139 17.8776685,5.6832099 C19.2477528,4.71443762 20.4400281,3.85267525 20.7382022,3.09875446 C20.8567416,2.82998218 20.9168539,2.66835842 20.9168539,2.5612099 C21.036236,2.29174455 21.0955056,1.91443762 20.7373596,1.75350693 C20.6188202,1.64566535 20.4994382,1.53782376 20.201264,1.53782376 C19.9633427,1.53782376 19.784691,1.59174455 19.4865169,1.69958614 C19.0098315,1.8612099 18.3543539,2.02297228 17.8776685,1.8612099 C17.5195225,1.69958614 17.1620787,1.48390297 16.8047753,1.26905149 C16.1492978,0.837130693 15.3745787,0.353506931 14.3617978,0.299586139 C13.5268258,0.245665347 12.8713483,0.515130693 12.2160112,0.729982178 C11.6198034,0.945665347 11.0845506,1.1612099 10.3089888,1.1612099 C9.59424157,1.1612099 8.76011236,1.05350693 8.10477528,0.945665347 C7.44929775,0.891744554 6.9125,0.78390297 6.43567416,0.78390297 C6.25702247,0.78390297 6.07837079,0.78390297 6.01910112,0.837823762 C5.8997191,0.78390297 5.78033708,0.676061386 5.66095506,0.514437624 C5.54227528,0.353506931 5.42289326,0.137823762 5.06558989,0.137823762 C4.94620787,0.137823762 4.76741573,0.245665347 4.64803371,0.353506931 C4.46867978,0.569051485 4.46867978,0.569051485 4.82752809,1.64483366 L4.88679775,1.80659604 C4.88679775,1.86051683 4.88679775,1.91443762 4.94620787,1.96835842 L4.94620787,2.02227921 C5.18412921,3.15198218 5.54157303,3.95968515 6.07752809,4.49806139 C6.19775281,4.60576436 6.31629213,4.76752673 6.43651685,4.87536832 C6.97176966,5.46683366 7.74733146,6.32845743 8.10477528,7.18938812 L8.10477528,7.24330891 L8.04466292,7.24330891 C7.98539326,7.24330891 7.92598315,7.24330891 7.80660112,7.2972297 C7.6872191,7.2972297 7.56783708,7.3511505 7.50856742,7.3511505 C7.23342697,7.39273465 7.04438202,7.64653663 7.08651685,7.91808119 C7.08792135,7.92653663 7.08932584,7.93499208 7.09115169,7.94330891 C7.15126404,8.21291287 7.44929775,8.37453663 7.74662921,8.32061584 C7.86601124,8.32061584 7.92598315,8.26683366 8.04466292,8.26683366 C8.10477528,8.26683366 8.16404494,8.26683366 8.2241573,8.21291287 L8.28342697,8.21291287 L8.28342697,8.26683366 C8.28342697,8.58938812 8.22331461,8.8581604 8.04466292,9.12776436 C7.92598315,9.23546733 7.86601124,9.34330891 7.74662921,9.4511505 C4.82682584,11.7113881 2.62176966,14.5644772 1.31081461,17.7402594 C0.0592696629,20.7011901 0,21.8856455 0,22.8551109 L0,22.8551109 Z M7.6872191,4.98168515 C7.50786517,4.81992277 7.32991573,4.6581604 7.21123596,4.44330891 C7.09115169,4.33546733 6.97176966,4.22776436 6.85238764,4.06683366 C6.49578652,3.68938812 6.19691011,3.04414059 6.01910112,1.96752673 L6.01910112,1.91360594 L6.49494382,1.91360594 C6.85308989,1.91360594 7.44929775,1.96752673 7.98539326,2.07536832 C8.7,2.1832099 9.53497191,2.2902198 10.3089888,2.2902198 L10.3691011,2.2902198 C11.2625,2.2902198 11.9779494,2.02061584 12.633427,1.75198218 C13.2294944,1.53629901 13.7063202,1.32061584 14.3016854,1.37453663 C15.0171348,1.42845743 15.6125,1.80576436 16.2087079,2.1832099 C16.6261236,2.45198218 16.983427,2.72061584 17.4602528,2.88237822 C18.2950843,3.09806139 19.3671348,2.82845743 19.665309,2.72061584 L19.784691,2.66683366 L19.7245787,2.82845743 C19.545927,3.25968515 18.7117978,3.90507129 17.1620787,5.03546733 C16.983427,5.1972297 16.7455056,5.30507129 16.5660112,5.46683366 C16.3873596,5.57453663 16.2679775,5.68168515 16.2087079,5.73546733 L16.1492978,5.78938812 C15.9113764,5.9511505 15.4939607,6.27384356 15.2551966,6.91992277 L15.2551966,6.97384356 L15.1957865,6.97384356 C13.4675562,6.7042396 11.381882,6.7581604 9.2369382,7.08168515 L9.17682584,7.08168515 L9.17682584,7.02776436 C8.81938202,6.11208119 8.2241573,5.52061584 7.6872191,4.98168515 L7.6872191,4.98168515 Z M2.32359551,18.0636455 C3.5752809,15.0487941 5.66095506,12.3574673 8.46207865,10.2042396 C8.64073034,10.0965366 8.81938202,9.88085347 8.9380618,9.6651703 C8.9380618,9.6651703 8.9380618,9.61208119 8.99817416,9.61208119 C9.2369382,9.12693267 9.41558989,8.58938812 9.35632022,8.0511505 L9.35632022,7.9972297 L9.41558989,7.9972297 C11.4419944,7.72776436 13.3481742,7.67384356 15.0171348,7.94330891 L15.0764045,7.94330891 L15.0764045,8.10507129 C15.1365169,8.91208119 15.4939607,9.23546733 15.9113764,9.61208119 L16.2087079,9.88168515 L16.2679775,9.93546733 C16.3873596,10.0433089 16.5067416,10.0965366 16.5660112,10.2042396 C17.4602528,11.0120812 21.3935393,14.8339426 22.7044944,18.0636455 C23.8366573,20.8629525 23.9560393,21.9394277 23.895927,22.8542792 C23.895927,24.200497 23.8366573,26.7302 17.9369382,26.7839822 L13.5869382,26.7839822 C12.2160112,26.7839822 10.3691011,26.7839822 7.03188202,26.7302 C1.13216292,26.6762792 1.13216292,24.1465762 1.07289326,22.8542792 C1.07289326,21.9933485 1.13216292,20.8629525 2.32359551,18.0636455 Z" id="Fill-3"></path>
                            </g>
                        </g>
                        <text id="Financial" transform="translate(28.500000, 29.000000) scale(-1, 1) translate(-28.500000, -29.000000) " font-family="PingFangSC-Light, PingFang SC" font-size="14" font-weight="300" fill="#2C2F39">
                            <tspan x="0" y="34">Financial</tspan>
                        </text>
                    </g>
                    <g id="Group-15-Copy-6" transform="translate(0.000000, 150.000000)">
                        <ellipse id="Oval-6" fill="#333C4E" cx="112" cy="30" rx="30" ry="30"></ellipse>
                        <g id="Page-1" transform="translate(99.000000, 17.000000)" fill="#FFFFFF">
                            <path d="M4.99996158,4.43615819 L4.41239096,5.02372881 L2.15024407,2.73220339 L2.73781469,2.14463277 L4.99996158,4.43615819 Z M24.4485492,24.4723164 C24.1841424,24.7367232 23.8316,24.8836158 23.4790576,24.8836158 C23.1265153,24.8836158 22.7739729,24.7367232 22.5095661,24.4723164 L17.4564588,19.419209 L19.3954418,17.480226 L24.4485492,22.5333333 C24.9773627,23.0621469 24.9773627,23.9435028 24.4485492,24.4723164 Z M8.78979209,18.8316384 C9.43611977,20.359322 9.11295593,22.0926554 7.93781469,23.2677966 C7.17397288,24.0316384 6.17510282,24.4429379 5.11747571,24.4429379 C4.85306893,24.4429379 4.58866215,24.4135593 4.3536339,24.3548023 L5.70504633,23.0033898 L5.73442486,19.7423729 L2.5615435,19.7717514 L1.18075254,21.2112994 C0.916345763,19.8892655 1.29826667,18.5672316 2.26775819,17.5977401 C3.0316,16.8338983 4.03047006,16.4225989 5.08809718,16.4225989 C5.64628927,16.4225989 6.17510282,16.540113 6.67453785,16.7457627 L7.02708023,16.8926554 L16.8101311,7.08022599 L16.8395096,7.05084746 L16.6926169,6.69830508 C16.0462893,5.17062147 16.3694531,3.43728814 17.5445944,2.26214689 C18.3084362,1.49830508 19.3073062,1.08700565 20.3649333,1.08700565 C20.6293401,1.08700565 20.8937469,1.11638418 21.1581537,1.17514124 L19.7773627,2.5559322 L19.7479842,5.72881356 L23.0090011,5.69943503 L24.3604136,4.3480226 C24.6248203,5.6700565 24.2135209,6.9920904 23.2734079,7.96158192 C22.5095661,8.72542373 21.510696,9.13672316 20.4530689,9.13672316 C19.8948768,9.13672316 19.3660633,9.01920904 18.8666282,8.81355932 L18.5140859,8.66666667 L8.67227797,18.479096 L8.64289944,18.5084746 L8.78979209,18.8316384 Z M25.212391,21.740113 L20.1592836,16.6870056 L20.8349898,16.0112994 L20.0417695,15.2180791 L18.0146508,17.2745763 L14.7242554,13.9548023 L18.7197356,9.95932203 C19.2485492,10.1355932 19.8361198,10.2531073 20.3943119,10.2531073 C21.7751028,10.2531073 23.0383797,9.72429379 24.0078712,8.75480226 C25.5061763,7.25649718 25.9174757,5.05310734 25.0948768,3.08474576 L24.771713,2.32090395 L22.5389446,4.58305085 L20.8937469,4.61242938 L20.9231254,3.0259887 L23.2146508,0.734463277 L22.4801876,0.411299435 C21.8338599,0.117514124 21.1581537,0 20.4530689,0 C19.072278,0 17.8090011,0.528813559 16.8395096,1.49830508 C15.4293401,2.90847458 14.9592836,4.93559322 15.6349898,6.81581921 L11.5807525,10.8112994 L5.88131751,5.11186441 L6.55702373,4.43615819 L2.73781469,0.587570621 L0.593181921,2.73220339 L4.44176949,6.58079096 L5.11747571,5.90508475 L10.7875322,11.6045198 L6.79205198,15.6 C6.26323842,15.4237288 5.6756678,15.3062147 5.11747571,15.3062147 C3.73668475,15.3062147 2.47340791,15.8350282 1.50391638,16.8045198 C0.00561129943,18.3028249 -0.405688136,20.5355932 0.416910734,22.4745763 L0.740074576,23.2090395 L3.0316,20.9175141 L4.61804068,20.8881356 L4.58866215,22.5627119 L2.35589379,24.8248588 L3.11973559,25.1480226 C3.76606328,25.4124294 4.44176949,25.559322 5.14685424,25.559322 C6.5276452,25.559322 7.79092203,25.0305085 8.76041356,24.0610169 C10.1705831,22.6508475 10.6406395,20.6237288 9.96493333,18.7728814 L13.9604136,14.7480226 L17.250809,18.0384181 L15.2236904,20.0949153 L16.0169107,20.8881356 L16.6926169,20.2124294 L21.7457243,25.2655367 C22.2157808,25.7355932 22.8327299,26 23.5084362,26 C24.1841424,26 24.8010915,25.7355932 25.271148,25.2655367 C26.1818825,24.2960452 26.1818825,22.7096045 25.212391,21.740113 L25.212391,21.740113 Z" id="Fill-1"></path>
                        </g>
                        <text id="Technology" transform="translate(37.000000, 29.000000) scale(-1, 1) translate(-37.000000, -29.000000) " font-family="PingFangSC-Light, PingFang SC" font-size="14" font-weight="300" fill="#2C2F39">
                            <tspan x="0" y="34">Technology</tspan>
                        </text>
                    </g>
                    <g id="Group-15-Copy-3" transform="translate(34.000000, 79.000000)">
                        <ellipse id="Oval-6" fill="#333C4E" cx="78" cy="30" rx="30" ry="30"></ellipse>
                        <g id="Page-1" transform="translate(62.000000, 17.000000)" fill="#FFFFFF">
                            <path d="M1.9251,13.3047407 C2.25215,13.3047407 2.51875,13.5676667 2.51875,13.890679 C2.51875,14.2136914 2.25215,14.4766173 1.9251,14.4766173 C1.59805,14.4766173 1.33145,14.2136914 1.33145,13.890679 C1.33145,13.5676667 1.5976625,13.3047407 1.9251,13.3047407 M3.8502,13.890679 C3.8502,12.8424198 2.9864625,11.988963 1.9251,11.988963 C0.8637375,11.988963 0,12.842037 0,13.890679 C0,14.7070123 0.526225,15.398963 1.259375,15.6680123 L1.259375,30.1679753 C1.259375,30.5311728 1.5573625,30.8258642 1.9251,30.8258642 C2.2928375,30.8258642 2.590825,30.5311728 2.590825,30.1679753 L2.590825,15.6680123 C3.3235875,15.398963 3.8502,14.7070123 3.8502,13.890679 M15.6336875,23.5718642 L7.3194875,17.9780864 C6.9498125,17.729321 6.9498125,17.1916049 7.3194875,16.9428395 L8.66915,16.0346543 C8.77765,15.9615556 8.9206375,15.9615556 9.0291375,16.0346543 L15.6336875,20.4779877 C15.8491375,20.623037 16.1324,20.623037 16.34785,20.4779877 L22.9520125,16.0346543 C23.0605125,15.9615556 23.2035,15.9615556 23.312,16.0346543 L24.66205,16.9428395 C25.031725,17.1916049 25.031725,17.7297037 24.66205,17.9780864 L16.34785,23.5718642 C16.1324,23.7165309 15.8491375,23.7165309 15.6336875,23.5718642 M16.3474625,1.70002469 L28.2689,9.72022222 C28.638575,9.96898765 28.638575,10.5070864 28.2689,10.7554691 L16.3474625,18.7760494 C16.1320125,18.9210988 15.84875,18.9210988 15.6333,18.7760494 L3.7118625,10.7558519 C3.3421875,10.5070864 3.3421875,9.96898765 3.7118625,9.72060494 L15.6336875,1.70002469 C15.8491375,1.55535802 16.1324,1.55535802 16.3474625,1.70002469 M30.634975,9.72060494 L16.34785,0.108691358 C16.1324,-0.0363580247 15.8491375,-0.0363580247 15.6336875,0.108691358 L1.346175,9.72060494 C0.9765,9.96937037 0.9765,10.5074691 1.346175,10.7558519 L7.3605625,14.8019259 C7.54695,14.9270741 7.54695,15.1984198 7.3605625,15.3235679 L4.9538,16.9428395 C4.584125,17.1916049 4.584125,17.7297037 4.9538,17.9780864 L15.6336875,25.1631975 C15.8491375,25.3082469 16.1324,25.3082469 16.34785,25.1631975 L27.0277375,17.9780864 C27.3974125,17.729321 27.3974125,17.1912222 27.0277375,16.9428395 L24.620975,15.3235679 C24.4345875,15.1984198 24.4345875,14.9270741 24.620975,14.8019259 L30.634975,10.7558519 C31.0042625,10.5070864 31.0042625,9.96898765 30.634975,9.72060494" id="Fill-1"></path>
                        </g>
                        <text id="Talent" transform="translate(20.000000, 31.000000) scale(-1, 1) translate(-20.000000, -31.000000) " font-family="PingFangSC-Light, PingFang SC" font-size="14" font-weight="300" fill="#2C2F39">
                            <tspan x="0" y="36">Talent</tspan>
                        </text>
                    </g>
                </g>
                <g id="Group-15-Copy-4" transform="translate(330.000000, 397.000000)">
                    <circle id="Oval-6" stroke="#C2CFD3" fill="#FFFFFF" cx="36" cy="59" r="30"></circle>
                    <path d="M23.3125798,65.0819853 L49.68759,65.0819853 L49.68759,48.2476237 L23.3125798,48.2476237 L23.3125798,65.0819853 Z M50.030504,46.9350439 L22.969496,46.9350439 C22.4340748,46.9350439 22,47.3903386 22,47.9522423 L22,65.3773667 C22,65.9391006 22.4340748,66.3945651 22.969496,66.3945651 L35.8437101,66.3945651 L35.8437101,71.1008052 L28.4189428,71.1008052 C27.5440028,71.1008052 26.834748,71.81006 26.834748,72.685 L46.2319675,72.685 C46.2319675,71.81006 45.5227126,71.1008052 44.6477726,71.1008052 L37.1562899,71.1008052 L37.1562899,66.3945651 L50.030504,66.3945651 C50.5659252,66.3945651 51,65.9391006 51,65.3773667 L51,47.9522423 C51,47.3903386 50.5659252,46.9350439 50.030504,46.9350439 Z" id="Page-1" fill="#7C8CA5"></path>
                    <text id="Alpha-Floor" font-family="PingFangSC-Regular, PingFang SC" font-size="14" font-weight="normal" fill="#242B3A">
                        <tspan x="0" y="15">Alpha Floor</tspan>
                    </text>
                </g>
                <g id="Group-17" transform="translate(366.500000, 487.000000) scale(1, -1) translate(-366.500000, -487.000000) translate(320.000000, 467.000000)" stroke="#BED1D6" fill="#FFFFFF">
                    <circle id="Oval-6" cx="4" cy="36" r="4"></circle>
                    <circle id="Oval-6" cx="48" cy="4" r="4"></circle>
                    <circle id="Oval-6" cx="89" cy="36" r="4"></circle>
                </g>
                <g id="AAA" transform="translate(259.000000, 461.000000)">
                    <text id="Professor" opacity="0.699999988" font-family="PingFangSC-Light, PingFang SC" font-size="12" font-weight="300" fill="#2C2F39">
                        <tspan x="0" y="13">Professor</tspan>
                    </text>
                    <text id="TeamWork" opacity="0.699999988" font-family="PingFangSC-Light, PingFang SC" font-size="12" font-weight="300" fill="#2C2F39">
                        <tspan x="77" y="66">TeamWork</tspan>
                    </text>
                    <text id="Trading-Equipment" opacity="0.699999988" font-family="PingFangSC-Light, PingFang SC" font-size="12" font-weight="300" fill="#2C2F39">
                        <tspan x="164" y="13">Trading Equipment</tspan>
                    </text>
                    <path d="M108.5,24.5 L108.5,37.5" id="Line" stroke="#C1D4D8" stroke-linecap="square" stroke-dasharray="2"></path>
                    <path d="M135.5,8.5 L146.5,4.5" id="Line" stroke="#C2CFD3" stroke-linecap="square" stroke-dasharray="2" transform="translate(141.000000, 6.500000) scale(1, -1) translate(-141.000000, -6.500000) "></path>
                    <path d="M68.5,8.5 L79.5,4.5" id="Line" stroke="#C2CFD3" stroke-linecap="square" stroke-dasharray="2" transform="translate(74.000000, 6.500000) scale(-1, -1) translate(-74.000000, -6.500000) "></path>
                </g>
                <g id="AAA" transform="translate(213.000000, 0.000000)">
                    <text id="Data-Management" opacity="0.699999988" font-family="PingFangSC-Light, PingFang SC" font-size="12" font-weight="300" fill="#2C2F39">
                        <tspan x="0" y="64">Data Management</tspan>
                    </text>
                    <text id="Learning-System" opacity="0.699999988" font-family="PingFangSC-Light, PingFang SC" font-size="12" font-weight="300" fill="#2C2F39">
                        <tspan x="109" y="13">Learning System</tspan>
                    </text>
                    <text id="Community" opacity="0.699999988" font-family="PingFangSC-Light, PingFang SC" font-size="12" font-weight="300" fill="#2C2F39">
                        <tspan x="205" y="64">Community</tspan>
                    </text>
                    <path d="M154.5,33.5 L154.5,46.5" id="Line" stroke="#C1D4D8" stroke-linecap="square" stroke-dasharray="2"></path>
                    <path d="M181.5,64.5 L192.5,60.5" id="Line" stroke="#C2CFD3" stroke-linecap="square" stroke-dasharray="2"></path>
                    <path d="M114.5,64.5 L125.5,60.5" id="Line" stroke="#C2CFD3" stroke-linecap="square" stroke-dasharray="2" transform="translate(120.000000, 62.500000) scale(-1, 1) translate(-120.000000, -62.500000) "></path>
                </g>
            </g>
        </g>
    </g>
</svg>