<?xml version="1.0" encoding="UTF-8"?>
<svg width="73px" height="73px" viewBox="0 0 73 73" version="1.1" xmlns="http://www.w3.org/2000/svg" xmlns:xlink="http://www.w3.org/1999/xlink">
    <!-- Generator: Sketch 43.1 (39012) - http://www.bohemiancoding.com/sketch -->
    <title>trader_professonal_slice</title>
    <desc>Created with Sketch.</desc>
    <defs>
        <linearGradient x1="50%" y1="0%" x2="50%" y2="100%" id="linearGradient-1">
            <stop stop-color="#6B757E" offset="3.31034758%"></stop>
            <stop stop-color="#41505D" offset="98.6168686%"></stop>
        </linearGradient>
        <linearGradient x1="50%" y1="0%" x2="50%" y2="100%" id="linearGradient-2">
            <stop stop-color="#D5E0E3" offset="0%"></stop>
            <stop stop-color="#A4B3B7" offset="100%"></stop>
        </linearGradient>
    </defs>
    <g id="官网" stroke="none" stroke-width="1" fill="none" fill-rule="evenodd">
        <g id="Artboard" transform="translate(-112.000000, -219.000000)">
            <g id="trader_professonal" transform="translate(120.000000, 227.000000)">
                <g id="Group-18" transform="translate(0.615385, -5.000000)">
                    <path d="M15.1816784,20.093202 C19.233432,32.3983548 30.5206267,32.3768749 34.5616404,20.093202 C35.8957259,19.3909042 37.2662338,17.3124952 37.4945739,15.5936402 C37.7313192,13.796337 37.5888985,11.4041353 35.774785,11.4041353 C35.3820773,5.63586148 32.2123984,0.756666659 25.0236527,0.756666659 C17.9936711,0.756666659 14.4116725,4.98679642 13.9699346,11.4041353 C12.157222,11.4041353 12.0134004,13.796337 12.2501457,15.5936402 C12.4789528,17.3124952 13.8485268,19.3909042 15.1816784,20.093202" id="Fill-1" fill="url(#linearGradient-1)"></path>
                    <g id="Group-5" transform="translate(0.000000, 28.410646)">
                        <path d="M39.0026462,1.66522358 L34.4180989,0.709837175 L24.8717061,19.731179 L15.3248463,0.709837175 L10.7421668,1.66522358 C4.47238512,2.97502753 -9.33906557e-05,8.29129062 -9.33906557e-05,14.4387305 L-9.33906557e-05,27.4139613 L49.7537785,27.4139613 L49.7537785,14.4387305 C49.7537785,8.29129062 45.2724279,2.97502753 39.0026462,1.66522358" id="Fill-3" fill="url(#linearGradient-1)"></path>
                        <path d="M43.8717949,28.6695157 C36.8447188,28.6695157 31.1481481,22.972945 31.1481481,15.9458689 C31.1481481,8.9187929 36.8447188,3.22222222 43.8717949,3.22222222 C50.8988709,3.22222222 56.5954416,8.9187929 56.5954416,15.9458689 C56.5954416,22.972945 50.8988709,28.6695157 43.8717949,28.6695157 Z M46.8865613,10.6443495 L44.1213353,16.6686402 L41.3454293,10.6443495 L38.5702754,10.6443495 L44.0989223,22.1091392 L49.6723953,10.6443495 L46.8865613,10.6443495 Z" id="Combined-Shape" fill="url(#linearGradient-2)"></path>
                    </g>
                </g>
            </g>
        </g>
    </g>
</svg>