<?xml version="1.0" encoding="UTF-8"?>
<svg width="48px" height="42px" viewBox="0 0 48 42" version="1.1" xmlns="http://www.w3.org/2000/svg" xmlns:xlink="http://www.w3.org/1999/xlink">
    <!-- Generator: Sketch 43.1 (39012) - http://www.bohemiancoding.com/sketch -->
    <title>floor_facility_print</title>
    <desc>Created with Sketch.</desc>
    <defs></defs>
    <g id="官网" stroke="none" stroke-width="1" fill="none" fill-rule="evenodd">
        <g id="Zone-Details" transform="translate(-744.000000, -834.000000)" fill="#242B3A">
            <g id="Equip" transform="translate(326.000000, 742.000000)">
                <g id="floor_facility_print" transform="translate(418.000000, 92.000000)">
                    <path d="M39.8229873,26 L39.8226835,26 L7.21458228,26 L7.21427848,26 C6.54349367,26 6,26.5377075 6,27.2006798 C6,27.8639526 6.54349367,28.4016601 7.21427848,28.4016601 L39.8229873,28.4016601 C40.4937722,28.4016601 41.0372658,27.8639526 41.0372658,27.2006798 C41.0372658,26.5377075 40.4937722,26 39.8229873,26" id="Fill-1"></path>
                    <path d="M29.3350886,6 L29.3347848,6 L18.2148861,6 L18.2145823,6 C17.5437975,6 17,6.53770751 17,7.20067984 C17,7.86395257 17.5437975,8.40166008 18.2145823,8.40166008 L29.3350886,8.40166008 C30.0058734,8.40166008 30.5493671,7.86395257 30.5493671,7.20067984 C30.5493671,6.53770751 30.0058734,6 29.3350886,6" id="Fill-3"></path>
                    <path d="M29.3350886,10 L29.3347848,10 L18.2148861,10 L18.2145823,10 C17.5437975,10 17,10.5377075 17,11.2006798 C17,11.8639526 17.5437975,12.4016601 18.2145823,12.4016601 L29.3350886,12.4016601 C30.0058734,12.4016601 30.5493671,11.8639526 30.5493671,11.2006798 C30.5493671,10.5377075 30.0058734,10 29.3350886,10" id="Fill-5"></path>
                    <g id="Group-9" transform="translate(0.000000, 0.108443)">
                        <path d="M45.3168608,31.0422451 C45.3168608,32.0828142 44.4747342,32.9296285 43.44,32.9296285 L37.6344304,32.9296285 L37.5806582,32.9296285 C37.2531646,30.8983557 35.4574177,29.3399051 33.2971139,29.3399051 L14.6126582,29.3399051 C12.4523544,29.3399051 10.6563038,30.8983557 10.3288101,32.9296285 L10.275038,32.9296285 L4.30572152,32.9296285 C3.27068354,32.9296285 2.42855696,32.0828142 2.42855696,31.0422451 L2.42855696,18.6905929 C2.42855696,17.6500237 3.27068354,16.8032095 4.30572152,16.8032095 L10.275038,16.8032095 L12.7038987,16.8032095 L35.2058734,16.8032095 L37.6347342,16.8032095 L43.44,16.8032095 C44.475038,16.8032095 45.3168608,17.6500237 45.3168608,18.6905929 L45.3168608,31.0422451 Z M35.2058734,36.7046957 C35.2058734,37.7281423 34.3494684,38.5605375 33.2971139,38.5605375 L14.6126582,38.5605375 C13.56,38.5605375 12.7035949,37.7281423 12.7035949,36.7046957 L12.7035949,35.3312885 L12.7035949,34.9711146 L12.7035949,33.5974071 C12.7035949,32.5739605 13.56,31.7415652 14.6126582,31.7415652 L33.2971139,31.7415652 C34.3494684,31.7415652 35.2058734,32.5739605 35.2058734,33.5974071 L35.2058734,34.9711146 L35.2058734,35.3312885 L35.2058734,36.7046957 Z M12.7035949,4.25750198 C12.7035949,3.23435573 13.56,2.40166008 14.6126582,2.40166008 L33.2971139,2.40166008 C34.3494684,2.40166008 35.2058734,3.23435573 35.2058734,4.25750198 L35.2058734,14.4015494 L12.7035949,14.4015494 L12.7035949,4.25750198 Z M43.44,14.4015494 L37.6344304,14.4015494 L37.6344304,4.25750198 C37.6344304,1.90991304 35.6886076,0 33.2971139,0 L14.6126582,0 C12.2208608,0 10.275038,1.91021344 10.275038,4.25750198 L10.275038,14.4015494 L4.30541772,14.4015494 C1.93124051,14.4015494 0,16.325581 0,18.6905929 L0,31.0422451 C0,33.4072569 1.93124051,35.3312885 4.30541772,35.3312885 L10.275038,35.3312885 L10.275038,36.7046957 C10.275038,39.0522846 12.2208608,40.9621976 14.6126582,40.9621976 L33.2971139,40.9621976 C35.6889114,40.9621976 37.6347342,39.0522846 37.6347342,36.7046957 L37.6347342,35.3312885 L43.44,35.3312885 C45.8141772,35.3312885 47.7457215,33.4072569 47.7457215,31.0422451 L47.7457215,18.6905929 C47.7457215,16.325581 45.8141772,14.4015494 43.44,14.4015494 L43.44,14.4015494 Z" id="Fill-7"></path>
                    </g>
                </g>
            </g>
        </g>
    </g>
</svg>