<?xml version="1.0" encoding="UTF-8"?>
<svg width="86px" height="89px" viewBox="0 0 86 89" version="1.1" xmlns="http://www.w3.org/2000/svg" xmlns:xlink="http://www.w3.org/1999/xlink">
    <!-- Generator: Sketch 43.1 (39012) - http://www.bohemiancoding.com/sketch -->
    <title>index_analysis</title>
    <desc>Created with Sketch.</desc>
    <defs>
        <filter x="-6.5%" y="-5.4%" width="109.1%" height="120.6%" filterUnits="objectBoundingBox" id="filter-1">
            <feOffset dx="0" dy="2" in="SourceAlpha" result="shadowOffsetOuter1"></feOffset>
            <feGaussianBlur stdDeviation="10" in="shadowOffsetOuter1" result="shadowBlurOuter1"></feGaussianBlur>
            <feColorMatrix values="0 0 0 0 0.2   0 0 0 0 0.258823529   0 0 0 0 0.309803922  0 0 0 0.0472429801 0" type="matrix" in="shadowBlurOuter1" result="shadowMatrixOuter1"></feColorMatrix>
            <feMerge>
                <feMergeNode in="shadowMatrixOuter1"></feMergeNode>
                <feMergeNode in="SourceGraphic"></feMergeNode>
            </feMerge>
        </filter>
        <polygon id="path-2" points="0.217261905 0.106547619 3.80654762 0.106547619 3.80654762 7.8828869 0.217261905 7.8828869 0.217261905 0.106547619"></polygon>
        <polygon id="path-4" points="6.05346213e-17 3.74294643 6.05346213e-17 0.153660714 7.77636905 0.153660714 7.77636905 3.74294643 0 3.74294643"></polygon>
    </defs>
    <g id="官网" stroke="none" stroke-width="1" fill="none" fill-rule="evenodd">
        <g id="index" transform="translate(-829.000000, -1298.000000)">
            <g id="B" filter="url(#filter-1)" transform="translate(135.000000, 1292.000000)">
                <g id="A" transform="translate(586.000000, 0.000000)">
                    <g id="index_analysis" transform="translate(126.000000, 21.000000)">
                        <path d="M24.9285714,35.8777381 C18.9616071,35.8777381 14.1068452,31.0229762 14.1068452,25.0560119 C14.1068452,19.0893452 18.9616071,14.2354762 24.9285714,14.2354762 C30.8955357,14.2354762 35.7494048,19.0893452 35.7494048,25.0560119 C35.7494048,31.0229762 30.8955357,35.8777381 24.9285714,35.8777381 M24.9285714,10.6458929 C16.9821429,10.6458929 10.5175595,17.1104762 10.5175595,25.0560119 C10.5175595,33.0024405 16.9821429,39.4670238 24.9285714,39.4670238 C32.8741071,39.4670238 39.3386905,33.0024405 39.3386905,25.0560119 C39.3386905,17.1104762 32.8741071,10.6458929 24.9285714,10.6458929" id="Fill-1" fill="#FFFFFF"></path>
                        <g id="Group-5" transform="translate(22.916667, 0.191071)">
                            <mask id="mask-3" fill="white">
                                <use xlink:href="#path-2"></use>
                            </mask>
                            <g id="Clip-4"></g>
                            <path d="M2.01190476,7.8828869 C3.00297619,7.8828869 3.80654762,7.07931548 3.80654762,6.08824405 L3.80654762,1.90104167 C3.80654762,0.909970238 3.00297619,0.10639881 2.01190476,0.10639881 C1.02083333,0.10639881 0.217261905,0.909970238 0.217261905,1.90104167 L0.217261905,6.08824405 C0.217261905,7.07931548 1.02083333,7.8828869 2.01190476,7.8828869" id="Fill-3" fill="#FFFFFF" mask="url(#mask-3)"></path>
                        </g>
                        <path d="M12.7784821,13.1004762 C13.4796726,12.3992857 13.4796726,11.263869 12.7784821,10.5626786 L9.81747024,7.60166667 C9.11627976,6.90047619 7.98056548,6.90047619 7.27967262,7.60166667 C6.57848214,8.30255952 6.57848214,9.43827381 7.27967262,10.1394643 L10.2406845,13.1004762 C10.5912798,13.4510714 11.050506,13.626369 11.5094345,13.626369 C11.9686607,13.626369 12.4278869,13.4510714 12.7784821,13.1004762" id="Fill-6" fill="#FFFFFF"></path>
                        <path d="M42.5767262,7.60160714 C41.8755357,6.90041667 40.740119,6.90041667 40.0389286,7.60160714 L37.0779167,10.562619 C36.3767262,11.2638095 36.3767262,12.3995238 37.0779167,13.1004167 C37.4285119,13.4510119 37.8874405,13.6263095 38.3466667,13.6263095 C38.8058929,13.6263095 39.265119,13.4510119 39.6157143,13.1004167 L42.5767262,10.1394048 C43.2779167,9.43821429 43.2779167,8.30279762 42.5767262,7.60160714" id="Fill-8" fill="#FFFFFF"></path>
                        <g id="Group-12" transform="translate(0.000000, 23.107738)">
                            <mask id="mask-5" fill="white">
                                <use xlink:href="#path-4"></use>
                            </mask>
                            <g id="Clip-11"></g>
                            <path d="M5.98172619,0.153660714 L1.79482143,0.153660714 C0.803452381,0.153660714 -0.000119047619,0.957232143 -0.000119047619,1.94830357 C-0.000119047619,2.939375 0.803452381,3.74294643 1.79482143,3.74294643 L5.98172619,3.74294643 C6.97279762,3.74294643 7.77636905,2.939375 7.77636905,1.94830357 C7.77636905,0.957232143 6.97279762,0.153660714 5.98172619,0.153660714" id="Fill-10" fill="#FFFFFF" mask="url(#mask-5)"></path>
                        </g>
                        <path d="M48.0615774,23.2613988 L43.8746726,23.2613988 C42.8833036,23.2613988 42.0797321,24.0649702 42.0797321,25.0560417 C42.0797321,26.0471131 42.8833036,26.8506845 43.8746726,26.8506845 L48.0615774,26.8506845 C49.0526488,26.8506845 49.8562202,26.0471131 49.8562202,25.0560417 C49.8562202,24.0649702 49.0526488,23.2613988 48.0615774,23.2613988" id="Fill-13" fill="#FFFFFF"></path>
                        <path d="M30.8428274,42.0154167 L19.014256,42.0154167 C18.0231845,42.0154167 17.2196131,42.8189881 17.2196131,43.8100595 C17.2196131,44.801131 18.0231845,45.6047024 19.014256,45.6047024 L30.8428274,45.6047024 C31.8338988,45.6047024 32.6374702,44.801131 32.6374702,43.8100595 C32.6374702,42.8189881 31.8338988,42.0154167 30.8428274,42.0154167" id="Fill-15" fill="#FFFFFF"></path>
                        <path d="M29.013125,48.6850595 L20.8431845,48.6850595 C19.8521131,48.6850595 19.0485417,49.488631 19.0485417,50.4797024 C19.0485417,51.4707738 19.8521131,52.2743452 20.8431845,52.2743452 L29.013125,52.2743452 C30.0041964,52.2743452 30.8077679,51.4707738 30.8077679,50.4797024 C30.8077679,49.488631 30.0041964,48.6850595 29.013125,48.6850595" id="Fill-17" fill="#FFFFFF"></path>
                    </g>
                </g>
            </g>
        </g>
    </g>
</svg>