<?xml version="1.0" encoding="UTF-8"?>
<svg width="51px" height="50px" viewBox="0 0 51 50" version="1.1" xmlns="http://www.w3.org/2000/svg" xmlns:xlink="http://www.w3.org/1999/xlink">
    <!-- Generator: Sketch 43.1 (39012) - http://www.bohemiancoding.com/sketch -->
    <title>index_ecology</title>
    <desc>Created with Sketch.</desc>
    <defs></defs>
    <g id="官网" stroke="none" stroke-width="1" fill="none" fill-rule="evenodd">
        <g id="index" transform="translate(-1126.000000, -712.000000)" fill="#FFFFFF">
            <g id="Proir" transform="translate(0.000000, 677.000000)">
                <g id="Group" transform="translate(1079.692308, 0.000000)">
                    <g id="Click-Me-Copy-2" transform="translate(47.692308, 30.846774)">
                        <g id="index_ecology" transform="translate(0.000000, 4.935484)">
                            <path d="M39.5450692,39.1667041 C42.1251465,36.5784702 38.0615453,27.7119699 30.0597576,19.6902921 C22.058245,11.6664085 13.2140335,7.59284213 10.632306,10.181076 C8.05057843,12.7676556 12.1139046,21.6358102 20.1176175,29.657488 C28.1191302,37.6794415 36.9630666,41.7552137 39.5450692,39.1667041 Z M40.7585114,40.3851344 C37.1781418,43.9748028 27.5399123,39.5356246 18.9022501,30.8759184 C10.2643128,22.2181422 5.83464375,12.5523141 9.41693855,8.9626457 C12.9975832,5.37132294 22.639113,9.81243125 31.2751251,18.4718618 C39.9127873,27.129638 44.3408062,36.7938117 40.7604366,40.3851344 L40.7585114,40.3851344 Z" id="Fill-1"></path>
                            <path d="M10.632306,39.1667041 C13.2123833,41.7532837 22.058245,37.6794415 30.0600327,29.657488 C38.0615453,21.6358102 42.1270718,12.7695857 39.5450692,10.181076 C36.9633416,7.59284213 28.1191302,11.6664085 20.1176175,19.6902921 C12.1141796,27.7119699 8.05057843,36.5784702 10.632306,39.1667041 M9.41693855,40.3851344 C5.83464375,36.7938117 10.2645879,27.129638 18.9022501,18.4718618 C27.5382621,9.81050117 37.1781418,5.37132294 40.7587864,8.9626457 C44.339156,12.5523141 39.9111371,22.2181422 31.2734749,30.8759184 C22.6410382,39.537279 12.9975832,43.9748028 9.41693855,40.3851344" id="Fill-3"></path>
                            <path d="M23.5570606,48.6153433 L25.276012,48.6153433 L25.276012,28.5632168 L23.5570606,28.5632168 L23.5570606,48.6153433 Z M23.6293941,21.0808578 L25.3483455,21.0808578 L25.3483455,3.2535592 L23.6293941,3.2535592 L23.6293941,21.0808578 Z" id="Fill-5"></path>
                            <path d="M28.8893855,25.604408 L45.4411001,25.604408 L45.4411001,23.8811245 L28.8893855,23.8811245 L28.8893855,25.604408 Z M4.14501074,23.7294756 L20.7913365,23.7294756 L20.7913365,25.4527591 L4.14666094,25.4527591 L4.14501074,23.7294756 Z M24.5317748,49.1841647 C21.8782639,49.1844404 19.7269618,47.0282682 19.7266867,44.3680699 C19.7264117,41.7081474 21.8771637,39.5514237 24.5306747,39.5508722 L24.5317748,39.5508722 C27.1852858,39.5514237 29.3360378,41.7081474 29.3357628,44.3680699 C29.3352127,47.0277167 27.1847357,49.183889 24.5317748,49.1841647 L24.5317748,49.1841647 Z M24.5317748,9.63301676 C21.8782639,9.63329249 19.7269618,7.4771202 19.7266867,4.81719769 C19.7264117,2.15699946 21.8771637,0.000275725356 24.5306747,0 L24.5317748,0 C27.1852858,0.000275725356 29.3360378,2.15699946 29.3357628,4.81719769 C29.3352127,7.47684448 27.1847357,9.63274103 24.5317748,9.63301676 L24.5317748,9.63301676 Z" id="Fill-7"></path>
                            <path d="M24.5317473,27.6844801 C26.235847,27.6844801 27.6173339,26.2995116 27.6173339,24.5911173 C27.6173339,22.882723 26.235847,21.4980303 24.5317473,21.4980303 C22.8276476,21.4980303 21.4461607,22.882723 21.4461607,24.5911173 C21.4461607,26.2995116 22.8276476,27.6844801 24.5317473,27.6844801 M24.5317473,29.4077636 C21.8782364,29.4080393 19.7269343,27.251867 19.7266592,24.5916688 C19.7263842,21.9317463 21.8771362,19.7750225 24.5306472,19.7747468 L24.5317473,19.7747468 C27.1852583,19.7750225 29.3360103,21.9317463 29.3357353,24.5916688 C29.3351852,27.2513156 27.1847082,29.4074878 24.5317473,29.4077636 M4.80506059,29.4077636 C2.15154963,29.4080393 0.000247529007,27.251867 -2.7503223e-05,24.5916688 C-0.000302535453,21.9317463 2.15044951,19.7750225 4.80396046,19.7747468 L4.80506059,19.7747468 C7.45857155,19.7750225 9.60932359,21.9317463 9.60904856,24.5916688 C9.6084985,27.2513156 7.45802149,29.4074878 4.80506059,29.4077636 M44.2567838,29.4077636 C41.6032729,29.4080393 39.4519708,27.251867 39.4516957,24.5916688 C39.4514207,21.9317463 41.6021728,19.7750225 44.2554087,19.7747468 L44.2567838,19.7747468 C46.9100198,19.7750225 49.0610468,21.9317463 49.0604968,24.5916688 C49.0602217,27.2513156 46.9097447,29.4074878 44.2567838,29.4077636" id="Fill-8" stroke="#FFFFFF"></path>
                        </g>
                    </g>
                </g>
            </g>
        </g>
    </g>
</svg>