<?xml version="1.0" encoding="UTF-8"?>
<svg width="50px" height="48px" viewBox="0 0 50 48" version="1.1" xmlns="http://www.w3.org/2000/svg" xmlns:xlink="http://www.w3.org/1999/xlink">
    <!-- Generator: Sketch 43.1 (39012) - http://www.bohemiancoding.com/sketch -->
    <title>index_intelligent</title>
    <desc>Created with Sketch.</desc>
    <defs></defs>
    <g id="官网" stroke="none" stroke-width="1" fill="none" fill-rule="evenodd">
        <g id="index" transform="translate(-771.000000, -710.000000)" fill="#FFFFFF">
            <g id="Proir" transform="translate(0.000000, 677.000000)">
                <g id="Group" transform="translate(719.461538, 0.000000)">
                    <g id="Click-Me-Copy-2" transform="translate(51.153846, 30.846774)">
                        <g id="index_intelligent" transform="translate(0.384615, 2.153226)">
                            <g id="Group-3" transform="translate(0.000000, 13.911719)">
                                <path d="M23.8132523,2.13792318 C17.8533828,2.13792318 12.2923593,3.08891831 8.15284685,4.81607202 C4.33601071,6.40824163 2.12291424,8.53231287 2.08306179,10.6483493 C2.04128099,12.8350918 4.29422991,15.0992894 8.26276248,16.8624388 C12.5751831,18.7756778 18.3582877,19.895403 24.5457017,20.0149604 C24.9024454,20.0226738 25.2649741,20.0246021 25.6220392,20.0246021 L25.6239676,20.0246021 C31.5815873,20.0246021 37.1429322,19.073607 41.2824447,17.3483816 C45.0992808,15.7558906 47.3104489,13.6302124 47.3503014,11.5157829 C47.3940105,9.32936185 45.1410616,7.06484286 41.1706007,5.30169339 C36.8601084,3.38684751 31.0770039,2.26680086 24.8892684,2.14917186 C24.5305964,2.14177987 24.169996,2.13792318 23.8132523,2.13792318 Z M25.6239676,22.1088209 L25.6220392,22.1088209 C25.2517971,22.1088209 24.8760914,22.1049642 24.5061707,22.0972508 C18.0471814,21.9738368 11.9773964,20.789512 7.41846907,18.7663574 C2.57478958,16.6159322 -0.0596501169,13.7176307 0.00109272843,10.6088183 C0.0579788852,7.58517443 2.66959984,4.84628275 7.35001284,2.89319137 C11.7382817,1.06351402 17.5840574,0.0559541237 23.8132523,0.0559541237 C24.1834944,0.0559541237 24.5572718,0.0598108123 24.9294422,0.0672027987 C31.3881101,0.190616834 37.4562882,1.37301328 42.0171438,3.39809618 C46.858895,5.54884285 49.4933347,8.44682294 49.4345202,11.5559567 C49.3753843,14.5792792 46.7656917,17.3181709 42.0833503,19.2712623 C37.6973312,21.1009396 31.8512341,22.1088209 25.6239676,22.1088209 Z" id="Fill-1"></path>
                            </g>
                            <path d="M14.3764174,5.52342085 C13.5411229,5.52342085 12.8218505,5.7188264 12.2353124,6.10803056 C10.4114201,7.31324575 9.82295371,10.4525903 10.6241808,14.7229087 C11.4935427,19.359934 13.8506222,24.7557627 17.2631488,29.9205115 C20.1142058,34.2326107 23.3882131,37.9221762 26.7322835,40.587148 C29.8696996,43.086925 32.8268156,44.464727 35.0588741,44.464727 C35.8919189,44.464727 36.6115127,44.2673931 37.1980507,43.8801173 C39.0238714,42.6749021 39.6104095,39.5355576 38.8111107,35.2652391 C37.9417489,30.6282139 35.582741,25.2323851 32.1721427,20.0679577 C29.3214071,15.7536087 26.0454715,12.0659717 22.7010797,9.40099984 C19.5655919,6.89961589 16.6084759,5.52342085 14.3764174,5.52342085 Z M35.0588741,46.546696 C32.3180541,46.546696 28.9890891,45.0490153 25.4341864,42.2156347 C21.9210644,39.4160002 18.4950394,35.56124 15.5247464,31.0685191 C11.9640587,25.678154 9.49481379,20.0088218 8.57595773,15.1063278 C7.60053691,9.89626293 8.49239614,6.08521182 11.0869834,4.36930679 C12.0209448,3.752558 13.1274931,3.43920205 14.3764174,3.43920205 C17.116916,3.43920205 20.4442741,4.93881113 23.9991768,7.77058473 C27.5122987,10.5698979 30.9399307,14.4249795 33.9086168,18.9193073 C37.4712328,24.3096724 39.9385494,29.9790046 40.8574054,34.8814986 C41.8328263,40.0896351 40.942574,43.9026146 38.3460584,45.6185196 C37.4143467,46.2352684 36.3077985,46.546696 35.0588741,46.546696 Z" id="Fill-4"></path>
                            <path d="M15.5740477,47.336353 C14.5623098,47.336353 13.6325264,47.1104153 12.8010886,46.6530764 C10.075374,45.1537887 8.87787217,41.4259777 9.42841447,36.15517 C9.94842464,31.1938615 11.9490819,25.3423007 15.0636793,19.6826102 C18.4627075,13.5045165 22.8377993,8.2565275 27.066337,5.28044947 C27.5371744,4.9503812 28.1863836,5.06415351 28.5164519,5.53466952 C28.8487699,6.00357858 28.7346762,6.65471617 28.2641602,6.98478443 C24.2859859,9.78249062 20.1406884,14.7778665 16.8894999,20.6866348 C13.9057085,26.109139 11.9924696,31.6798043 11.5010632,36.371466 C11.0491878,40.6912786 11.888339,43.7737369 13.8031849,44.829184 C15.7202805,45.8823814 18.7722068,44.941028 22.1792697,42.2477738 C25.8804052,39.3211899 29.5622573,34.7240171 32.5460487,29.301513 C35.7972372,23.3911377 37.795966,17.2169007 38.031224,12.3581158 C38.0578995,11.7828264 38.5454492,11.3405928 39.1207386,11.3672682 C39.6957065,11.395872 40.1379402,11.8834217 40.1112647,12.4587111 C39.8609014,17.6231385 37.7692906,24.1274438 34.369941,30.3055376 C31.2553436,35.9655495 27.3854779,40.7864102 23.4715818,43.8820456 C20.5848504,46.1652052 17.8726341,47.336353 15.5740477,47.336353 Z" id="Fill-6"></path>
                            <path d="M30.3499859,5.23674033 C30.3499859,8.12925677 32.6958168,10.4734807 35.5867262,10.4734807 C38.4792427,10.4734807 40.8250735,8.12925677 40.8250735,5.23674033 C40.8250735,2.34422388 38.4792427,0 35.5867262,0 C32.6958168,0 30.3499859,2.34422388 30.3499859,5.23674033" id="Fill-8"></path>
                        </g>
                    </g>
                </g>
            </g>
        </g>
    </g>
</svg>