<?xml version="1.0" encoding="UTF-8"?>
<svg width="89px" height="68px" viewBox="0 0 89 68" version="1.1" xmlns="http://www.w3.org/2000/svg" xmlns:xlink="http://www.w3.org/1999/xlink">
    <!-- Generator: Sketch 43.1 (39012) - http://www.bohemiancoding.com/sketch -->
    <title>index_talent</title>
    <desc>Created with Sketch.</desc>
    <defs></defs>
    <g id="官网" stroke="none" stroke-width="1" fill="none" fill-rule="evenodd">
        <g id="index" transform="translate(-1068.000000, -989.000000)" stroke-width="2" stroke="#33424F">
            <g id="Service" transform="translate(131.000000, 940.000000)">
                <g id="Group-3">
                    <g id="intership" transform="translate(782.163435, 0.000000)">
                        <g id="INterShip" transform="translate(66.601289, 49.035900)">
                            <g id="Group-14">
                                <g id="index_talent" transform="translate(89.000000, 0.000000)">
                                    <path d="M50.6490521,41.9958142 C55.0928998,40.1135371 61.0836275,36.9995093 67.6160248,34.1264052 L67.6160248,57.2027695 C67.6160248,57.2027695 59.1670262,66.4330538 44.3160624,66.4330538 C28.3225911,66.4330538 19.6826842,57.2027695 19.6826842,57.2027695 L19.6826842,35.6628245 C24.7234471,37.7719686 30.3856427,39.5872317 37.2380728,41.9958142 C41.459957,43.5390983 46.8194452,44.0722685 50.6490521,41.9958142" id="Path" fill="#EFEFEF"></path>
                                    <path d="M83.3463434,21.8183789 L83.3463434,36.4336493 L86.3417073,39.5113914 L80.0963262,46.1869699 L73.7718359,39.7075301 L78.1022501,35.6628245 L78.1022501,24.1236616 C59.7279827,31.9035006 53.8369587,34.3225438 49.7631592,36.2100513 C45.6873984,38.0972319 42.7538182,38.0887325 38.7123816,36.5248538 C34.6712719,34.9609751 15.4313792,27.7505919 5.87779315,23.0553599 C-0.496712529,19.922372 -0.90794987,17.9351608 5.98763079,15.2771553 C14.9858176,11.7675813 29.8590104,6.14494043 37.7421491,3.07733216 C42.4079604,1.13850173 44.8750575,0.0803337919 49.1590522,2.28950863 C56.8064977,5.53429547 74.2847384,12.2680618 82.9730262,15.9531798 C90.539401,19.3424555 85.4538531,20.4591381 83.3463434,21.8183789" id="Path"></path>
                                </g>
                            </g>
                        </g>
                    </g>
                </g>
            </g>
        </g>
    </g>
</svg>