<?xml version="1.0" encoding="UTF-8"?>
<svg width="88px" height="83px" viewBox="0 0 88 83" version="1.1" xmlns="http://www.w3.org/2000/svg" xmlns:xlink="http://www.w3.org/1999/xlink">
    <!-- Generator: Sketch 43.1 (39012) - http://www.bohemiancoding.com/sketch -->
    <title>index_service</title>
    <desc>Created with Sketch.</desc>
    <defs>
        <filter x="-6.5%" y="-5.4%" width="109.1%" height="120.6%" filterUnits="objectBoundingBox" id="filter-1">
            <feOffset dx="0" dy="2" in="SourceAlpha" result="shadowOffsetOuter1"></feOffset>
            <feGaussianBlur stdDeviation="10" in="shadowOffsetOuter1" result="shadowBlurOuter1"></feGaussianBlur>
            <feColorMatrix values="0 0 0 0 0.2   0 0 0 0 0.258823529   0 0 0 0 0.309803922  0 0 0 0.0472429801 0" type="matrix" in="shadowBlurOuter1" result="shadowMatrixOuter1"></feColorMatrix>
            <feMerge>
                <feMergeNode in="shadowMatrixOuter1"></feMergeNode>
                <feMergeNode in="SourceGraphic"></feMergeNode>
            </feMerge>
        </filter>
    </defs>
    <g id="官网" stroke="none" stroke-width="1" fill="none" fill-rule="evenodd">
        <g id="index" transform="translate(-526.000000, -1305.000000)" fill="#FFFFFF">
            <g id="B" filter="url(#filter-1)" transform="translate(135.000000, 1292.000000)">
                <g id="A" transform="translate(293.000000, 0.000000)">
                    <path d="M142.420199,36.0311452 C143.2823,36.0265587 143.989888,35.3329763 143.975097,34.5071494 C143.960306,33.6889667 143.258265,33.0208648 142.411219,33.0190812 C141.5441,33.0175524 140.84602,33.6930436 140.848926,34.531356 C140.852095,35.3742549 141.544892,36.0357318 142.420199,36.0311452 M139.888307,38.3763815 C137.238615,36.6518531 137.107081,33.3549158 138.973645,31.439028 C140.831758,29.5318036 143.935479,29.5208469 145.806269,31.4038647 C147.698189,33.3077766 147.597822,36.6202572 144.927264,38.3768911 C148.315975,41.975519 151.70046,45.57007 155.096831,49.1771065 C155.22678,49.097607 155.344051,49.0282997 155.458417,48.9554251 C158.596738,46.9541773 161.736116,44.9544582 164.871268,42.9488787 C165.321071,42.6612025 165.790683,42.5383859 166.315234,42.692034 C167.071421,42.9137154 167.527035,43.6325237 167.399199,44.4030576 C166.633239,49.0140306 165.863318,53.6247487 165.098679,58.2359764 C164.395052,62.476716 163.696444,66.7184747 162.995195,70.9594691 C162.91675,71.432899 162.831438,71.9053097 162.752993,72.3787396 C162.600594,73.3016476 162.016351,73.7832313 161.041206,73.7839958 C159.483402,73.7847602 157.925863,73.7842506 156.36806,73.7842506 L123.850697,73.7842506 C122.75696,73.7842506 122.209959,73.3133687 122.040127,72.2673893 C121.651601,69.8783264 121.254886,67.4902827 120.852097,65.1032582 C120.671172,64.0289953 121.338878,63.2296683 122.472762,63.2034232 C122.980673,63.1914474 123.489376,63.1993463 123.998078,63.1996012 C134.22047,63.2026588 144.443125,63.2057165 154.665516,63.2128511 C154.91168,63.2128511 155.16788,63.2278846 155.402158,63.293115 C156.096012,63.4865129 156.570379,64.1882492 156.489028,64.8545674 C156.397377,65.6062457 155.835057,66.1775212 155.077021,66.2149777 C154.354114,66.2506505 153.628301,66.2284824 152.903545,66.2282276 C143.460055,66.2233863 134.016302,66.2175257 124.572812,66.2124296 L124.207529,66.2124296 C124.460824,67.7425408 124.708572,69.2400368 124.961603,70.7709125 L125.32583,70.7709125 C136.716706,70.7709125 148.107846,70.7701481 159.498721,70.7757538 C159.754922,70.7760086 159.864797,70.7344752 159.910491,70.4536788 C160.654264,65.8921382 161.413356,61.3326361 162.171128,56.7731341 C162.679303,53.7162241 163.190118,50.659569 163.699085,47.6029139 C163.710971,47.5318229 163.71282,47.459458 163.72629,47.3152377 C163.579966,47.4036554 163.477221,47.4630253 163.377118,47.5267268 C160.896994,49.1077993 158.417398,50.6896361 155.937273,52.2709634 C154.972164,52.8863203 154.278311,52.8012151 153.507861,51.9827776 C149.879325,48.1280694 146.249205,44.2743805 142.620405,40.4199272 C142.555695,40.3513843 142.497852,40.2762165 142.419671,40.183467 C141.852597,40.7840452 141.314312,41.352263 140.77814,41.9217549 C137.665439,45.2278653 134.553266,48.5342305 131.440829,51.8403409 C131.390117,51.8946146 131.338613,51.9483787 131.287373,52.0021428 C130.533827,52.7915324 129.827559,52.8779117 128.907351,52.2913479 C126.409531,50.6980447 123.912238,49.1044868 121.414417,47.5109288 C121.316956,47.4487561 121.217645,47.3891315 121.069471,47.2974012 C121.218173,48.1940642 121.357102,49.0341603 121.496296,49.8740015 C121.931308,52.4987601 122.371603,55.1230091 122.798691,57.7490418 C122.928376,58.5448016 122.316137,59.2885808 121.454828,59.4231185 C120.651363,59.5489928 119.849483,58.9909672 119.709761,58.1804287 C119.420545,56.5043135 119.146913,54.8259051 118.867998,53.1480063 C118.398914,50.3280661 117.926396,47.5083808 117.470254,44.6864021 C117.417957,44.3640723 117.389432,44.0086176 117.475272,43.7010666 C117.751017,42.7098705 118.931916,42.321291 119.853445,42.8991915 C121.067887,43.6608072 122.272028,44.4379661 123.480395,45.2085 C125.545317,46.5255933 127.610502,47.8426865 129.712401,49.1832219 C133.102961,45.5812815 136.494313,41.9798507 139.888307,38.3763815" id="index_service"></path>
                </g>
            </g>
        </g>
    </g>
</svg>