<?xml version="1.0" encoding="UTF-8"?>
<svg width="63px" height="69px" viewBox="0 0 63 69" version="1.1" xmlns="http://www.w3.org/2000/svg" xmlns:xlink="http://www.w3.org/1999/xlink">
    <!-- Generator: Sketch 43.1 (39012) - http://www.bohemiancoding.com/sketch -->
    <title>index_trader</title>
    <desc>Created with Sketch.</desc>
    <defs>
        <path d="M13.4211361,16.5069215 C13.4211361,7.80268156 20.6101865,0.746756836 29.4786512,0.746756836 C38.3467085,0.746756836 45.5361664,7.80268156 45.5361664,16.5069215 C45.5361664,25.2111614 38.3467085,32.2670862 29.4786512,32.2670862 C20.6101865,32.2670862 13.4211361,25.2111614 13.4211361,16.5069215 L13.4211361,16.5069215 Z" id="path-1"></path>
    </defs>
    <g id="官网" stroke="none" stroke-width="1" fill="none" fill-rule="evenodd">
        <g id="index" transform="translate(-297.000000, -988.000000)">
            <g id="Service" transform="translate(131.000000, 940.000000)">
                <g id="Group-3">
                    <g id="acdemy">
                        <g id="index_trader" transform="translate(168.000000, 49.000000)">
                            <g id="Group-3" transform="translate(0.000000, 0.258724)">
                                <g id="Path">
                                    <use fill="#EFEFEF" fill-rule="evenodd" xlink:href="#path-1"></use>
                                    <path stroke="#33424F" stroke-width="2" d="M12.4211361,16.5069215 C12.4211361,25.7676731 20.0620422,33.2670862 29.4786512,33.2670862 C38.8949897,33.2670862 46.5361664,25.767539 46.5361664,16.5069215 C46.5361664,7.24630398 38.8949897,-0.253243164 29.4786512,-0.253243164 C20.0620422,-0.253243164 12.4211361,7.24616988 12.4211361,16.5069215 Z"></path>
                                </g>
                                <path d="M59.277157,64.7707502 C59.8516398,64.1654909 59.957221,63.6407586 59.957221,62.5109674 C59.7088741,46.1933408 46.0868487,33.0489385 29.4786512,33.0489385 C12.6334247,33.0489385 -0.999918515,46.4298217 -0.999918515,62.9816289 C-0.999918515,64.4790639 0.410613051,65.8634754 1.91743321,65.8634754 L57.0398693,65.8634754 C57.8858577,65.8634754 58.8196147,65.4808594 59.277157,64.7707502 Z" id="Path" stroke="#33424F" stroke-width="2"></path>
                            </g>
                            <path d="M32.8338131,42.0699394 C32.8338131,41.8348086 32.8338131,41.5996777 32.3546788,41.5996777 C32.3546788,41.5996777 30.6768942,41.364147 29.4786512,41.364147 C28.2804083,41.364147 26.6026237,41.5996777 26.6026237,41.5996777 C26.3630566,41.5996777 26.123082,41.8348086 26.123082,42.0699394 C26.123082,42.0699394 26.6026237,44.4220476 28.0404337,45.8336325 C27.5612995,47.2448174 25.6439478,53.1254878 25.1644062,56.8891808 L25.1644062,57.1243117 C25.1644062,57.1243117 26.6026237,58.5354966 28.9991096,59.9470814 L29.7182184,59.9470814 C32.3546788,58.5354966 33.5529218,57.3594425 33.5529218,57.1243117 L33.5529218,56.8891808 C33.0733802,53.1254878 31.1560284,47.2448174 30.6768942,45.8336325 C32.3546788,44.4220476 32.8338131,42.3050703 32.8338131,42.0699394" id="Fill-4" stroke="#33424F" stroke-width="2" fill="#EFEFEF"></path>
                        </g>
                    </g>
                </g>
            </g>
        </g>
    </g>
</svg>