<?xml version="1.0" encoding="UTF-8"?>
<svg width="33px" height="33px" viewBox="0 0 33 33" version="1.1" xmlns="http://www.w3.org/2000/svg" xmlns:xlink="http://www.w3.org/1999/xlink">
    <!-- Generator: Sketch 43.1 (39012) - http://www.bohemiancoding.com/sketch -->
    <title>talent_plan_enterprise</title>
    <desc>Created with Sketch.</desc>
    <defs></defs>
    <g id="官网" stroke="none" stroke-width="1" fill="none" fill-rule="evenodd">
        <g id="Talent-details" transform="translate(-1007.000000, -3237.000000)" stroke="#FFFFFF" stroke-width="0.5" fill="#FFFFFF">
            <g id="foter" transform="translate(135.000000, 3188.000000)">
                <g id="Group-14" transform="translate(610.610929, 0.000000)">
                    <g id="Group-5" transform="translate(262.000000, 50.000000)">
                        <path d="M19.8780498,7.64809339 L27.3647746,7.64809339 C28.7031631,7.64809339 29.7912456,8.74687138 29.7912456,10.0981996 L29.7912456,29.8848152 C29.7912456,30.3377184 29.4279712,30.705208 28.9811455,30.705208 C28.5327531,30.705208 28.1679122,30.3375427 28.1679122,29.8848152 L28.1679122,10.0981996 C28.1679122,9.65197482 27.8069006,9.28887896 27.3647746,9.28887896 L19.8780498,9.28887896 L19.8780498,7.64809339 Z M1.90702085,30.3139924 L1.90702085,2.45033919 C1.90702085,1.09865947 2.99614775,-0.000118526261 4.33436217,-0.000118526261 L18.149929,-0.000118526261 C19.4898841,-0.000118526261 20.5781407,1.09865947 20.5781407,2.45033919 L20.5781407,29.7633732 C20.5781407,30.2176824 20.2148663,30.583766 19.7671702,30.583766 C19.3179076,30.583766 18.9530666,30.2176824 18.9530666,29.7633732 L18.9530666,2.45033919 C18.9530666,2.00393866 18.5929254,1.64066704 18.149929,1.64066704 L4.33436217,1.64066704 C3.89136585,1.64066704 3.53279123,2.00393866 3.53279123,2.45033919 L3.53279123,30.3139924 L1.90702085,30.3139924 Z M16.0367757,22.2664805 L13.0273598,22.2664805 C12.5789675,22.2664805 12.2156931,21.8989909 12.2156931,21.4462635 C12.2156931,20.993536 12.5789675,20.6258707 13.0273598,20.6258707 L16.0367757,20.6258707 C16.485168,20.6258707 16.850009,20.993536 16.850009,21.4462635 C16.850009,21.8989909 16.485168,22.2664805 16.0367757,22.2664805 L16.0367757,22.2664805 Z M9.51245822,22.2664805 L6.50304237,22.2664805 C6.05552035,22.2664805 5.69137564,21.8989909 5.69137564,21.4462635 C5.69137564,20.993536 6.05552035,20.6258707 6.50304237,20.6258707 L9.51245822,20.6258707 C9.96172089,20.6258707 10.3256915,20.993536 10.3256915,21.4462635 C10.3256915,21.8989909 9.96172089,22.2664805 9.51245822,22.2664805 L9.51245822,22.2664805 Z M16.0367757,14.9574627 L13.0273598,14.9574627 C12.5789675,14.9574627 12.2156931,14.5899731 12.2156931,14.1372457 C12.2156931,13.6836394 12.5789675,13.3168529 13.0273598,13.3168529 L16.0367757,13.3168529 C16.485168,13.3168529 16.850009,13.6836394 16.850009,14.1372457 C16.850009,14.5899731 16.485168,14.9574627 16.0367757,14.9574627 L16.0367757,14.9574627 Z M9.51245822,14.9574627 L6.50304237,14.9574627 C6.05552035,14.9574627 5.69137564,14.5899731 5.69137564,14.1372457 C5.69137564,13.6836394 6.05552035,13.3168529 6.50304237,13.3168529 L9.51245822,13.3168529 C9.96172089,13.3168529 10.3256915,13.6836394 10.3256915,14.1372457 C10.3256915,14.5899731 9.96172089,14.9574627 9.51245822,14.9574627 L9.51245822,14.9574627 Z M23.2100088,24.4847748 L23.2100088,21.4460877 C23.2100088,20.9933603 23.5750238,20.6258707 24.0225458,20.6258707 C24.4718085,20.6258707 24.8350829,20.9933603 24.8350829,21.4460877 L24.8350829,24.4847748 C24.8350829,24.9375023 24.4718085,25.3049918 24.0225458,25.3049918 C23.5750238,25.3049918 23.2100088,24.9375023 23.2100088,24.4847748 L23.2100088,24.4847748 Z M23.2100088,16.2574724 L23.2100088,13.2186096 C23.2100088,12.7662336 23.5750238,12.3982168 24.0225458,12.3982168 C24.4718085,12.3982168 24.8350829,12.7662336 24.8350829,13.2186096 L24.8350829,16.2574724 C24.8350829,16.7101999 24.4718085,17.0778652 24.0225458,17.0778652 C23.5750238,17.0778652 23.2100088,16.7101999 23.2100088,16.2574724 L23.2100088,16.2574724 Z M16.0367757,7.64809339 L13.0273598,7.64809339 C12.5789675,7.64809339 12.2156931,7.28060382 12.2156931,6.8277006 C12.2156931,6.37427014 12.5789675,6.00748357 13.0273598,6.00748357 L16.0367757,6.00748357 C16.485168,6.00748357 16.850009,6.37427014 16.850009,6.8277006 C16.850009,7.28060382 16.485168,7.64809339 16.0367757,7.64809339 L16.0367757,7.64809339 Z M9.51245822,7.64809339 L6.50304237,7.64809339 C6.05552035,7.64809339 5.69137564,7.28060382 5.69137564,6.8277006 C5.69137564,6.37427014 6.05552035,6.00748357 6.50304237,6.00748357 L9.51245822,6.00748357 C9.96172089,6.00748357 10.3256915,6.37427014 10.3256915,6.8277006 C10.3256915,7.28060382 9.96172089,7.64809339 9.51245822,7.64809339 L9.51245822,7.64809339 Z M31.1874238,31.1343852 L0.812497926,31.1343852 C0.364801845,31.1343852 -3.91304347e-05,30.7667199 -3.91304347e-05,30.3124107 C-3.91304347e-05,29.8595075 0.364801845,29.4935996 0.812497926,29.4935996 L31.1874238,29.4935996 C31.6366865,29.4935996 31.9999609,29.8595075 31.9999609,30.3124107 C31.9999609,30.7667199 31.6366865,31.1343852 31.1874238,31.1343852 L31.1874238,31.1343852 Z" id="talent_plan_enterprise"></path>
                    </g>
                </g>
            </g>
        </g>
    </g>
</svg>