<?xml version="1.0" encoding="UTF-8"?>
<svg width="31px" height="31px" viewBox="0 0 31 31" version="1.1" xmlns="http://www.w3.org/2000/svg" xmlns:xlink="http://www.w3.org/1999/xlink">
    <!-- Generator: Sketch 43.1 (39012) - http://www.bohemiancoding.com/sketch -->
    <title>talent_activity</title>
    <desc>Created with Sketch.</desc>
    <defs></defs>
    <g id="官网" stroke="none" stroke-width="1" fill="none" fill-rule="evenodd">
        <g id="Talent-Program" transform="translate(-958.000000, -1656.000000)" fill="#FFFFFF">
            <g id="Featues" transform="translate(136.000000, 1108.000000)">
                <g id="Group-14" transform="translate(807.000000, 184.000000)">
                    <g id="talent_activity" transform="translate(15.000000, 364.000000)">
                        <g id="Page-1">
                            <path d="M26.676605,3.94726709 C26.0737931,5.53310249 25.2050257,7.03093902 24.2302139,8.1650263 C22.6768376,9.97186411 20.9538822,10.8045282 19.1089218,10.6393564 C15.9229812,10.354636 13.5398178,10.7641632 11.8225406,11.8916003 C10.7307881,12.6084276 10.0592238,13.5117692 9.55723861,14.3687141 L5.17165941,4.38308571 C5.62576337,4.05366994 6.70523861,3.34488472 8.24526337,2.80622033 C10.9843129,1.84844009 13.8162089,1.8518425 16.6619168,2.81642758 C20.0300208,3.95824762 22.4162535,4.3388543 24.1711297,4.01407818 C25.4817238,3.77157868 26.3686,3.15898905 27.1420653,2.47371144 C27.0436941,2.878599 26.8948327,3.37318664 26.676605,3.94726709 M28.3969515,0.155428571 C28.2361198,0.050881592 27.6587832,-0.239561052 26.9717188,0.41184705 C26.8863921,0.492886425 26.8013723,0.574080455 26.7165059,0.65542914 C24.9264861,2.36931912 23.7438822,3.50170519 17.1763327,1.27528756 C15.4088723,0.676307605 13.6125604,0.4089086 11.8369663,0.480668657 C10.414803,0.537891116 9.00476337,0.812094954 7.64613465,1.29508344 C5.32481782,2.12001478 3.95145644,3.2726607 3.8940604,3.32122246 C3.84449109,3.3632887 3.8001396,3.41123184 3.76177327,3.4639693 C3.42583762,3.67476446 3.28618416,4.10795394 3.45100594,4.48283838 L13.6180851,27.6324162 C13.7984069,28.043026 14.2747634,28.2284577 14.6822139,28.0467377 C15.0896644,27.8650178 15.2738228,27.3849677 15.093501,26.9742033 L10.3813475,16.2449922 C10.4077436,16.1944199 10.4341396,16.143693 10.4605356,16.092966 C11.5294218,14.034968 12.7411842,11.7026115 18.966199,12.2592159 C20.1013822,12.3605151 21.211397,12.1727636 22.2693871,11.7009103 C22.3349168,11.6718351 22.4006,11.6412134 22.4656693,11.6098183 C23.4252881,11.1472443 24.3393277,10.4474291 25.1823129,9.5304779 C26.5016545,8.09558607 27.6644614,6.08151016 28.372397,4.00464421 C28.6420356,3.21389168 28.8209762,2.48128955 28.8903426,1.88602132 C28.9557188,1.32354001 28.9758228,0.53216887 28.3969515,0.155428571" id="Fill-1"></path>
                            <g id="Group-5" transform="translate(0.000000, 17.167202)">
                                <path d="M26.2895347,1.99686277 C23.5445,0.802459929 19.7330347,0.0857872921 15.393802,0.0857872921 C15.1553168,0.0857872921 14.9186733,0.0881071215 14.6834109,0.0924374698 L14.6834109,2.04712574 C14.917599,2.04264074 15.1540891,2.04016625 15.3927277,2.04016625 C23.322896,2.04016625 28.8471881,4.60527898 28.8471881,6.90577649 C28.8471881,8.07667173 27.4833416,9.31716185 25.0960347,10.2429284 L25.0960347,10.2455576 C22.7289851,11.1549307 19.4015495,11.8100505 15.4889505,11.8100505 C7.55878218,11.8100505 2.0344901,9.24478317 2.0344901,6.94428566 C2.0344901,5.77339042 3.39833663,4.50258786 5.78564356,3.57697592 L5.78564356,3.57434678 C6.08536139,3.4594379 6.38799505,3.35303505 6.69339109,3.2549836 L6.69339109,1.21028594 C2.59663366,2.4094831 2.00881207e-13,4.46918232 2.00881207e-13,6.90484856 C-0.000460396039,8.8921691 1.72940099,10.629876 4.59291089,11.8536633 C7.33779208,13.0479115 11.149104,13.7642749 15.4878762,13.7642749 C24.2634851,13.7642749 30.8816782,10.8338663 30.8816782,6.9455229 C30.8822921,4.9580477 29.1525842,3.22065012 26.2895347,1.99686277 Z" id="Fill-3"></path>
                            </g>
                            <path d="M19.9065733,5.54712972 L21.5293158,4.81638345 L22.1769396,6.27710271 L20.5543505,7.00784898 L19.9065733,5.54712972 Z M15.7042317,7.77308338 L17.3269743,7.04233711 L17.9747515,8.50305638 L16.3520089,9.23380264 L15.7042317,7.77308338 Z M11.0089594,8.86881615 L12.631702,8.13806988 L13.2793257,9.59863448 L11.6567366,10.3293808 L11.0089594,8.86881615 Z M12.5072416,4.4512423 L14.1299842,3.72049603 L14.7776079,5.18106064 L13.1548653,5.91196156 L12.5072416,4.4512423 Z M7.53895446,5.54697507 L9.16169703,4.8162288 L9.80932079,6.2767934 L8.18657822,7.00753967 L7.53895446,5.54697507 Z" id="Fill-6"></path>
                        </g>
                    </g>
                </g>
            </g>
        </g>
    </g>
</svg>