<?xml version="1.0" encoding="UTF-8"?>
<svg width="31px" height="30px" viewBox="0 0 31 30" version="1.1" xmlns="http://www.w3.org/2000/svg" xmlns:xlink="http://www.w3.org/1999/xlink">
    <!-- Generator: Sketch 43.1 (39012) - http://www.bohemiancoding.com/sketch -->
    <title>talent_practice</title>
    <desc>Created with Sketch.</desc>
    <defs></defs>
    <g id="官网" stroke="none" stroke-width="1" fill="none" fill-rule="evenodd">
        <g id="Talent-Program" transform="translate(-451.000000, -1477.000000)" fill="#FFFFFF">
            <g id="Featues" transform="translate(136.000000, 1108.000000)">
                <g id="Group-14-Copy" transform="translate(301.000000, 184.000000)">
                    <path d="M44.7958328,185 L35.3369848,186.930272 L38.2345218,189.246016 L30.1234801,196.389344 L26.0704245,193.299071 L14.2958328,203.725632 L16.0333689,205.078145 L26.0746826,196.196832 L30.1279623,199.287105 L39.972282,190.598304 L43.0582967,193.106559 L44.7958328,185 Z M41.5173064,214.729729 L43.8328259,214.729729 L43.8328259,196.196608 L41.5173064,196.196608 L41.5173064,214.729729 Z M33.4064888,214.729729 L35.9145201,214.729729 L35.9145201,200.442624 L33.4064888,200.442624 L33.4064888,214.729729 Z M24.7176877,214.729729 L27.225719,214.729729 L27.225719,203.340385 L24.7176877,203.340385 L24.7176877,214.729729 Z M16.9966,214.729729 L19.5046312,214.729729 L19.5046312,207.008417 L16.9966,207.008417 L16.9966,214.729729 Z" id="talent_practice"></path>
                </g>
            </g>
        </g>
    </g>
</svg>