<?xml version="1.0" encoding="UTF-8"?>
<svg width="36px" height="35px" viewBox="0 0 36 35" version="1.1" xmlns="http://www.w3.org/2000/svg" xmlns:xlink="http://www.w3.org/1999/xlink">
    <!-- Generator: Sketch 43.1 (39012) - http://www.bohemiancoding.com/sketch -->
    <title>talent_orientation</title>
    <desc>Created with Sketch.</desc>
    <defs></defs>
    <g id="官网" stroke="none" stroke-width="1" fill="none" fill-rule="evenodd">
        <g id="Talent-Program" transform="translate(-448.000000, -1304.000000)" fill="#FFFFFF">
            <g id="Featues" transform="translate(136.000000, 1108.000000)">
                <g id="talent_orientation" transform="translate(312.000000, 196.000000)">
                    <path d="M31.3760169,32.589694 L23.9899446,32.589694 C22.8548602,32.589694 21.7108843,32.5046819 20.590547,32.3402964 L12.7434145,31.1837422 C12.5556072,31.1837422 12.3621614,31.1620554 12.1019205,31.1095735 C11.5777518,31.0373566 11.176547,30.7500072 10.8620892,30.4643928 L1.88572771,23.6367542 C1.8024506,23.5697422 1.78271566,23.4524169 1.84235422,23.3728265 C2.18739036,22.9028747 2.30493253,22.9028747 2.45305301,22.9028747 C2.85620964,22.9028747 3.56992048,23.1668024 4.5837759,23.6890193 L9.76690843,26.7813325 C10.7176554,27.274706 12.3259446,27.4950434 14.9808361,27.4950434 C15.5681133,27.4950434 16.1319687,27.4861518 16.6290289,27.4753084 L17.0644988,27.4679349 L17.268788,27.4698867 C17.5307639,27.4698867 17.7025229,27.4590434 17.7025229,27.4590434 L17.648306,25.6536217 L17.1078723,25.6607783 C16.0868602,25.6354048 15.676547,25.4185373 15.6385952,25.4005373 C15.6385952,25.4005373 15.6368602,25.2524169 15.8736795,24.9071639 C16.5151735,23.970947 17.6428843,23.4125133 18.8916072,23.4125133 L21.2012458,23.4125133 C22.7392699,23.4192361 24.239559,22.9377904 25.4863301,22.0373566 C25.8042578,21.8042241 26.2019928,21.6903687 26.7042578,21.6903687 C28.2893422,21.6903687 30.3604265,22.8668747 31.3797036,23.5554289 L31.3797036,32.589694 L31.3760169,32.589694 Z M26.700788,19.8795253 C25.8133663,19.8795253 25.0417518,20.1143928 24.4091494,20.5806578 C23.4735831,21.2522964 22.3493422,21.609694 21.1977759,21.6016699 L18.8881373,21.6016699 C17.0447639,21.6016699 15.3603542,22.4548265 14.3807639,23.8807301 C13.8730771,24.6198145 13.7789566,25.2179349 13.8477036,25.6679349 C12.2248843,25.6191398 11.140547,25.458441 10.6452217,25.1999349 L5.45861928,22.1058867 C4.05787229,21.3867542 3.18693253,21.0920313 2.45131807,21.0920313 C1.41035422,21.0920313 0.823077108,21.702947 0.383920482,22.2993325 C-0.251501205,23.1715735 -0.081260241,24.3905855 0.768860241,25.0552843 L9.69642651,31.8415012 C10.3218723,32.4233566 11.0663783,32.7885614 11.7857277,32.8861518 C12.1036554,32.952947 12.4254867,32.9963205 12.6078723,32.9783205 L20.3248843,34.1277181 C21.5339205,34.3066337 22.7663783,34.3951157 23.9879928,34.3951157 L33.1831735,34.3951157 L33.1831735,22.6300554 L32.8218723,22.360706 C32.6880651,22.2596458 29.4838482,19.8795253 26.700788,19.8795253 Z" id="Fill-1"></path>
                    <path d="M34.0867952,34.4999277 L35.8939518,34.4999277 L35.8939518,22.7528675 L34.0867952,22.7528675 L34.0867952,34.4999277 Z M9.07308434,1.80715663 C10.2964337,1.80715663 11.5271566,2.30768675 12.4453735,3.17884337 L13.5531325,4.23238554 L14.6628434,3.18057831 C15.5723855,2.3126747 16.7777349,1.82233735 18.0351325,1.80889157 C20.588747,1.80889157 22.5910843,3.86024096 22.5910843,6.47696386 C22.5910843,9.70828916 19.7301687,12.5655181 15.6875422,16.2487952 C14.9590843,16.9137108 14.2453735,17.5914217 13.5548675,18.2728193 C12.8574217,17.5829639 12.1458795,16.9076386 11.4206747,16.2468434 C7.37956627,12.5620482 4.51886747,9.70481928 4.51886747,6.47522892 C4.51691566,3.85828916 6.51751807,1.80715663 9.07308434,1.80715663 L9.07308434,1.80715663 Z M10.2025301,17.5825301 C11.1285542,18.4250602 12.0318072,19.2923133 12.9116386,20.182988 L13.5548675,20.8355422 L14.1983133,20.182988 C15.0620964,19.3100964 15.9729398,18.4337349 16.9054699,17.5842651 C21.2916145,13.5847952 24.398241,10.4475904 24.398241,6.47696386 C24.398241,2.84638554 21.6026024,0.00173493976 18.0351325,0.00173493976 C16.4140482,0.00173493976 14.791012,0.634337349 13.5548675,1.74383133 C12.3241446,0.634554217 10.7299518,0.014313253 9.07308434,0 C5.50561446,0 2.70975904,2.84443373 2.70975904,6.47522892 C2.70975904,10.4456386 5.8146506,13.5830602 10.2025301,17.5825301 L10.2025301,17.5825301 Z" id="Fill-4"></path>
                </g>
            </g>
        </g>
    </g>
</svg>