<?xml version="1.0" encoding="UTF-8"?>
<svg width="43px" height="43px" viewBox="0 0 43 43" version="1.1" xmlns="http://www.w3.org/2000/svg" xmlns:xlink="http://www.w3.org/1999/xlink">
    <!-- Generator: Sketch 43.1 (39012) - http://www.bohemiancoding.com/sketch -->
    <title>talent_institution</title>
    <desc>Created with Sketch.</desc>
    <defs>
        <linearGradient x1="50%" y1="0%" x2="50%" y2="100%" id="linearGradient-1">
            <stop stop-color="#6B757E" offset="3.31034758%"></stop>
            <stop stop-color="#41505D" offset="98.6168686%"></stop>
        </linearGradient>
        <linearGradient x1="50%" y1="0%" x2="50%" y2="100%" id="linearGradient-2">
            <stop stop-color="#D5E0E3" offset="0%"></stop>
            <stop stop-color="#A4B3B7" offset="100%"></stop>
        </linearGradient>
    </defs>
    <g id="官网" stroke="none" stroke-width="1" fill="none" fill-rule="evenodd">
        <g id="Talent-Program" transform="translate(-767.000000, -716.000000)">
            <g id="youshi-" transform="translate(135.000000, 691.000000)">
                <g id="Group-10" transform="translate(226.000000, 22.000000)">
                    <g id="talent_institution" transform="translate(406.000000, 3.000000)">
                        <path d="M1.95218432,12.5385959 L40.5526892,12.5385959 C41.6197545,12.5385959 42.4825331,11.6749107 42.4825331,10.6090542 C42.4825331,9.76168772 41.9367614,9.04336028 41.1788459,8.7831668 L22.0363414,0.169583737 C21.5328776,-0.0564612456 20.956886,-0.0564612456 20.4534222,0.169583737 L1.16072468,8.85025501 C0.330583548,9.22407539 -0.125435006,10.1258377 0.0658570712,11.0146055 C0.25654475,11.9036755 1.0425648,12.5385959 1.95218432,12.5385959 L1.95218432,12.5385959 Z" id="Path" fill="url(#linearGradient-1)"></path>
                        <path d="M4.36343153,33.5638013 C3.29727284,33.5638013 2.4335876,34.4274865 2.4335876,35.4936452 C2.4335876,36.5595017 3.29727284,37.4240935 4.36343153,37.4240935 L38.1227057,37.4240935 C39.1888643,37.4240935 40.0522474,36.5595017 40.0522474,35.4936452 C40.0522474,34.4274865 39.1885621,33.5638013 38.1227057,33.5638013 L37.6413024,33.5638013 L37.6413024,16.2009477 L38.1227057,16.2009477 C38.6566916,16.2009477 39.086721,15.7691051 39.086721,15.2369324 C39.086721,14.7050618 38.6548784,14.2732192 38.1227057,14.2732192 L4.36343153,14.2732192 C3.83035218,14.2732192 3.39941616,14.7050618 3.39941616,15.2369324 C3.39941616,15.7691051 3.83125878,16.2009477 4.36343153,16.2009477 L4.84574141,16.2009477 L4.84574141,33.5631969 L4.36343153,33.5631969 L4.36343153,33.5638013 Z" id="Path" fill="url(#linearGradient-1)"></path>
                        <polygon id="Path" fill="url(#linearGradient-2)" points="8.70301167 33.5631969 14.4901258 33.5631969 14.4901258 16.2009477 8.70301167 16.2009477"></polygon>
                        <polygon id="Path" fill="url(#linearGradient-2)" points="18.3486049 33.5631969 24.1357191 33.5631969 24.1357191 16.2009477 18.3486049 16.2009477"></polygon>
                        <polygon id="Path" fill="url(#linearGradient-2)" points="27.9948025 33.5631969 33.7819167 33.5631969 33.7819167 16.2009477 27.9948025 16.2009477"></polygon>
                        <path d="M40.5348595,38.5803076 L1.95218432,38.5803076 C0.886327829,38.5803076 0.0226425893,39.4439928 0.0226425893,40.5110581 C0.0226425893,41.576008 0.886327829,42.4396932 1.95218432,42.4396932 L40.5339529,42.4396932 C41.5998094,42.4396932 42.4634946,41.576008 42.4634946,40.5110581 C42.462588,39.4439928 41.5989028,38.5803076 40.5348595,38.5803076 Z" id="Path" fill="url(#linearGradient-1)"></path>
                    </g>
                </g>
            </g>
        </g>
    </g>
</svg>