<?xml version="1.0" encoding="UTF-8"?>
<svg width="26px" height="32px" viewBox="0 0 26 32" version="1.1" xmlns="http://www.w3.org/2000/svg" xmlns:xlink="http://www.w3.org/1999/xlink">
    <!-- Generator: Sketch 43.1 (39012) - http://www.bohemiancoding.com/sketch -->
    <title>topbar_service_trader</title>
    <desc>Created with Sketch.</desc>
    <defs>
        <path d="M5.81582566,8.54014876 C5.81582566,4.76002171 8.93108083,1.6957344 12.7740822,1.6957344 C16.616907,1.6957344 19.7323388,4.76002171 19.7323388,8.54014876 C19.7323388,12.3202758 16.616907,15.3845631 12.7740822,15.3845631 C8.93108083,15.3845631 5.81582566,12.3202758 5.81582566,8.54014876 L5.81582566,8.54014876 Z M12.7740822,17.0190812 C17.5513953,17.0190812 21.393867,13.2393015 21.393867,8.54014876 C21.393867,3.84099601 17.5513953,0.0612162809 12.7740822,0.0612162809 C7.9967691,0.0612162809 4.15412083,3.84099601 4.15412083,8.54014876 C4.15412083,13.2393015 7.9967691,17.0190812 12.7740822,17.0190812 Z M23.7826119,29.2776198 L1.66174014,29.2776198 C2.07716634,23.659094 6.95829186,19.1641692 12.6702698,19.1641692 C18.4860601,19.1641692 23.3671857,23.55698 23.7826119,29.2776198 Z M12.7740822,17.5298247 C5.71201324,17.5298247 3.53103442e-05,23.1483505 3.53103442e-05,30.0948789 C3.53103442e-05,30.5035084 0.415461517,30.9121379 0.830887724,30.9121379 L24.7172767,30.9121379 C24.9249015,30.9121379 25.2365153,30.8098503 25.3403277,30.6056223 C25.5481291,30.4012208 25.5481291,30.1969928 25.5481291,29.8904773 C25.4441401,23.0460629 19.7323388,17.5298247 12.7740822,17.5298247 Z" id="path-1"></path>
    </defs>
    <g id="官网" stroke="none" stroke-width="1" fill="none" fill-rule="evenodd">
        <g id="Zone" transform="translate(-1197.000000, -71.000000)">
            <g id="tab" transform="translate(824.000000, 60.000000)">
                <g id="Group" transform="translate(57.000000, 11.000000)">
                    <g id="intership" transform="translate(274.000000, 0.000000)">
                        <g id="topbar_service_trader" transform="translate(38.000000, 0.000000)">
                            <g id="Group-5" transform="translate(0.000000, 2.155429)"></g>
                            <g id="Page-1" transform="translate(4.315714, 0.000000)">
                                <g id="Group-3" transform="translate(0.000000, 0.112360)">
                                    <g id="Fill-1">
                                        <use fill="#FFFFFF" fill-rule="evenodd" xlink:href="#path-1"></use>
                                        <path stroke="#FFFFFF" stroke-width="0.1" d="M5.86582566,8.54014876 C5.86582566,4.78782225 8.95851213,1.7457344 12.7740822,1.7457344 C16.5895369,1.7457344 19.6823388,4.78788243 19.6823388,8.54014876 C19.6823388,12.2924151 16.5895369,15.3345631 12.7740822,15.3345631 C8.95851213,15.3345631 5.86582566,12.2924753 5.86582566,8.54014876 Z M12.7740822,17.0690812 C17.5787931,17.0690812 21.443867,13.267135 21.443867,8.54014876 C21.443867,3.8131625 17.5787931,0.0112162809 12.7740822,0.0112162809 C7.9693378,0.0112162809 4.10412083,3.81319547 4.10412083,8.54014876 C4.10412083,13.2671021 7.9693378,17.0690812 12.7740822,17.0690812 Z M23.7287146,29.2276198 L1.66174014,29.2276198 C2.12538457,23.685038 6.98838689,19.2141692 12.6702698,19.2141692 C18.4607916,19.2141692 23.2900491,23.5778108 23.7287146,29.2276198 Z M25.3810324,30.6356799 C25.5666658,30.4506956 25.5981291,30.3076259 25.5981291,29.8904773 C25.4937733,23.0215409 19.7632844,17.4798247 12.7740822,17.4798247 C5.68458194,17.4798247 -0.0499646897,23.12055 -0.0499646897,30.0948789 C-0.0499646897,30.5313089 0.388030216,30.9621379 0.830887724,30.9621379 L24.7172767,30.9621379 C24.9774771,30.9621379 25.2748391,30.8334739 25.3810324,30.6356799 Z"></path>
                                    </g>
                                </g>
                                <path d="M14.2279857,21.0132308 C14.2279857,20.9111169 14.2279857,20.8090029 14.0203608,20.8090029 C14.0203608,20.8090029 13.2933208,20.7067153 12.7740822,20.7067153 C12.2548436,20.7067153 11.5278036,20.8090029 11.5278036,20.8090029 C11.4239912,20.8090029 11.3200022,20.9111169 11.3200022,21.0132308 C11.3200022,21.0132308 11.5278036,22.0347178 12.1508546,22.647749 C11.9432298,23.2606064 11.1123774,25.8144976 10.904576,27.4490157 L10.904576,27.5511296 C10.904576,27.5511296 11.5278036,28.1639871 12.5662808,28.7770182 L12.8778946,28.7770182 C14.0203608,28.1639871 14.5395994,27.6532436 14.5395994,27.5511296 L14.5395994,27.4490157 C14.3317981,25.8144976 13.5009457,23.2606064 13.2933208,22.647749 C14.0203608,22.0347178 14.2279857,21.1153448 14.2279857,21.0132308" id="Fill-4" fill="#FFFFFF"></path>
                            </g>
                        </g>
                    </g>
                </g>
            </g>
        </g>
    </g>
</svg>