<?xml version="1.0" encoding="UTF-8"?>
<svg width="33px" height="27px" viewBox="0 0 33 27" version="1.1" xmlns="http://www.w3.org/2000/svg" xmlns:xlink="http://www.w3.org/1999/xlink">
    <!-- Generator: Sketch 43.1 (39012) - http://www.bohemiancoding.com/sketch -->
    <title>topbar_service_floor</title>
    <desc>Created with Sketch.</desc>
    <defs></defs>
    <g id="官网" stroke="none" stroke-width="1" fill="none" fill-rule="evenodd">
        <g id="Zone" transform="translate(-1052.000000, -72.000000)" stroke="#FFFFFF" stroke-width="0.5" fill="#FFFFFF">
            <g id="tab" transform="translate(824.000000, 60.000000)">
                <g id="Group" transform="translate(57.000000, 11.000000)">
                    <g id="zone" transform="translate(138.000000, 2.000000)">
                        <path d="M40.9975904,12.6002735 L39.0572827,14.7741276 C38.8174295,15.0425582 38.8406856,15.4546642 39.1091162,15.6945173 C39.3759701,15.9343705 39.7866965,15.912494 40.0265497,15.6456401 C40.0271409,15.6446547 40.0279293,15.6438663 40.0287176,15.643078 L41.9690253,13.4694209 C42.2084843,13.2007933 42.1852282,12.7888844 41.9171918,12.5488341 C41.6497467,12.3089809 41.2386261,12.3314487 40.9987729,12.5988939 C40.9983788,12.599288 40.9979846,12.5998793 40.9975904,12.6002735 L40.9975904,12.6002735 Z M47.4671222,12.6302305 L51.8993802,15.4274663 C52.2026949,15.6196248 52.6043554,15.5293596 52.7965138,15.2260449 C52.796908,15.2252565 52.7974993,15.2246653 52.7978934,15.2238769 C52.9896577,14.9191826 52.8986042,14.5167338 52.594304,14.3243783 L48.1618489,11.5273395 C47.8577459,11.3355752 47.4556912,11.4264316 47.263927,11.7305347 C47.2637299,11.7307318 47.2637299,11.7309289 47.2635328,11.731126 C47.0717685,12.0356232 47.1628221,12.438072 47.4671222,12.6302305 Z M60.982267,6.32467388 C60.655302,6.17429757 60.268423,6.31738172 60.1180467,6.64434672 L57.1582152,13.0801769 C57.0080359,13.4071419 57.1507259,13.7940209 57.4772968,13.9451856 C57.8042618,14.0949706 58.1909437,13.9518865 58.3415171,13.6253156 L61.3013486,7.18968257 C61.451922,6.86271756 61.3090349,6.47564145 60.982267,6.32467388 L60.982267,6.32467388 Z M34.8794622,18.3914366 C34.8794622,17.3855117 35.6969733,16.5676065 36.7015186,16.5676065 C37.7062609,16.5676065 38.523772,17.3855117 38.523772,18.3914366 C38.523772,19.3973615 37.7062609,20.2156609 36.7015186,20.2156609 C35.6971704,20.2154638 34.8794622,19.3971644 34.8794622,18.3914366 L34.8794622,18.3914366 Z M39.8265078,18.3914366 C39.8265078,16.6665435 38.4246379,15.2634911 36.7017157,15.2634911 C34.9789905,15.2634911 33.5771206,16.6665435 33.5771206,18.3914366 C33.5771206,20.1163298 34.9787934,21.5197763 36.7015186,21.5197763 C38.4246379,21.5197763 39.8265078,20.1163298 39.8265078,18.3914366 L39.8265078,18.3914366 Z M42.4625277,9.8507323 C42.4625277,8.84480741 43.2800387,8.0267051 44.2847811,8.0267051 C45.2895235,8.0267051 46.1072316,8.8450045 46.1072316,9.8507323 C46.1072316,10.8564601 45.2897205,11.6749566 44.2847811,11.6749566 C43.2798416,11.6749566 42.4625277,10.8564601 42.4625277,9.8507323 L42.4625277,9.8507323 Z M47.4097703,9.8507323 C47.4097703,8.12603624 46.0079005,6.7225897 44.2847811,6.7225897 C42.5618588,6.7225897 41.1599889,8.12583915 41.1599889,9.8507323 C41.1599889,11.5756254 42.5618588,12.9788749 44.2847811,12.9788749 C46.0079005,12.9788749 47.4097703,11.5756254 47.4097703,9.8507323 L47.4097703,9.8507323 Z M55.8633628,15.3342449 C56.8684993,15.3342449 57.6856162,16.1529384 57.6856162,17.1588633 C57.6856162,18.1647882 56.8684993,18.9826934 55.8633628,18.9826934 C54.8586204,18.9826934 54.0411094,18.1647882 54.0411094,17.1588633 C54.0411094,16.1529384 54.8588175,15.3342449 55.8633628,15.3342449 L55.8633628,15.3342449 Z M55.8633628,20.2868088 C57.5866793,20.2868088 58.9885491,18.8833623 58.9885491,17.1588633 C58.9885491,15.4339702 57.5866793,14.0307207 55.8633628,14.0307207 C54.1404405,14.0307207 52.7385707,15.4339702 52.7385707,17.1588633 C52.7385707,18.8833623 54.1404405,20.2868088 55.8633628,20.2868088 L55.8633628,20.2868088 Z M62.4519343,4.9519727 C61.4475861,4.9519727 60.630075,4.13387039 60.630075,3.12794551 C60.630075,2.12202062 61.4475861,1.30372122 62.4519343,1.30372122 C63.457465,1.30372122 64.2749761,2.12202062 64.2749761,3.12794551 C64.2749761,4.13387039 63.457465,4.9519727 62.4519343,4.9519727 L62.4519343,4.9519727 Z M62.4519343,0 C60.7294062,0 59.3273393,1.40324945 59.3273393,3.12814259 C59.3273393,4.85303573 60.7292091,6.25628518 62.4519343,6.25628518 C64.1756449,6.25628518 65.5771206,4.85303573 65.5771206,3.12814259 C65.5771206,1.40324945 64.1756449,0 62.4519343,0 L62.4519343,0 Z M63.4026752,6.7225897 C63.0425998,6.72298388 62.7511102,7.01486764 62.7509132,7.37474594 L62.7509132,23.2661518 C62.7509132,23.8654891 62.2639146,24.3528818 61.6657599,24.3528818 L38.4384339,24.3528818 C37.8388996,24.3518963 37.3532806,23.8656862 37.3528865,23.2661518 L37.3528865,22.7221955 C37.3530836,22.3623172 37.0613969,22.0704335 36.7015186,22.0700393 C36.3416403,22.0704335 36.0501507,22.3623172 36.0503478,22.7221955 L36.0503478,23.2661518 C36.0503478,24.5842603 37.1217051,25.656603 38.4384339,25.656603 L61.6657599,25.656603 C62.9822916,25.656603 64.053846,24.5842603 64.053846,23.2661518 L64.053846,7.37474594 C64.0542402,7.01506473 63.7629477,6.72298388 63.4032665,6.7225897 L63.4026752,6.7225897 Z M36.7015186,14.7548132 C37.0613969,14.7546161 37.3530836,14.4629294 37.3528865,14.1030511 L37.3528865,14.102657 L37.3528865,4.36012466 C37.3532806,3.76059027 37.8388996,3.2743801 38.4384339,3.27339468 L58.0474654,3.27339468 C58.4075408,3.27319759 58.6992275,2.98151091 58.6992275,2.62143552 C58.6994245,2.26155722 58.4077379,1.96947637 58.0478596,1.96927928 L58.0474654,1.96927928 L38.4384339,1.96927928 C37.121508,1.96927928 36.0503478,3.0418191 36.0503478,4.35992757 L36.0503478,14.102657 C36.0499536,14.4625353 36.3414432,14.754419 36.7013215,14.7548132 L36.7015186,14.7548132 Z" id="topbar_service_floor"></path>
                    </g>
                </g>
            </g>
        </g>
    </g>
</svg>