<?xml version="1.0" encoding="UTF-8"?>
<svg width="39px" height="29px" viewBox="0 0 39 29" version="1.1" xmlns="http://www.w3.org/2000/svg" xmlns:xlink="http://www.w3.org/1999/xlink">
    <!-- Generator: Sketch 46.1 (44463) - http://www.bohemiancoding.com/sketch -->
    <title>topbar_service_program</title>
    <desc>Created with Sketch.</desc>
    <defs></defs>
    <g id="官网" stroke="none" stroke-width="1" fill="none" fill-rule="evenodd">
        <g id="Zone" transform="translate(-907.000000, -73.000000)" stroke="#FFFFFF" stroke-width="2">
            <g id="tab" transform="translate(824.000000, 60.000000)">
                <g id="Group" transform="translate(61.000000, 11.000000)">
                    <g id="academy" transform="translate(0.000000, 3.000000)">
                        <path d="M44.1740011,16.8813226 C46.0063052,16.105215 48.4764248,14.8212272 51.1698877,13.636578 L51.1698877,23.1515122 C51.1698877,23.1515122 47.6861645,26.9573781 41.5627587,26.9573781 C34.9682699,26.9573781 31.4058306,23.1515122 31.4058306,23.1515122 L31.4058306,14.2700803 C33.4842572,15.1397306 35.8189151,15.8882068 38.6443352,16.8813226 C40.3851185,17.5176554 42.594963,17.7374942 44.1740011,16.8813226 M57.6558724,8.56168587 L57.6558724,14.5879097 L58.8909322,15.856936 L56.315813,18.6094359 L53.7080751,15.9378086 L55.4936079,14.2700803 L55.4936079,9.51220881 C47.9174602,12.7200216 45.4884508,13.7174507 43.8087264,14.4957149 C42.1281932,15.2738444 40.9186082,15.2703399 39.2522277,14.6255155 C37.585982,13.9806911 29.6529164,11.0076785 25.7137455,9.07172257 C23.0853852,7.77991713 22.9158222,6.96054263 25.7590342,5.86458374 C29.4692008,4.41750286 35.6017721,2.09915421 38.8521778,0.834306316 C40.7760028,0.0348803935 41.7932457,-0.401427431 43.5596387,0.509467929 C46.7128624,1.84737076 53.919557,4.62386285 57.5019448,6.14332473 C60.6217412,7.54080373 58.5248488,8.00123856 57.6558724,8.56168587" id="topbar_service_program"></path>
                    </g>
                </g>
            </g>
        </g>
    </g>
</svg>