<?xml version="1.0" encoding="UTF-8"?>
<svg width="38px" height="29px" viewBox="0 0 38 29" version="1.1" xmlns="http://www.w3.org/2000/svg" xmlns:xlink="http://www.w3.org/1999/xlink">
    <!-- Generator: Sketch 43.1 (39012) - http://www.bohemiancoding.com/sketch -->
    <title>topbar_service_program</title>
    <desc>Created with Sketch.</desc>
    <defs></defs>
    <g id="官网" stroke="none" stroke-width="1" fill="none" fill-rule="evenodd">
        <g id="Zone" transform="translate(-907.000000, -73.000000)" stroke="#FFFFFF" stroke-width="1.5">
            <g id="tab" transform="translate(824.000000, 60.000000)">
                <g id="Group" transform="translate(57.000000, 11.000000)">
                    <g id="academy" transform="translate(0.000000, 3.000000)">
                        <path d="M48.1740011,16.8813226 C50.0063052,16.105215 52.4764248,14.8212272 55.1698877,13.636578 L55.1698877,23.1515122 C55.1698877,23.1515122 51.6861645,26.9573781 45.5627587,26.9573781 C38.9682699,26.9573781 35.4058306,23.1515122 35.4058306,23.1515122 L35.4058306,14.2700803 C37.4842572,15.1397306 39.8189151,15.8882068 42.6443352,16.8813226 C44.3851185,17.5176554 46.594963,17.7374942 48.1740011,16.8813226 M61.6558724,8.56168587 L61.6558724,14.5879097 L62.8909322,15.856936 L60.315813,18.6094359 L57.7080751,15.9378086 L59.4936079,14.2700803 L59.4936079,9.51220881 C51.9174602,12.7200216 49.4884508,13.7174507 47.8087264,14.4957149 C46.1281932,15.2738444 44.9186082,15.2703399 43.2522277,14.6255155 C41.585982,13.9806911 33.6529164,11.0076785 29.7137455,9.07172257 C27.0853852,7.77991713 26.9158222,6.96054263 29.7590342,5.86458374 C33.4692008,4.41750286 39.6017721,2.09915421 42.8521778,0.834306316 C44.7760028,0.0348803935 45.7932457,-0.401427431 47.5596387,0.509467929 C50.7128624,1.84737076 57.919557,4.62386285 61.5019448,6.14332473 C64.6217412,7.54080373 62.5248488,8.00123856 61.6558724,8.56168587" id="topbar_service_program"></path>
                    </g>
                </g>
            </g>
        </g>
    </g>
</svg>