<?xml version="1.0" encoding="utf-8"?>
<!-- Generator: Adobe Illustrator 17.1.0, SVG Export Plug-In . SVG Version: 6.00 Build 0)  -->
<!DOCTYPE svg PUBLIC "-//W3C//DTD SVG 1.1//EN" "http://www.w3.org/Graphics/SVG/1.1/DTD/svg11.dtd">
<svg version="1.1" id="图层_1" xmlns="http://www.w3.org/2000/svg" xmlns:xlink="http://www.w3.org/1999/xlink" x="0px" y="0px"
	 viewBox="0 0 120 31" enable-background="new 0 0 120 31" xml:space="preserve">
<title>Alpha_logo</title>
<desc>Created with Sketch.</desc>
<path id="Fill-1" fill="#1F2532" d="M33.9,18.2c-5.5,0-8.2-1.5-8.2-4.5V1.4c0-0.7,0.4-1.1,1.3-1.1c0.9,0,1.3,0.4,1.3,1.1v12.2
	c0,1.6,1.8,2.4,5.4,2.4h10.3c0.7,0,1,0.4,1,1.1c0,0.7-0.3,1-1,1H33.9z"/>
<path id="Fill-3" fill="#1F2532" d="M65.7,4.6c0-1.4-1.4-2.1-4.1-2.1H49.8v6.9h11.6c2.8,0,4.3-0.7,4.3-2.1V4.6z M68.3,7.5
	c0,2.8-2.4,4.2-7.2,4.2H49.8v5.5c0,0.8-0.5,1.1-1.4,1.1c-0.9,0-1.3-0.4-1.3-1.1V1.3c0-0.6,0.3-0.8,0.9-0.8h13.2
	c4.7,0,7.1,1.3,7.1,3.9V7.5z"/>
<path id="Fill-5" fill="#1F2532" d="M92.5,17.2c0,0.8-0.4,1.1-1.3,1.1c-0.9,0-1.3-0.4-1.3-1.1v-6.7H74v6.7c0,0.8-0.5,1.1-1.4,1.1
	c-0.9,0-1.3-0.4-1.3-1.1V1.4c0-0.7,0.5-1.1,1.4-1.1c0.9,0,1.3,0.4,1.3,1.1v6.9h15.9V1.4c0-0.7,0.4-1.1,1.2-1.1
	c0.9,0,1.4,0.4,1.4,1.1V17.2z"/>
<g id="Group-9" transform="translate(94.681319, 0.158505)">
	<g id="Clip-8">
	</g>
	<defs>
		<filter id="Adobe_OpacityMaskFilter" filterUnits="userSpaceOnUse" x="0.1" y="0.1" width="24.2" height="18">
			<feColorMatrix  type="matrix" values="1 0 0 0 0  0 1 0 0 0  0 0 1 0 0  0 0 0 1 0"/>
		</filter>
	</defs>
	<mask maskUnits="userSpaceOnUse" x="0.1" y="0.1" width="24.2" height="18" id="mask-2">
		<g filter="url(#Adobe_OpacityMaskFilter)">
			<polygon id="path-1" fill="#FFFFFF" points="24.3,0.1 0.1,0.1 0.1,18.1 24.3,18.1 			"/>
		</g>
	</mask>
	<path id="Fill-7" mask="url(#mask-2)" fill="#1F2532" d="M6.8,11h10.7l-5.3-8.5L6.8,11z M18.9,13.2H5.4l-2.9,4.4
		c-0.1,0.2-0.3,0.4-0.5,0.4c-0.2,0.1-0.3,0.1-0.4,0.1c-0.4,0-0.7-0.1-1-0.3c-0.3-0.2-0.4-0.5-0.4-0.9c0-0.2,0.1-0.4,0.2-0.7L10.4,1
		c0.2-0.3,0.5-0.5,0.8-0.7c0.3-0.1,0.6-0.2,0.9-0.2c0.7,0,1.2,0.3,1.6,0.9L24,16.2c0.1,0.1,0.2,0.2,0.2,0.3c0,0.1,0,0.2,0,0.3
		c0,0.4-0.1,0.7-0.4,0.9c-0.3,0.2-0.6,0.3-0.9,0.3c-0.2,0-0.4,0-0.6-0.1c-0.2-0.1-0.4-0.2-0.5-0.4L18.9,13.2z"/>
</g>
<g id="Group-12" transform="translate(0.000000, 0.158505)">
	<g id="Clip-11">
	</g>
	<defs>
		<filter id="Adobe_OpacityMaskFilter_1_" filterUnits="userSpaceOnUse" x="0" y="0.1" width="24.2" height="18">
			<feColorMatrix  type="matrix" values="1 0 0 0 0  0 1 0 0 0  0 0 1 0 0  0 0 0 1 0"/>
		</filter>
	</defs>
	<mask maskUnits="userSpaceOnUse" x="0" y="0.1" width="24.2" height="18" id="mask-4">
		<g filter="url(#Adobe_OpacityMaskFilter_1_)">
			<polygon id="path-3" fill="#FFFFFF" points="0,0.1 24.2,0.1 24.2,18.1 0,18.1 			"/>
		</g>
	</mask>
	<path id="Fill-10" mask="url(#mask-4)" fill="#1F2532" d="M24.1,16.6c0-0.1-0.1-0.2-0.2-0.3L13.7,1c-0.4-0.6-1-0.9-1.6-0.9
		c-0.3,0-0.6,0.1-0.9,0.2c-0.3,0.1-0.6,0.4-0.8,0.7L0.2,16.2C0.1,16.5,0,16.7,0,16.9c0,0.4,0.1,0.7,0.4,0.9c0.3,0.2,0.6,0.3,1,0.3
		c0.1,0,0.3,0,0.4-0.1c0.2-0.1,0.3-0.2,0.5-0.4l2.2-3.3h0l3.3-5.1l4.3-6.7L16,8.9l2.8,4.4h0l2.9,4.3c0.1,0.2,0.3,0.3,0.5,0.4
		c0.2,0.1,0.4,0.1,0.6,0.1c0.4,0,0.7-0.1,0.9-0.3c0.3-0.2,0.4-0.5,0.4-0.9C24.2,16.8,24.2,16.7,24.1,16.6"/>
</g>
<path id="Fill-13" fill="#1F2532" d="M5.1,25.3H0.6c-0.2,0-0.3-0.1-0.3-0.3c0-0.2,0.1-0.3,0.3-0.3h5.3c0.1,0,0.2,0,0.3,0.1
	c0.1,0.1,0.1,0.2,0.1,0.3c0,0.1,0,0.2-0.1,0.3l-4.9,4.3H6c0.2,0,0.3,0.1,0.3,0.3c0,0.2-0.1,0.3-0.3,0.3H0.7c-0.2,0-0.3,0-0.4-0.1
	c-0.1-0.1-0.1-0.2-0.1-0.3c0-0.1,0-0.1,0-0.2c0-0.1,0.1-0.1,0.1-0.1L5.1,25.3z"/>
<path id="Fill-15" fill="#1F2532" d="M11.6,27.2c0-0.4-0.4-0.6-1.1-0.6H8.8c-0.8,0-1.2,0.2-1.2,0.7v1.6c0,0.4,0.4,0.6,1.2,0.6h1.8
	c0.7,0,1.1-0.2,1.1-0.6V27.2z M12.4,28.9c0,0.9-0.7,1.3-2,1.3H8.8c-1.4,0-2.1-0.4-2.1-1.3v-1.7c0-0.9,0.7-1.3,2.1-1.3h1.5
	c1.3,0,2,0.4,2,1.3V28.9z"/>
<path id="Fill-17" fill="#1F2532" d="M19.1,29.9c0,0.2-0.1,0.3-0.4,0.3c-0.3,0-0.4-0.1-0.4-0.3v-2.8c0-0.3-0.4-0.5-1.1-0.5h-1.9
	c-0.7,0-1.1,0.2-1.1,0.5v2.8c0,0.2-0.1,0.3-0.4,0.3c-0.3,0-0.4-0.1-0.4-0.3v-2.8c0-0.8,0.7-1.2,2.1-1.2H17c1.4,0,2.1,0.4,2.1,1.2
	V29.9z"/>
<path id="Fill-19" fill="#1F2532" d="M20.8,27.8H25v-0.6c0-0.4-0.3-0.6-0.9-0.6H22c-0.8,0-1.2,0.2-1.2,0.6V27.8z M25.8,28.1
	c0,0.2-0.1,0.3-0.3,0.3h-4.6V29c0,0.4,0.4,0.6,1.2,0.6h0.8c0.2,0,0.3,0.1,0.3,0.3c0,0.2-0.1,0.3-0.3,0.3h-0.6
	c-1.4,0-2.2-0.4-2.2-1.3v-1.6c0-0.9,0.7-1.3,2.1-1.3H24c1.2,0,1.8,0.4,1.8,1.1V28.1z"/>
<g id="Group-23" transform="translate(51.428571, 24.422242)">
	<g id="Clip-22">
	</g>
	<defs>
		<filter id="Adobe_OpacityMaskFilter_2_" filterUnits="userSpaceOnUse" x="0.2" y="0.2" width="6" height="5.6">
			<feColorMatrix  type="matrix" values="1 0 0 0 0  0 1 0 0 0  0 0 1 0 0  0 0 0 1 0"/>
		</filter>
	</defs>
	<mask maskUnits="userSpaceOnUse" x="0.2" y="0.2" width="6" height="5.6" id="mask-6">
		<g filter="url(#Adobe_OpacityMaskFilter_2_)">
			<polygon id="path-5" fill="#FFFFFF" points="0.2,5.8 6.3,5.8 6.3,0.2 0.2,0.2 			"/>
		</g>
	</mask>
	<path id="Fill-21" mask="url(#mask-6)" fill="#1F2532" d="M3.7,0.8v4.6c0,0.2-0.1,0.4-0.4,0.4C3,5.8,2.8,5.7,2.8,5.4V0.8H0.5
		c-0.2,0-0.3-0.1-0.3-0.3c0-0.2,0.1-0.3,0.3-0.3H6c0.2,0,0.3,0.1,0.3,0.3c0,0.2-0.1,0.3-0.3,0.3H3.7z"/>
</g>
<g id="Group-26" transform="translate(57.758242, 24.422242)">
	<g id="Clip-25">
	</g>
	<defs>
		<filter id="Adobe_OpacityMaskFilter_3_" filterUnits="userSpaceOnUse" x="0.2" y="0.1" width="7.6" height="5.7">
			<feColorMatrix  type="matrix" values="1 0 0 0 0  0 1 0 0 0  0 0 1 0 0  0 0 0 1 0"/>
		</filter>
	</defs>
	<mask maskUnits="userSpaceOnUse" x="0.2" y="0.1" width="7.6" height="5.7" id="mask-8">
		<g filter="url(#Adobe_OpacityMaskFilter_3_)">
			<polygon id="path-7" fill="#FFFFFF" points="0.2,5.8 7.8,5.8 7.8,0.1 0.2,0.1 			"/>
		</g>
	</mask>
	<path id="Fill-24" mask="url(#mask-8)" fill="#1F2532" d="M4,5l3-4.7c0.1-0.1,0.2-0.2,0.3-0.2c0.1,0,0.2,0,0.3,0.1
		c0.1,0.1,0.1,0.2,0.1,0.3c0,0,0,0.1,0,0.1c0,0,0,0.1,0,0.1L4.5,5.5C4.4,5.6,4.3,5.7,4.3,5.7C4.2,5.8,4.1,5.8,4,5.8
		c-0.2,0-0.4-0.1-0.5-0.3L0.2,0.7C0.2,0.7,0.2,0.6,0.2,0.5c0-0.1,0-0.2,0.1-0.3c0.1-0.1,0.2-0.1,0.3-0.1c0.1,0,0.1,0,0.2,0
		c0.1,0,0.1,0.1,0.2,0.1L4,5z"/>
</g>
<path id="Fill-27" fill="#1F2532" d="M91.9,25.3v4.6c0,0.2-0.1,0.4-0.4,0.4c-0.3,0-0.4-0.1-0.4-0.4v-4.6h-2.3
	c-0.2,0-0.3-0.1-0.3-0.3c0-0.2,0.1-0.3,0.3-0.3h5.4c0.2,0,0.3,0.1,0.3,0.3c0,0.2-0.1,0.3-0.3,0.3H91.9z"/>
<path id="Fill-29" fill="#1F2532" d="M96.4,26.5c-0.7,0-1.1,0.2-1.1,0.7v2.7c0,0.2-0.1,0.4-0.4,0.4c-0.3,0-0.4-0.1-0.4-0.3v-2.7
	c0-0.9,0.7-1.3,2-1.3h0.4c0.2,0,0.3,0.1,0.3,0.3c0,0.2-0.1,0.3-0.2,0.3H96.4z"/>
<path id="Fill-31" fill="#1F2532" d="M102.2,27.8h-3.6c-0.6,0-0.9,0.2-0.9,0.6V29c0,0.4,0.3,0.5,1,0.5h2.6c0.6,0,0.9-0.3,0.9-0.8
	V27.8z M102.9,28.9c0,0.8-0.6,1.2-1.8,1.2h-2.3c-1.3,0-1.9-0.4-1.9-1.2v-0.6c0-0.8,0.6-1.2,1.9-1.2h3.4c-0.1-0.4-0.4-0.6-0.9-0.6
	h-0.9c-0.2,0-0.3-0.1-0.3-0.3c0-0.2,0.1-0.3,0.3-0.3h0.8c1.2,0,1.8,0.4,1.8,1.3V28.9z"/>
<path id="Fill-33" fill="#1F2532" d="M108.9,26.6h-3c-0.8,0-1.2,0.3-1.2,0.8v1.5c0,0.5,0.4,0.7,1.1,0.7h1.8c0.9,0,1.3-0.2,1.3-0.7
	V26.6z M109.6,28.9c0,0.8-0.7,1.3-2.2,1.3H106c-1.4,0-2.1-0.4-2.1-1.2v-1.8c0-0.9,0.7-1.3,2.1-1.3h2.9v-1c0-0.2,0.1-0.3,0.4-0.3
	c0.3,0,0.4,0.1,0.4,0.3V28.9z"/>
<path id="Fill-35" fill="#1F2532" d="M111.4,27.8h4.2v-0.6c0-0.4-0.3-0.6-0.9-0.6h-2.1c-0.8,0-1.2,0.2-1.2,0.6V27.8z M116.3,28.1
	c0,0.2-0.1,0.3-0.3,0.3h-4.6V29c0,0.4,0.4,0.6,1.2,0.6h0.8c0.2,0,0.3,0.1,0.3,0.3c0,0.2-0.1,0.3-0.3,0.3h-0.6
	c-1.4,0-2.2-0.4-2.2-1.3v-1.6c0-0.9,0.7-1.3,2.1-1.3h1.8c1.2,0,1.8,0.4,1.8,1.1V28.1z"/>
<path id="Fill-37" fill="#1F2532" d="M119.1,26.5c-0.7,0-1.1,0.2-1.1,0.7v2.7c0,0.2-0.1,0.4-0.4,0.4c-0.3,0-0.4-0.1-0.4-0.3v-2.7
	c0-0.9,0.7-1.3,2-1.3h0.4c0.2,0,0.3,0.1,0.3,0.3c0,0.2-0.1,0.3-0.2,0.3H119.1z"/>
<path id="Fill-39" fill="#1F2532" d="M36.4,28c0,0.3-0.2,0.5-0.5,0.5s-0.5-0.2-0.5-0.5c0-0.3,0.2-0.5,0.5-0.5S36.4,27.7,36.4,28"/>
<path id="Fill-41" fill="#1F2532" d="M79,27.5c0,0.3-0.2,0.5-0.5,0.5c-0.3,0-0.5-0.2-0.5-0.5c0-0.3,0.2-0.5,0.5-0.5
	C78.7,26.9,79,27.2,79,27.5"/>
<g id="Group-46" transform="translate(0.000000, 21.521143)">
	<path id="Stroke-45" fill="#1F2532" stroke="#000000" stroke-width="0.5" stroke-miterlimit="10" d="M0,0H119"/>
</g>
</svg>
