<?xml version="1.0" encoding="UTF-8"?>
<svg width="29px" height="32px" viewBox="0 0 29 32" version="1.1" xmlns="http://www.w3.org/2000/svg" xmlns:xlink="http://www.w3.org/1999/xlink">
    <!-- Generator: Sketch 43.1 (39012) - http://www.bohemiancoding.com/sketch -->
    <title>talent_detail_plan_icon_individual</title>
    <desc>Created with Sketch.</desc>
    <defs></defs>
    <g id="官网" stroke="none" stroke-width="1" fill="none" fill-rule="evenodd">
        <g id="Talent-details" transform="translate(-401.000000, -3234.000000)" fill="#FFFFFF">
            <g id="foter" transform="translate(135.000000, 3180.000000)">
                <g id="Group-13">
                    <g id="talent_detail_plan_icon_individual" transform="translate(266.000000, 54.000000)">
                        <g id="Page-1">
                            <path d="M19.203097,4.5024 C17.9959939,3.28142222 16.3280545,2.52533333 14.4861152,2.52533333 C12.644,2.52533333 10.9753576,3.28142222 9.76825455,4.5024 C8.56132727,5.72337778 7.81365455,7.41048889 7.81365455,9.2736 C7.81365455,11.1368889 8.56132727,12.824 9.76825455,14.0456889 C10.9716667,15.2629333 12.6346848,16.0177778 14.471,16.0220444 L14.5003515,16.0220444 C16.3366667,16.0177778 17.9995091,15.2629333 19.203097,14.0456889 C20.4100242,12.8241778 21.157697,11.1368889 21.157697,9.2736 C21.157697,7.41048889 20.4102,5.72337778 19.203097,4.5024 Z M14.4861152,0 C17.0168485,0 19.3090788,1.03822222 20.9685818,2.71662222 C22.6279091,4.39502222 23.6541576,6.7136 23.6541576,9.2736 C23.6541576,11.8336 22.6279091,14.1530667 20.9685818,15.8307556 C20.5522121,16.2517333 20.0968242,16.6314667 19.6087455,16.9646222 C21.5454182,17.7056 23.2843636,18.8531556 24.7236424,20.3047111 C27.347703,22.9532444 28.9713515,26.6087111 28.9713515,30.6426667 C28.9713515,31.3393778 28.4122667,31.9048889 27.7225939,31.9048889 C27.0338,31.9048889 26.4747152,31.3393778 26.4747152,30.6426667 C26.4747152,27.3004444 25.1343879,24.2762667 22.9674727,22.0904889 C20.8014364,19.9052444 17.8081091,18.5516444 14.5010545,18.5473778 L14.471,18.5473778 C11.1623636,18.5516444 8.16903636,19.9052444 6.00370303,22.0904889 C3.83696364,24.2762667 2.49646061,27.3004444 2.49646061,30.6426667 C2.49646061,31.3393778 1.93755152,31.9048889 1.24787879,31.9048889 C0.559084848,31.9048889 0,31.3393778 0,30.6426667 C0,26.6087111 1.62364848,22.9532444 4.24841212,20.3047111 C5.68628485,18.8531556 7.42505455,17.7056 9.36190303,16.9646222 C8.87417576,16.6312889 8.41896364,16.2517333 8.0027697,15.8307556 C6.34414545,14.1530667 5.31772121,11.8336 5.31772121,9.2736 C5.31772121,6.7136 6.34414545,4.39502222 8.0027697,2.71662222 C9.66209697,1.03822222 11.9543273,0 14.4861152,0 Z" id="talent_plan_individual"></path>
                        </g>
                    </g>
                </g>
            </g>
        </g>
    </g>
</svg>