<?xml version="1.0" standalone="no"?><!DOCTYPE svg PUBLIC "-//W3C//DTD SVG 1.1//EN" "http://www.w3.org/Graphics/SVG/1.1/DTD/svg11.dtd"><svg t="1484028600100" class="icon" style="" viewBox="0 0 1024 1024" version="1.1" xmlns="http://www.w3.org/2000/svg" p-id="9096" xmlns:xlink="http://www.w3.org/1999/xlink" width="32" height="32"><defs><style type="text/css"></style></defs><path d="M127.552559 808.976762c-14.94641 0-29.949103-4.949732-41.99444-14.848173-26.221198-21.533432-28.737508-58.797128-5.54018-83.243913L374.131491 401.149333c12.196787-12.81384 29.617551-20.185738 48.249911-19.895119 18.410302 0.192382 35.831067 7.864108 47.698349 20.955264l84.962044 93.446275 155.951865-176.221514L565.078381 202.901153l363.621625-27.362184 29.728068 341.662497L807.273469 396.393006 604.651678 625.193015c-11.975752 13.474896-29.767977 21.450545-48.563042 21.532409-19.197224 0.193405-36.728506-7.561209-48.871057-20.955264l-86.639243-95.287203L175.099459 788.985452C162.572144 802.267966 145.055189 808.976762 127.552559 808.976762L127.552559 808.976762 127.552559 808.976762zM809.707914 500.123508l-47.588855 56.265468 0 294.993594 194.23375 0-0.728594-244.22942C915.637502 575.419402 809.707914 500.123508 809.707914 500.123508L809.707914 500.123508 809.707914 500.123508zM626.363166 702.05866c-33.920554 26.976398-55.523571 27.637454-55.523571 27.637454-27.952632 4.371564-71.608921-23.568788-93.869924-38.419008l-0.455371 159.14458 230.357482 0 4.360308-239.004419C679.960875 645.572158 654.74354 678.654624 626.363166 702.05866L626.363166 702.05866 626.363166 702.05866zM422.215626 849.541643l0-217.554898L227.9829 838.485843l0 11.0558L422.215626 849.541643 422.215626 849.541643zM422.215626 849.541643" p-id="9097" fill="#ffffff"></path></svg>