<?xml version="1.0" standalone="no"?><!DOCTYPE svg PUBLIC "-//W3C//DTD SVG 1.1//EN" "http://www.w3.org/Graphics/SVG/1.1/DTD/svg11.dtd"><svg t="1484028781677" class="icon" style="" viewBox="0 0 1024 1024" version="1.1" xmlns="http://www.w3.org/2000/svg" p-id="14830" xmlns:xlink="http://www.w3.org/1999/xlink" width="32" height="32"><defs><style type="text/css"></style></defs><path d="M176.896 768.00512c-36.67456 0-71.50592 11.86304-103.10656 25.6l0 2.35008C58.81344 801.25952 48 815.3088 48 832.00512c0 16.68608 10.81344 30.73536 25.77408 36.03968l0 2.36032c0.78336-0.59392 1.64864-1.024 2.47808-1.61792 3.328 0.97792 6.784 1.61792 10.4192 1.61792 14.73536 0 27.392-8.28928 33.92-20.35712 21.46816-4.6592 44.7488-5.24288 69.18144-5.24288 73.71264 0 137.6512 41.06752 170.25536 101.31968-1.664 4.34176-2.70336 8.99584-2.70336 13.88032 0 21.1968 17.29536 38.4 38.67136 38.4 21.376 0 38.67136-17.2032 38.67136-38.4 0-4.52096-0.92672-8.79104-2.36544-12.8l2.36544 0C401.82272 843.34592 292.31616 768.00512 176.896 768.00512M950.21056 153.6c-26.27584-26.08128-231.68 1.37216-257.78176 25.6-27.56608-74.20928-78.94528-127.32928-180.42368-179.2C409.36448 54.0928 359.51616 104.09984 331.55072 179.2 304 155.10016 125.33248 128.54272 73.7792 153.6c0 288.76288 111.616 621.16352 412.43136 639.13472l0 205.6704c0 14.1568 11.55072 25.6 25.77408 25.6 14.2592 0 25.7792-11.4432 25.7792-25.6l0-205.6192C859.55584 775.90528 950.21056 442.88 950.21056 153.6M512.00512 716.80512c-252.35968 0-360.8832-246.94784-360.8832-486.4 51.584-25.63584 183.24992 28.3648 206.22336 51.2 22.03136-60.57984 73.79456-161.18784 154.66496-204.8 79.9744 41.82016 132.91008 144.94208 154.67008 204.8 25.35424-25.96864 179.32288-77.90592 206.21824-51.2C872.87808 469.85728 782.11584 716.80512 512.00512 716.80512M950.21056 795.97056l0-2.36544c-31.60576-13.73696-66.42176-25.6-103.10656-25.6-115.42528 0-224.93184 75.3408-257.77664 179.2l2.36544 0c-1.43872 4.00896-2.36544 8.27904-2.36544 12.8 0 21.1968 17.32608 38.4 38.67136 38.4s38.656-17.2032 38.656-38.4c0-4.89984-1.00352-9.55392-2.66752-13.88032 32.59392-60.25728 96.52736-101.31968 170.24-101.31968 24.42752 0 47.71328 0.58368 69.18144 5.24288 6.54848 12.06272 19.2 20.34688 33.92 20.34688 3.6352 0 7.06048-0.64 10.4192-1.60768 0.82944 0.5888 1.67936 1.024 2.47808 1.60768l0-2.35008c14.96064-5.30432 25.77408-19.3536 25.77408-36.03968C976 815.3088 965.18656 801.25952 950.21056 795.97056" p-id="14831" fill="#ffffff"></path></svg>