<?xml version="1.0" standalone="no"?><!DOCTYPE svg PUBLIC "-//W3C//DTD SVG 1.1//EN" "http://www.w3.org/Graphics/SVG/1.1/DTD/svg11.dtd"><svg t="1484535382721" class="icon" style="" viewBox="0 0 1024 1024" version="1.1" xmlns="http://www.w3.org/2000/svg" p-id="19647" xmlns:xlink="http://www.w3.org/1999/xlink" width="32" height="32"><defs><style type="text/css"></style></defs><path d="M890.76451 777.691221 562.928926 777.691221l0 0L407.453922 777.691221l0 0-39.164998 0 0 0-9.815553 0L252.370845 885.662305c-7.067976 7.262404-16.883529 11.777231-27.681456 11.777231l0 0 0 0c-0.194428 0-0.390903-0.098237-0.488117-0.098237-10.700713-0.098237-20.318768-4.514827-27.287483-11.678994-0.100284-0.098237-0.198521-0.296759-0.39295-0.49221-1.571798-1.667989-3.043313-3.434216-4.321422-5.39794-0.586354-0.784876-0.881067-1.569752-1.373277-2.452865-0.784876-1.375324-1.667989-2.749624-2.25639-4.319375-0.294712-0.688685-0.490164-1.471514-0.686638-2.258437-0.590448-1.667989-1.277086-3.436262-1.670036-5.201465-0.488117-2.651386-0.784876-5.299703-0.784876-8.04728l0 0 0-79.801511-6.477528 0 0 0-45.740764 0c-21.594831 0-39.164998-17.862833-39.164998-39.947827L94.04491 165.699879c0-21.985734 17.570167-39.947827 39.164998-39.947827l757.554602 0c21.592784 0 39.162952 17.962094 39.162952 39.947827l0 572.043514C929.927461 759.828388 912.357294 777.691221 890.76451 777.691221L890.76451 777.691221z" p-id="19648" fill="#d3d7d8"></path></svg>