<?xml version="1.0" standalone="no"?><!DOCTYPE svg PUBLIC "-//W3C//DTD SVG 1.1//EN" "http://www.w3.org/Graphics/SVG/1.1/DTD/svg11.dtd"><svg t="1484028727703" class="icon" style="" viewBox="0 0 1024 1024" version="1.1" xmlns="http://www.w3.org/2000/svg" p-id="12401" xmlns:xlink="http://www.w3.org/1999/xlink" width="32" height="32"><defs><style type="text/css"></style></defs><path d="M277.824 94.464c8.384-13.056 17.344-25.664 26.944-37.76C150.72 58.176 26.24 183.488 26.24 338.112c0 71.424 27.392 135.936 71.168 185.536-58.496 58.304-94.336 139.84-94.336 226.944 0 50.368 64.192 76.16 135.488 89.472 0.448-11.968 1.088-23.808 2.496-35.52-70.208-13.952-102.784-34.368-102.784-44.416 0-81.792 31.232-158.144 81.92-213.376 27.392 24.64 59.84 43.136 95.232 55.616C222.144 592.192 229.568 582.464 237.248 572.8c-101.568-30.272-176-123.136-176-234.688C61.248 212.032 156.032 109.312 277.824 94.464zM908.928 598.848c52.736-59.136 85.76-135.872 85.76-220.8 0-61.12-17.728-117.568-46.656-166.912 1.088-0.448 2.432-0.832 3.584-1.28l-4.288 0c-58.944-99.712-167.168-167.424-292.544-167.424-125.312 0-233.536 67.712-292.48 167.424L357.504 209.856c1.216 0.512 2.688 0.896 3.968 1.408C332.672 260.608 314.88 317.056 314.88 378.048c0 85.184 33.152 162.112 86.144 221.248-71.104 69.696-114.688 167.104-114.688 271.296 0 114.432 281.856 123.328 368.256 123.328s368.32-8.896 368.32-123.328C1022.848 766.464 979.584 668.8 908.928 598.848zM654.464 84.416c100.48 0 188.928 49.536 242.816 124.864-66.112 25.088-150.144 43.072-242.688 43.072-92.672 0-176.704-18.048-242.88-43.2C465.536 133.888 553.984 84.416 654.464 84.416zM356.928 378.048c0-56 16.768-107.904 44.352-152.384 70.912 24 157.888 40.704 253.312 40.704 95.232 0 182.208-16.64 253.056-40.576 27.584 44.48 44.288 96.32 44.288 152.32 0 162.176-133.248 293.632-297.472 293.632C490.176 671.68 356.928 540.224 356.928 378.048zM654.592 952c-225.6 0-325.696-50.816-325.696-70.144 0-97.792 37.952-189.12 99.584-255.04 60.16 53.44 139.008 86.912 226.368 86.912 87.552 0 166.656-33.6 226.88-87.296 61.056 66.24 98.688 157.632 98.688 255.424C980.288 901.184 880.064 952 654.592 952zM739.648 521.984c4.992-4.544 5.568-12.096 1.28-16.768-4.416-4.544-12.032-4.672-17.024-0.064-40.192 36.672-100.928 36.352-135.68-0.768C583.808 499.776 576.256 499.776 571.2 504.32S565.568 516.48 569.92 521.152C613.312 567.488 689.408 567.872 739.648 521.984z" p-id="12402" fill="#ffffff"></path></svg>