<?xml version="1.0" standalone="no"?><!DOCTYPE svg PUBLIC "-//W3C//DTD SVG 1.1//EN" "http://www.w3.org/Graphics/SVG/1.1/DTD/svg11.dtd"><svg t="1484030110380" class="icon" style="" viewBox="0 0 1265 1024" version="1.1" xmlns="http://www.w3.org/2000/svg" p-id="15329" xmlns:xlink="http://www.w3.org/1999/xlink" width="39.53125" height="32"><defs><style type="text/css"></style></defs><path d="M6.023529 54.211765l1204.705882 0 0 60.235294-1204.705882 0 0-60.235294Z" p-id="15330" fill="#ffffff"></path><path d="M108.423529 84.329412l60.235294 0 0 909.552941-60.235294 0 0-909.552941Z" p-id="15331" fill="#ffffff"></path><path d="M1036.047059 84.329412l60.235294 0 0 909.552941-60.235294 0 0-909.552941Z" p-id="15332" fill="#ffffff"></path><path d="M132.517647 186.729412l927.623529 0 0 60.235294-927.623529 0 0-60.235294Z" p-id="15333" fill="#ffffff"></path><path d="M451.764706 915.576471 162.635294 915.576471 162.635294 855.341176 451.764706 855.341176C463.811765 855.341176 469.835294 849.317647 469.835294 837.270588L469.835294 240.941176 530.070588 240.941176 530.070588 837.270588C530.070588 879.435294 493.929412 915.576471 451.764706 915.576471L451.764706 915.576471Z" p-id="15334" fill="#ffffff"></path><path d="M162.635294 427.670588l265.035294 0 0 60.235294-265.035294 0 0-60.235294Z" p-id="15335" fill="#ffffff"></path><path d="M162.635294 638.494118l265.035294 0 0 60.235294-265.035294 0 0-60.235294Z" p-id="15336" fill="#ffffff"></path><path d="M524.047059 427.670588l512 0 0 60.235294-512 0 0-60.235294Z" p-id="15337" fill="#ffffff"></path><path d="M752.941176 301.176471l96.376471 0 0 96.376471-96.376471 0 0-96.376471Z" p-id="15338" fill="#ffffff"></path></svg>