<?xml version="1.0" standalone="no"?><!DOCTYPE svg PUBLIC "-//W3C//DTD SVG 1.1//EN" "http://www.w3.org/Graphics/SVG/1.1/DTD/svg11.dtd"><svg t="1483947446388" class="icon" style="" viewBox="0 0 1024 1024" version="1.1" xmlns="http://www.w3.org/2000/svg" p-id="1178" xmlns:xlink="http://www.w3.org/1999/xlink" width="32" height="32"><defs><style type="text/css"></style></defs><path d="M511.570211 82.211397c-237.243309 0-429.358815 192.545294-429.358815 429.788603s192.115506 429.788603 429.358815 429.788603c237.673098 0 430.218392-192.545294 430.218392-429.788603S749.243309 82.211397 511.570211 82.211397zM809.413714 340.084559l-126.787638 0c-13.753235-53.723575-33.523511-105.298208-59.310827-153.004743C702.396351 214.156498 768.154008 269.169439 809.413714 340.084559zM512 169.888272c35.672454 51.574632 63.608713 108.736517 82.089623 170.196287l-164.179246 0C448.391287 278.624788 476.327546 221.462904 512 169.888272zM179.343621 597.957721c-6.876618-27.506471-11.174504-56.302307-11.174504-85.957721 0-29.655414 4.297886-58.45125 11.174504-85.957721l145.268548 0c-3.438309 28.366048-6.01704 56.732096-6.01704 85.957721 0 29.225625 2.578732 57.591673 6.01704 85.957721L179.343621 597.957721zM214.586286 683.915441l126.787638 0c13.753235 53.723575 33.523511 105.298208 59.310827 153.004743C321.603649 809.843502 255.845992 755.260349 214.586286 683.915441zM341.373924 340.084559l-126.787638 0c41.259706-71.344908 107.017362-125.928061 186.098465-153.004743C374.897436 234.786351 355.12716 286.360983 341.373924 340.084559zM512 854.111728c-35.672454-51.574632-63.608713-108.736517-82.089623-170.196287l164.179246 0C575.608713 745.375212 547.672454 802.537096 512 854.111728zM612.570533 597.957721l-201.141066 0c-3.868097-28.366048-6.876618-56.732096-6.876618-85.957721 0-29.225625 3.00852-58.021461 6.876618-85.957721l201.141066 0c3.868097 27.936259 6.876618 56.732096 6.876618 85.957721C619.447151 541.225625 616.438631 569.591673 612.570533 597.957721zM623.315248 836.920184c25.787316-47.706535 45.557592-99.281167 59.310827-153.004743l126.787638 0C768.154008 754.830561 702.396351 809.843502 623.315248 836.920184zM699.387831 597.957721c3.438309-28.366048 6.01704-56.732096 6.01704-85.957721 0-29.225625-2.578732-57.591673-6.01704-85.957721l145.268548 0c6.876618 27.506471 11.174504 56.302307 11.174504 85.957721s-4.297886 58.45125-11.174504 85.957721L699.387831 597.957721z" p-id="1179" fill="#cdb083"></path></svg>