<?xml version="1.0" standalone="no"?><!DOCTYPE svg PUBLIC "-//W3C//DTD SVG 1.1//EN" "http://www.w3.org/Graphics/SVG/1.1/DTD/svg11.dtd"><svg t="1483946421578" class="icon" style="" viewBox="0 0 1024 1024" version="1.1" xmlns="http://www.w3.org/2000/svg" p-id="9513" xmlns:xlink="http://www.w3.org/1999/xlink" width="32" height="32"><defs><style type="text/css"></style></defs><path d="M784.352 184.224c-15.968-6.624-34.304-2.944-46.496 9.248-53.92 53.888-141.696 53.92-195.68 0-87.264-87.168-229.12-87.168-316.32 0-8.032 7.968-12.512 18.848-12.512 30.176l0 554.656c0 23.552 19.072 42.656 42.656 42.656s42.656-19.104 42.656-42.656l0-194.272c54.24-42.528 133.152-38.88 183.168 11.104 87.264 87.168 229.152 87.168 316.32 0 8.032-8.032 12.512-18.848 12.512-30.176l0-341.344c0-17.28-10.4-32.8-26.336-39.424z" p-id="9514" fill="#ffffff"></path></svg>