<?xml version="1.0" standalone="no"?><!DOCTYPE svg PUBLIC "-//W3C//DTD SVG 1.1//EN" "http://www.w3.org/Graphics/SVG/1.1/DTD/svg11.dtd"><svg t="1483945035318" class="icon" style="" viewBox="0 0 1024 1024" version="1.1" xmlns="http://www.w3.org/2000/svg" p-id="1717" xmlns:xlink="http://www.w3.org/1999/xlink" width="32" height="32"><defs><style type="text/css"></style></defs><path d="M853.333333 1024 538.25641 1024C528.646564 1024 519.745641 1021.216821 512 1016.726974 504.254359 1021.216821 495.353436 1024 485.74359 1024L170.666667 1024C141.653333 1024 118.153846 1000.500513 118.153846 971.487179L118.153846 315.076923C118.153846 286.06359 141.653333 262.564103 170.666667 262.564103L485.74359 262.564103 485.74359 52.512821C485.74359 23.499487 509.243077 0 538.25641 0L853.333333 0C882.346667 0 905.846154 23.499487 905.846154 52.512821L905.846154 971.487179C905.846154 1000.500513 882.346667 1024 853.333333 1024ZM275.692308 971.487179 380.717949 971.487179 380.717949 840.205128 275.692308 840.205128 275.692308 971.487179ZM485.74359 315.076923 170.666667 315.076923 170.666667 971.487179 223.179487 971.487179 223.179487 787.692308 433.230769 787.692308 433.230769 971.487179 485.74359 971.487179 485.74359 315.076923ZM643.282051 971.487179 748.307692 971.487179 748.307692 840.205128 643.282051 840.205128 643.282051 971.487179ZM853.333333 52.512821 538.25641 52.512821 538.25641 971.487179 590.769231 971.487179 590.769231 787.692308 800.820513 787.692308 800.820513 971.487179 853.333333 971.487179 853.333333 52.512821ZM722.051282 630.153846 800.820513 630.153846 800.820513 708.923077 722.051282 708.923077 722.051282 630.153846ZM722.051282 498.871795 800.820513 498.871795 800.820513 577.641026 722.051282 577.641026 722.051282 498.871795ZM722.051282 367.589744 800.820513 367.589744 800.820513 446.358974 722.051282 446.358974 722.051282 367.589744ZM722.051282 236.307692 800.820513 236.307692 800.820513 315.076923 722.051282 315.076923 722.051282 236.307692ZM722.051282 105.025641 800.820513 105.025641 800.820513 183.794872 722.051282 183.794872 722.051282 105.025641ZM590.769231 630.153846 669.538462 630.153846 669.538462 708.923077 590.769231 708.923077 590.769231 630.153846ZM590.769231 498.871795 669.538462 498.871795 669.538462 577.641026 590.769231 577.641026 590.769231 498.871795ZM590.769231 367.589744 669.538462 367.589744 669.538462 446.358974 590.769231 446.358974 590.769231 367.589744ZM590.769231 236.307692 669.538462 236.307692 669.538462 315.076923 590.769231 315.076923 590.769231 236.307692ZM590.769231 105.025641 669.538462 105.025641 669.538462 183.794872 590.769231 183.794872 590.769231 105.025641ZM354.461538 630.153846 433.230769 630.153846 433.230769 708.923077 354.461538 708.923077 354.461538 630.153846ZM354.461538 498.871795 433.230769 498.871795 433.230769 577.641026 354.461538 577.641026 354.461538 498.871795ZM354.461538 367.589744 433.230769 367.589744 433.230769 446.358974 354.461538 446.358974 354.461538 367.589744ZM223.179487 630.153846 301.948718 630.153846 301.948718 708.923077 223.179487 708.923077 223.179487 630.153846ZM223.179487 498.871795 301.948718 498.871795 301.948718 577.641026 223.179487 577.641026 223.179487 498.871795ZM223.179487 367.589744 301.948718 367.589744 301.948718 446.358974 223.179487 446.358974 223.179487 367.589744Z" p-id="1718" fill="#ffffff"></path></svg>