<?xml version="1.0" standalone="no"?><!DOCTYPE svg PUBLIC "-//W3C//DTD SVG 1.1//EN" "http://www.w3.org/Graphics/SVG/1.1/DTD/svg11.dtd"><svg t="1483946644311" class="icon" style="" viewBox="0 0 1024 1024" version="1.1" xmlns="http://www.w3.org/2000/svg" p-id="18355" xmlns:xlink="http://www.w3.org/1999/xlink" width="32" height="32"><defs><style type="text/css"></style></defs><path d="M813.192783 828.030723l-603.750657 0c-61.503772 0-111.540376-50.036603-111.540376-111.540376l0-411.369092c0-61.503772 50.036603-111.540376 111.540376-111.540376l603.750657 0c61.503772 0 111.540376 50.036603 111.540376 111.540376l0 411.369092C924.733159 777.99412 874.695532 828.030723 813.192783 828.030723zM209.442126 254.979252c-27.64871 0-50.142004 22.493294-50.142004 50.142004l0 411.369092c0 27.64871 22.493294 50.142004 50.142004 50.142004l603.750657 0c27.64871 0 50.142004-22.493294 50.142004-50.142004l0-411.369092c0-27.64871-22.493294-50.142004-50.142004-50.142004L209.442126 254.979252z" p-id="18356" fill="#ffffff"></path><path d="M710.410885 512 385.762901 699.435926 385.762901 324.564074Z" p-id="18357" fill="#ffffff"></path></svg>