<?xml version="1.0" encoding="UTF-8"?>
<svg width="53px" height="50px" viewBox="0 0 53 50" version="1.1" xmlns="http://www.w3.org/2000/svg" xmlns:xlink="http://www.w3.org/1999/xlink">
    <!-- Generator: Sketch 43.1 (39012) - http://www.bohemiancoding.com/sketch -->
    <title>Page 1</title>
    <desc>Created with Sketch.</desc>
    <defs>
        <linearGradient x1="50%" y1="0%" x2="50%" y2="100%" id="linearGradient-1">
            <stop stop-color="#D5E0E3" offset="0%"></stop>
            <stop stop-color="#A4B3B7" offset="100%"></stop>
        </linearGradient>
        <linearGradient x1="50%" y1="0%" x2="50%" y2="100%" id="linearGradient-2">
            <stop stop-color="#6B757E" offset="3.31034758%"></stop>
            <stop stop-color="#41505D" offset="98.6168686%"></stop>
        </linearGradient>
        <linearGradient x1="50%" y1="3.31034758%" x2="50%" y2="98.6168686%" id="linearGradient-3">
            <stop stop-color="#6B757E" offset="0%"></stop>
            <stop stop-color="#41505D" offset="100%"></stop>
        </linearGradient>
    </defs>
    <g id="官网" stroke="none" stroke-width="1" fill="none" fill-rule="evenodd">
        <g id="PlanAlert" transform="translate(-694.000000, -359.000000)">
            <g id="Page-1" transform="translate(694.000000, 359.000000)">
                <path d="M19.5418756,46.7431613 L19.5418756,46.7454194 C18.2640585,46.7454194 17.2247415,45.7044516 17.2247415,44.4325161 C17.2247415,43.1586452 18.2653512,42.1186452 19.5418756,42.1186452 L19.5418756,42.1163871 C20.8174305,42.1163871 21.8577171,43.1570323 21.8577171,44.4302581 C21.8577171,45.7031613 20.8174305,46.7431613 19.5418756,46.7431613 M19.5418756,39.0705806 L19.5418756,39.0728387 C16.5864793,39.0728387 14.1769183,41.4802581 14.1769183,44.4338065 C14.1769183,47.3802581 16.5910037,49.788 19.5418756,49.788 L19.5418756,49.7857419 C22.491778,49.7857419 24.9068329,47.378 24.9081256,44.4292903 C24.9081256,41.478 22.4959793,39.0705806 19.5418756,39.0705806" id="Fill-1" fill="url(#linearGradient-1)"></path>
                <path d="M46.4730823,33.6504839 L41.1666189,33.6504839 L41.1653262,33.6504839 L19.5419726,33.6504839 L19.5419726,36.6940323 L41.1653262,36.6940323 L41.1666189,36.6940323 L46.4730823,36.6940323 C48.649314,36.6940323 48.6460823,33.6504839 46.4730823,33.6504839" id="Fill-3" fill="url(#linearGradient-2)"></path>
                <path d="M51.2759488,6.1016129 L41.166522,6.1016129 L41.1652293,6.1016129 L19.5418756,6.1016129 L19.5418756,7.63483871 L19.5409061,7.63483871 L19.5409061,6.1016129 L11.1342659,6.1016129 L10.1896378,1.23709677 C10.0716805,0.631612903 9.31093659,0 8.69594268,0 L1.63207683,0 L1.63207683,0 C-0.546093902,0 -0.541569512,3.04258065 1.63207683,3.04258065 L7.4413939,3.04258065 L13.7325585,35.4593548 C13.8492232,36.0635484 14.6122293,36.6951613 15.2262537,36.6951613 L19.5405829,36.6951613 L19.5405829,33.6516129 L16.4827415,33.6516129 L15.2327171,27.2167742 L19.5405829,27.2167742 L19.5405829,25.8412903 L19.5418756,25.8412903 L19.5418756,27.2158065 L41.1652293,27.2158065 L41.166522,27.2158065 L46.4102902,27.2158065 C46.9768085,27.2158065 47.7362598,26.6293548 47.8829793,26.0867742 L52.7486378,8.01483871 C52.9978024,7.08967742 52.236089,6.1016129 51.2759488,6.1016129" id="Fill-5" fill="url(#linearGradient-3)"></path>
                <path d="M41.1652939,46.7431613 L41.1652939,46.7454194 C39.8887695,46.7454194 38.8494524,45.7044516 38.8494524,44.4325161 C38.8494524,43.1586452 39.889739,42.1186452 41.1652939,42.1186452 L41.1652939,42.1163871 C42.443111,42.1163871 43.482428,43.1570323 43.482428,44.4302581 C43.482428,45.7031613 42.4418183,46.7431613 41.1652939,46.7431613 M41.1652939,39.0705806 L41.1652939,39.0728387 C38.2098976,39.0728387 35.7993671,41.4802581 35.7993671,44.4338065 C35.7993671,47.3802581 38.2134524,49.788 41.1652939,49.788 L41.1652939,49.7857419 C44.1174585,49.7857419 46.5315439,47.378 46.5305744,44.4292903 C46.5305744,41.478 44.1219829,39.0705806 41.1652939,39.0705806" id="Fill-7" fill="url(#linearGradient-1)"></path>
            </g>
        </g>
    </g>
</svg>