<?xml version="1.0" encoding="UTF-8"?>
<svg width="120px" height="31px" viewBox="0 0 120 31" version="1.1" xmlns="http://www.w3.org/2000/svg" xmlns:xlink="http://www.w3.org/1999/xlink">
    <!-- Generator: Sketch 43.1 (39012) - http://www.bohemiancoding.com/sketch -->
    <title>Alpha_logo</title>
    <desc>Created with Sketch.</desc>
    <defs>
        <polygon id="path-1" points="24.2731516 0.105230769 0.0882725275 0.105230769 0.0882725275 18.1327912 24.2731516 18.1327912 24.2731516 0.105230769"></polygon>
        <polygon id="path-3" points="0.000131868132 0.105230769 24.1847473 0.105230769 24.1847473 18.1327912 0.000131868132 18.1327912"></polygon>
        <polygon id="path-5" points="0.22349011 5.8021978 6.2706989 5.8021978 6.2706989 0.1752 0.22349011 0.1752 0.22349011 5.8021978"></polygon>
        <polygon id="path-7" points="0.150936264 5.8021978 7.75550769 5.8021978 7.75550769 0.140175824 0.150936264 0.140175824 0.150936264 5.8021978"></polygon>
    </defs>
    <g id="Symbols" stroke="none" stroke-width="1" fill="none" fill-rule="evenodd">
        <g id="logo">
            <g id="Alpha_logo">
                <path d="M33.8920352,18.1527033 C28.4187165,18.1527033 25.6824527,16.6367473 25.6824527,13.604044 L25.6824527,1.4007033 C25.6824527,0.679912088 26.1215736,0.319120879 26.9998154,0.319120879 C27.8965187,0.319120879 28.3451341,0.68043956 28.3451341,1.40254945 L28.3451341,13.6275165 C28.3451341,15.2579341 30.1567385,16.0726154 33.7810022,16.0726154 L44.0983648,16.0726154 C44.7640352,16.0726154 45.0968703,16.4376264 45.0968703,17.1673846 C45.0968703,17.8240879 44.7640352,18.1527033 44.0983648,18.1527033 L33.8920352,18.1527033 Z" id="Fill-1" fill="#FFFFFF"></path>
                <path d="M65.7314901,4.61807473 C65.7314901,3.23134945 64.3629626,2.53798681 61.6269626,2.53798681 L49.8395341,2.53798681 L49.8395341,9.47161319 L61.4602813,9.47161319 C64.307578,9.47161319 65.7314901,8.76031648 65.7314901,7.33614066 L65.7314901,4.61807473 Z M68.3385231,7.47486593 C68.3385231,10.2483165 65.9437978,11.6350418 61.1551385,11.6350418 L49.8395341,11.6350418 L49.8395341,17.1542505 C49.8395341,17.912756 49.3861714,18.2914813 48.4805011,18.2914813 C47.6112264,18.2914813 47.1768527,17.912756 47.1768527,17.1542505 L47.1768527,1.28998681 C47.1768527,0.735085714 47.4632703,0.457898901 48.036633,0.457898901 L61.2384791,0.457898901 C65.9717538,0.457898901 68.3385231,1.77104176 68.3385231,4.39627253 L68.3385231,7.47486593 Z" id="Fill-3" fill="#FFFFFF"></path>
                <path d="M92.4957099,17.1543033 C92.4957099,17.9125451 92.051578,18.2915341 91.1641055,18.2915341 C90.3138198,18.2915341 89.8886769,17.9125451 89.8886769,17.1543033 L89.8886769,10.4424791 L73.9687648,10.4424791 L73.9687648,17.1543033 C73.9687648,17.9125451 73.5154022,18.2915341 72.6097319,18.2915341 C71.7404571,18.2915341 71.3060835,17.9125451 71.3060835,17.1543033 L71.3060835,1.40080879 C71.3060835,0.679753846 71.7589187,0.319226374 72.6651165,0.319226374 C73.5341275,0.319226374 73.9687648,0.679753846 73.9687648,1.40080879 L73.9687648,8.30700659 L89.8886769,8.30700659 L89.8886769,1.40080879 C89.8886769,0.679753846 90.3043253,0.319226374 91.1369407,0.319226374 C92.0423473,0.319226374 92.4957099,0.679753846 92.4957099,1.40080879 L92.4957099,17.1543033 Z" id="Fill-5" fill="#FFFFFF"></path>
                <g id="Group-9" transform="translate(94.681319, 0.158505)">
                    <mask id="mask-2" fill="white">
                        <use xlink:href="#path-1"></use>
                    </mask>
                    <g id="Clip-8"></g>
                    <path d="M6.7724044,11.0327473 L17.4782505,11.0327473 L12.180844,2.54597802 L6.7724044,11.0327473 Z M18.9480527,13.1684835 L5.35825055,13.1684835 L2.41811868,17.5504615 C2.2698989,17.7540659 2.10822857,17.9017582 1.93258022,17.9943297 C1.75666813,18.0866374 1.61372308,18.1327912 1.50295385,18.1327912 C1.11473407,18.1327912 0.781635165,18.0217582 0.504448352,17.799956 C0.227261538,17.5781538 0.0882725275,17.2825055 0.0882725275,16.9124835 C0.0882725275,16.7091429 0.152887912,16.4873407 0.282646154,16.2470769 L10.4335912,1.02052747 C10.6366681,0.706417582 10.8956571,0.475384615 11.2100308,0.327164835 C11.5244044,0.179472527 11.8385143,0.105098901 12.1528879,0.105098901 C12.818822,0.105098901 13.3637011,0.410241758 13.7893714,1.02052747 L24.0236571,16.2470769 C24.1344264,16.3578462 24.2040527,16.4736264 24.2314813,16.5936264 C24.2594374,16.7141538 24.2731516,16.8201758 24.2731516,16.9124835 C24.2731516,17.2825055 24.1436571,17.5691868 23.8849319,17.7722637 C23.6256791,17.9761319 23.3115692,18.0774066 22.9420747,18.0774066 C22.7756571,18.0774066 22.5905143,18.030989 22.3871736,17.9386813 C22.1835692,17.8463736 22.0081846,17.7079121 21.8602286,17.5227692 L18.9480527,13.1684835 Z" id="Fill-7" fill="#FFFFFF" mask="url(#mask-2)"></path>
                </g>
                <g id="Group-12" transform="translate(0.000000, 0.158505)">
                    <mask id="mask-4" fill="white">
                        <use xlink:href="#path-3"></use>
                    </mask>
                    <g id="Clip-11"></g>
                    <path d="M24.1430769,16.5936264 C24.1153846,16.4736264 24.046022,16.3578462 23.934989,16.2470769 L13.700967,1.02052747 C13.2752967,0.410241758 12.7304176,0.105098901 12.0647473,0.105098901 C11.7501099,0.105098901 11.4357363,0.179472527 11.1216264,0.327164835 C10.806989,0.475384615 10.5482637,0.706417582 10.3451868,1.02052747 L0.193978022,16.2470769 C0.0644835165,16.4873407 0.000131868132,16.7091429 0.000131868132,16.9124835 C0.000131868132,17.2825055 0.138593407,17.5781538 0.416043956,17.799956 C0.693230769,18.022022 1.02606593,18.1327912 1.41454945,18.1327912 C1.52531868,18.1327912 1.66852747,18.0866374 1.84443956,17.9943297 C2.01982418,17.9017582 2.18149451,17.7540659 2.32971429,17.5504615 L4.51846154,14.2877802 L4.51213187,14.2877802 L7.8418022,9.21613187 L12.0924396,2.54597802 L16.0118242,8.85745055 L18.8208791,13.2328352 L18.8596484,13.2328352 L21.7718242,17.5549451 C21.9195165,17.7400879 22.0951648,17.8624615 22.2987692,17.9547692 C22.5021099,18.0470769 22.686989,18.0855824 22.8534066,18.0855824 C23.2231648,18.0855824 23.5372747,17.9800879 23.7965275,17.7764835 C24.0552527,17.5731429 24.1847473,17.2846154 24.1847473,16.9145934 C24.1847473,16.8222857 24.1707692,16.7141538 24.1430769,16.5936264" id="Fill-10" fill="#FFFFFF" mask="url(#mask-4)"></path>
                </g>
                <path d="M5.13692308,25.2533802 L0.621230769,25.2533802 C0.422901099,25.2533802 0.323736264,25.1368088 0.323736264,24.9034022 C0.323736264,24.6992703 0.422901099,24.5972044 0.621230769,24.5972044 L5.92443956,24.5972044 C6.04127473,24.5972044 6.13595604,24.6396659 6.20901099,24.7243253 C6.2818022,24.8089846 6.3181978,24.9010286 6.3181978,25.0004571 C6.3181978,25.1114901 6.27758242,25.1993143 6.19582418,25.2634022 L1.33015385,29.5240615 L6.012,29.5240615 C6.21613187,29.5240615 6.3181978,29.630611 6.3181978,29.8434462 C6.3181978,30.0681495 6.21613187,30.1805011 6.012,30.1805011 L0.735164835,30.1805011 C0.583252747,30.1805011 0.460879121,30.1338198 0.367516484,30.0401934 C0.274153846,29.9470945 0.227472527,29.8421275 0.227472527,29.7252923 C0.227472527,29.6728088 0.239076923,29.6203253 0.262549451,29.5678418 C0.285758242,29.5153582 0.323736264,29.4657758 0.37621978,29.4190945 L5.13692308,25.2533802 Z" id="Fill-13" fill="#FFFFFF"></path>
                <path d="M11.621644,27.1595341 C11.621644,26.7523253 11.2571604,26.5487209 10.5279297,26.5487209 L8.7514022,26.5487209 C7.95781978,26.5487209 7.56116044,26.7755341 7.56116044,27.2291604 L7.56116044,28.878567 C7.56116044,29.3087209 7.95781978,29.5241934 8.7514022,29.5241934 L10.5279297,29.5241934 C11.2571604,29.5241934 11.621644,29.3087209 11.621644,28.878567 L11.621644,27.1595341 Z M12.4181275,28.8877978 C12.4181275,29.7494242 11.7471824,30.1803692 10.4052923,30.1803692 L8.8386989,30.1803692 C7.4677978,30.1803692 6.78234725,29.7494242 6.78234725,28.8877978 L6.78234725,27.2373363 C6.78234725,26.3583033 7.4765011,25.9186549 8.86507253,25.9186549 L10.4052923,25.9186549 C11.7471824,25.9186549 12.4181275,26.3551385 12.4181275,27.228633 L12.4181275,28.8877978 Z" id="Fill-15" fill="#FFFFFF"></path>
                <path d="M19.0514637,29.8746725 C19.0514637,30.1078154 18.9217055,30.2241231 18.6619253,30.2241231 C18.4024088,30.2241231 18.2726505,30.1075516 18.2726505,29.8741451 L18.2726505,27.0737934 C18.2726505,26.7238154 17.9202989,26.5486945 17.2161231,26.5486945 L15.2686945,26.5486945 C14.5584527,26.5486945 14.2032,26.7238154 14.2032,27.0737934 L14.2032,29.8741451 C14.2032,30.1075516 14.0734418,30.2241231 13.8139253,30.2241231 C13.5541451,30.2241231 13.4243868,30.1078154 13.4243868,29.8746725 L13.4243868,27.0801231 C13.4243868,26.3057934 14.1087824,25.9186286 15.4778374,25.9186286 L16.9806066,25.9186286 C18.3612659,25.9186286 19.0514637,26.3057934 19.0514637,27.0801231 L19.0514637,29.8746725 Z" id="Fill-17" fill="#FFFFFF"></path>
                <path d="M20.836589,27.7650462 L25.0110066,27.7650462 L25.0110066,27.1304967 C25.0110066,26.7425407 24.7103473,26.5486945 24.109556,26.5486945 L22.0268308,26.5486945 C21.2332484,26.5486945 20.836589,26.7544088 20.836589,27.1658374 L20.836589,27.7650462 Z M25.7634462,28.0725626 C25.7634462,28.305178 25.646611,28.421222 25.4134681,28.421222 L20.836589,28.421222 L20.836589,28.9510681 C20.836589,29.3329582 21.2332484,29.524167 22.0268308,29.524167 L22.8755341,29.524167 C23.0973363,29.524167 23.2081055,29.6304527 23.2081055,29.8432879 C23.2081055,30.0679912 23.0973363,30.1803429 22.8755341,30.1803429 L22.2280615,30.1803429 C20.7812044,30.1803429 20.0577758,29.7409582 20.0577758,28.8616615 L20.0577758,27.2199033 C20.0577758,26.3524747 20.7722374,25.9186286 22.2016879,25.9186286 L23.9521055,25.9186286 C25.1597538,25.9186286 25.7634462,26.2965626 25.7634462,27.052167 L25.7634462,28.0725626 Z" id="Fill-19" fill="#FFFFFF"></path>
                <g id="Group-23" transform="translate(51.428571, 24.422242)">
                    <mask id="mask-6" fill="white">
                        <use xlink:href="#path-5"></use>
                    </mask>
                    <g id="Clip-22"></g>
                    <path d="M3.67157802,0.831375824 L3.67157802,5.44333187 C3.67157802,5.6828044 3.52995165,5.80227692 3.24722637,5.80227692 C2.96977582,5.80227692 2.83131429,5.6828044 2.83131429,5.44333187 L2.83131429,0.831375824 L0.529687912,0.831375824 C0.325556044,0.831375824 0.22349011,0.714804396 0.22349011,0.481397802 C0.22349011,0.277265934 0.325556044,0.1752 0.529687912,0.1752 L5.96423736,0.1752 C6.16836923,0.1752 6.2706989,0.277265934 6.2706989,0.481397802 C6.2706989,0.714804396 6.16836923,0.831375824 5.96423736,0.831375824 L3.67157802,0.831375824 Z" id="Fill-21" fill="#FFFFFF" mask="url(#mask-6)"></path>
                </g>
                <g id="Group-26" transform="translate(57.758242, 24.422242)">
                    <mask id="mask-8" fill="white">
                        <use xlink:href="#path-7"></use>
                    </mask>
                    <g id="Clip-25"></g>
                    <path d="M3.97511209,5.04962637 L6.9941011,0.332703297 C7.08166154,0.204527473 7.1955956,0.140175824 7.33537582,0.140175824 C7.44614505,0.140175824 7.54399121,0.176571429 7.62891429,0.249626374 C7.71330989,0.322417582 7.75550769,0.411296703 7.75550769,0.516527473 C7.74996923,0.545802198 7.74232088,0.579296703 7.73361758,0.617010989 C7.72491429,0.654989011 7.71172747,0.688747253 7.69458462,0.717758242 L4.49150769,5.48716484 C4.42715604,5.58632967 4.34698022,5.6636044 4.25071648,5.71898901 C4.15445275,5.77437363 4.05687033,5.80232967 3.95770549,5.80232967 C3.7359033,5.80232967 3.55788132,5.70026374 3.42363956,5.49586813 L0.22952967,0.726461538 C0.177046154,0.656571429 0.150936264,0.583516484 0.150936264,0.50756044 C0.150936264,0.402593407 0.193134066,0.315296703 0.277793407,0.245142857 C0.362189011,0.175252747 0.460035165,0.140175824 0.570804396,0.140175824 C0.623551648,0.145978022 0.680254945,0.162065934 0.741441758,0.188175824 C0.802892308,0.214549451 0.856694505,0.259912088 0.903375824,0.324 L3.97511209,5.04962637 Z" id="Fill-24" fill="#FFFFFF" mask="url(#mask-8)"></path>
                </g>
                <path d="M91.9012747,25.2533802 L91.9012747,29.8653363 C91.9012747,30.1048088 91.7596484,30.2242813 91.4769231,30.2242813 C91.1994725,30.2242813 91.061011,30.1048088 91.061011,29.8653363 L91.061011,25.2533802 L88.7593846,25.2533802 C88.554989,25.2533802 88.4531868,25.1368088 88.4531868,24.9034022 C88.4531868,24.6992703 88.554989,24.5972044 88.7593846,24.5972044 L94.1939341,24.5972044 C94.3980659,24.5972044 94.5001319,24.6992703 94.5001319,24.9034022 C94.5001319,25.1368088 94.3980659,25.2533802 94.1939341,25.2533802 L91.9012747,25.2533802 Z" id="Fill-27" fill="#FFFFFF"></path>
                <path d="M96.3641934,26.5486154 C95.6230945,26.5486154 95.2528088,26.7675165 95.2528088,27.2047912 L95.2528088,29.8740659 C95.2528088,30.1074725 95.1214681,30.2243077 94.8590505,30.2243077 C94.6021714,30.2243077 94.4739956,30.1077363 94.4739956,29.8745934 L94.4739956,27.2111209 C94.4739956,26.3494945 95.1301714,25.9185495 96.4430505,25.9185495 L96.8017319,25.9185495 C96.9945231,25.9185495 97.0905231,26.0221978 97.0905231,26.2292308 C97.0905231,26.4423297 97.0087648,26.5486154 96.8455121,26.5486154 L96.3641934,26.5486154 Z" id="Fill-29" fill="#FFFFFF"></path>
                <path d="M102.157635,27.8263385 L98.5803165,27.8263385 C97.9721407,27.8263385 97.6683165,28.0180747 97.6683165,28.4010198 L97.6683165,28.9844044 C97.6683165,29.3441407 97.9927121,29.5240088 98.6415033,29.5240088 L101.219262,29.5240088 C101.844844,29.5240088 102.157635,29.2510418 102.157635,28.7056352 L102.157635,27.8263385 Z M102.901371,28.9313934 C102.901371,29.7642725 102.294778,30.1804484 101.081327,30.1804484 L98.805811,30.1804484 C97.5282725,30.1804484 96.8892396,29.7795692 96.8892396,28.977811 L96.8892396,28.4160527 C96.8892396,27.5852835 97.513767,27.1701626 98.7622945,27.1701626 L102.148932,27.1701626 C102.096448,26.7555692 101.781284,26.5485363 101.203701,26.5485363 L100.258734,26.5485363 C100.072009,26.5485363 99.9783824,26.4393495 99.9783824,26.2204484 C99.9783824,26.0192176 100.072009,25.9187341 100.258734,25.9187341 L101.081327,25.9187341 C102.294778,25.9187341 102.901371,26.3436132 102.901371,27.1936352 L102.901371,28.9313934 Z" id="Fill-31" fill="#FFFFFF"></path>
                <path d="M108.852237,26.5573714 L105.824545,26.5573714 C105.030963,26.5573714 104.634303,26.8076571 104.634303,27.3079648 L104.634303,28.8347341 C104.634303,29.2944264 105.013292,29.5241407 105.771798,29.5241407 L107.565732,29.5241407 C108.423402,29.5241407 108.852237,29.2944264 108.852237,28.8347341 L108.852237,26.5573714 Z M109.631051,28.9288879 C109.631051,29.7633495 108.903666,30.1803165 107.448897,30.1803165 L105.993864,30.1803165 C104.568105,30.1803165 103.85549,29.7886681 103.85549,29.0051077 L103.85549,27.2077451 C103.85549,26.3366242 104.567051,25.9011956 105.990435,25.9011956 L108.852237,25.9011956 L108.852237,24.8926681 C108.852237,24.6663824 108.978831,24.5532396 109.232809,24.5532396 C109.498391,24.5532396 109.631051,24.6671736 109.631051,24.8945143 L109.631051,28.9288879 Z" id="Fill-33" fill="#FFFFFF"></path>
                <path d="M111.398954,27.7650462 L115.573108,27.7650462 L115.573108,27.1304967 C115.573108,26.7425407 115.272712,26.5486945 114.671657,26.5486945 L112.589196,26.5486945 C111.795613,26.5486945 111.398954,26.7544088 111.398954,27.1658374 L111.398954,27.7650462 Z M116.325811,28.0725626 C116.325811,28.305178 116.208976,28.421222 115.975833,28.421222 L111.398954,28.421222 L111.398954,28.9510681 C111.398954,29.3329582 111.795613,29.524167 112.589196,29.524167 L113.437899,29.524167 C113.659437,29.524167 113.77047,29.6304527 113.77047,29.8432879 C113.77047,30.0679912 113.659437,30.1803429 113.437899,30.1803429 L112.790163,30.1803429 C111.343305,30.1803429 110.620141,29.7409582 110.620141,28.8616615 L110.620141,27.2199033 C110.620141,26.3524747 111.334602,25.9186286 112.764053,25.9186286 L114.51447,25.9186286 C115.722119,25.9186286 116.325811,26.2965626 116.325811,27.052167 L116.325811,28.0725626 Z" id="Fill-35" fill="#FFFFFF"></path>
                <path d="M119.056062,26.5486154 C118.314963,26.5486154 117.944677,26.7675165 117.944677,27.2047912 L117.944677,29.8740659 C117.944677,30.1074725 117.813336,30.2243077 117.550919,30.2243077 C117.29404,30.2243077 117.165864,30.1077363 117.165864,29.8745934 L117.165864,27.2111209 C117.165864,26.3494945 117.82204,25.9185495 119.134919,25.9185495 L119.4936,25.9185495 C119.686391,25.9185495 119.782391,26.0221978 119.782391,26.2292308 C119.782391,26.4423297 119.700633,26.5486154 119.53738,26.5486154 L119.056062,26.5486154 Z" id="Fill-37" fill="#FFFFFF"></path>
                <path d="M36.3845011,27.9848176 C36.3845011,28.2762462 36.1484571,28.5122901 35.8570286,28.5122901 C35.5656,28.5122901 35.329556,28.2762462 35.329556,27.9848176 C35.329556,27.693389 35.5656,27.4573451 35.8570286,27.4573451 C36.1484571,27.4573451 36.3845011,27.693389 36.3845011,27.9848176" id="Fill-39" fill="#FFFFFF"></path>
                <path d="M78.9736352,27.4573451 C78.9736352,27.7487736 78.7375912,27.9848176 78.4461626,27.9848176 C78.1547341,27.9848176 77.9186901,27.7487736 77.9186901,27.4573451 C77.9186901,27.1659165 78.1547341,26.9298725 78.4461626,26.9298725 C78.7375912,26.9298725 78.9736352,27.1659165 78.9736352,27.4573451" id="Fill-41" fill="#FFFFFF"></path>
                <g id="Group-46" transform="translate(0.000000, 21.521143)" stroke="#FFFFFF">
                    <path d="M0.028589011,0 L118.973644,0" id="Stroke-45"></path>
                </g>
            </g>
        </g>
    </g>
</svg>