<?xml version="1.0" encoding="UTF-8"?>
<svg width="18px" height="16px" viewBox="0 0 18 16" version="1.1" xmlns="http://www.w3.org/2000/svg" xmlns:xlink="http://www.w3.org/1999/xlink">
    <!-- Generator: Sketch 43.1 (39012) - http://www.bohemiancoding.com/sketch -->
    <title>member_tag_vip1</title>
    <desc>Created with Sketch.</desc>
    <defs>
        <linearGradient x1="50%" y1="1.40505421%" x2="50%" y2="97.5366709%" id="linearGradient-1">
            <stop stop-color="#FBFBFB" offset="0%"></stop>
            <stop stop-color="#A9A9A9" offset="100%"></stop>
        </linearGradient>
    </defs>
    <g id="官网" stroke="none" stroke-width="1" fill="none" fill-rule="evenodd">
        <g id="Desktop-HD-Copy-2" transform="translate(-1263.000000, -10.000000)" fill="url(#linearGradient-1)">
            <g id="member_tag_vip1" transform="translate(1263.000000, 10.000000)">
                <path d="M9.00070711,13.7819296 C10.6820025,13.7819296 12.3632979,13.7806708 14.0444789,13.7827307 C14.4942129,13.7833029 14.8533134,14.1002909 14.9030931,14.5287397 C14.9528728,14.9578751 14.6683846,15.3526797 14.2361594,15.4496071 C14.1740206,15.4635683 14.1085632,15.4678025 14.0447078,15.4678025 C10.682117,15.4686035 7.31952613,15.4689468 3.95704973,15.4678025 C3.57265882,15.467688 3.25189439,15.2385869 3.13734383,14.8931043 C3.02256441,14.5469351 3.1277312,14.1552202 3.43705202,13.9595345 C3.59600379,13.8589451 3.80507857,13.790169 3.99206719,13.7887958 C5.66157568,13.7758645 7.33119861,13.781243 9.00070711,13.781243 L9.00070711,13.7819296 Z M0.000993202137,4.35925983 C0.0201040335,4.30444493 0.0397870455,4.2498589 0.0582112602,4.19481513 C0.207321519,3.75057412 0.595488825,3.45315466 1.06845329,3.42088367 C1.4978176,3.39158803 1.93061499,3.64369079 2.13076376,4.03998306 C2.33491779,4.44405699 2.27666981,4.92251439 1.98050914,5.27280334 C1.94686492,5.31262711 1.91219078,5.35142095 1.87179483,5.39788201 C2.70752178,5.90941145 3.53569595,6.41647788 4.36398456,6.92331544 C4.67845501,7.11568255 4.99189553,7.30999508 5.30854026,7.49881467 C5.48625955,7.60501138 5.62529943,7.57354145 5.72291344,7.39605104 C6.67559411,5.66348824 7.62529943,3.9292089 8.58438852,2.1801673 C8.16772662,1.96949041 7.90269258,1.64929816 7.87843212,1.17209956 C7.86149558,0.838861588 7.97856372,0.550597011 8.21762077,0.317490643 C8.68852539,-0.141627055 9.45879488,-0.0963103527 9.8707649,0.411328258 C10.3429283,0.993121472 10.174135,1.67367305 9.42080209,2.18714791 C9.66695418,2.63619523 9.91356401,3.08661578 10.1606316,3.53680746 C10.8499947,4.79354489 11.5393579,6.05028231 12.2290644,7.3069053 C12.3884739,7.59734416 12.4910087,7.62515214 12.7714916,7.45338353 C13.8397527,6.79972444 14.907785,6.1456076 15.9759317,5.49160519 C16.0247959,5.46162293 16.0725158,5.42980969 16.1293905,5.39330457 C15.9097876,5.17370166 15.7696034,4.92217108 15.7527813,4.61525342 C15.7211969,4.03895314 16.1157726,3.53703633 16.6722755,3.44102443 C17.2488046,3.34146501 17.7852811,3.67046884 17.9561342,4.22788716 C17.9696377,4.2720595 17.9858876,4.31543079 18.0008788,4.35914539 L18.0008788,4.74593946 C17.8184676,5.32693162 17.4462069,5.66554809 16.8068523,5.67081215 C16.7848806,5.73695623 16.7609634,5.80241368 16.7415093,5.86912994 C16.1163448,8.01377719 15.491638,10.1585389 14.8668169,12.3033006 C14.7854528,12.5820669 14.6878388,12.6575948 14.4050671,12.6577092 C10.8079967,12.6580525 7.21092626,12.6583958 3.61385582,12.6583958 C3.31197335,12.6583958 3.21687694,12.5868733 3.13448293,12.3038727 C2.62787425,10.5632994 2.12115112,8.8227261 1.61397026,7.08226721 C1.47676135,6.61136259 1.33772147,6.14091572 1.19925377,5.66932448 C0.721482989,5.66898117 0.36020817,5.4808482 0.133624661,5.06613171 C0.0785808888,4.9653135 0.0445933623,4.85293723 0.000878766021,4.74593946 C0.000993202137,4.61696996 0.000993202137,4.48811489 0.000993202137,4.35925983 Z" id="Fill-1"></path>
            </g>
        </g>
    </g>
</svg>