<?xml version="1.0" encoding="UTF-8"?>
<svg width="15px" height="18px" viewBox="0 0 15 18" version="1.1" xmlns="http://www.w3.org/2000/svg" xmlns:xlink="http://www.w3.org/1999/xlink">
    <!-- Generator: Sketch 43.1 (39012) - http://www.bohemiancoding.com/sketch -->
    <title>order_safe</title>
    <desc>Created with Sketch.</desc>
    <defs></defs>
    <g id="官网" stroke="none" stroke-width="1" fill="none" fill-rule="evenodd">
        <g id="zone-order" transform="translate(-389.000000, -1119.000000)" fill="#40B730">
            <g id="booking" transform="translate(389.000000, 380.000000)">
                <g id="location-copy-4" transform="translate(0.000000, 693.000000)">
                    <g id="Group-3" transform="translate(0.000000, 46.000000)">
                        <g id="order_safe">
                            <path d="M7.08699513,13.0275913 L3.90768398,10.3117628 L4.88511597,9.1581821 L6.92470299,10.8992669 L10.7956975,6.42741617 L11.938692,7.42173308 L7.08699513,13.0275913 Z M1.51203537,4.06823138 L1.51203537,10.1845372 C1.51203537,13.1212335 5.75309275,16.4836976 7.48751332,16.4836976 C9.22183169,16.4836976 13.4629913,13.1212335 13.4629913,10.1845372 L13.4629913,4.06823138 C12.7220479,3.98767234 11.5188582,3.7853476 10.2696788,3.27665127 C8.98891998,2.75476881 8.01670015,2.1868379 7.48751332,1.8488402 C6.95985947,2.1868379 5.98600445,2.75476881 4.70688078,3.27665127 C3.45616845,3.7853476 2.2528765,3.98767234 1.51203537,4.06823138 L1.51203537,4.06823138 Z M7.48751332,18 C4.86937731,18 0,13.9827619 0,10.1845372 L0,2.61744759 L0.744418091,2.60529162 C0.760258948,2.60529162 2.42232257,2.56985389 4.13712091,1.87181292 C5.89596706,1.15543499 7.03047904,0.332640832 7.04110774,0.324708549 L7.48567373,0 L7.9337145,0.324708549 C7.9444454,0.332640832 9.07885517,1.15543499 10.8378035,1.87181292 C12.5527041,2.56985389 14.2146655,2.60529162 14.2322437,2.60529162 L14.9732892,2.61744759 L14.976764,10.1845372 C14.976764,13.9827619 10.1073867,18 7.48751332,18 L7.48751332,18 Z" id="Fill-1"></path>
                        </g>
                    </g>
                </g>
            </g>
        </g>
    </g>
</svg>